M48
;DRILL file {KiCad 4.0.6} date Wednesday, 31 May 2017 22:47:24
;FORMAT={-:-/ absolute / inch / decimal}
FMAT,2
INCH,TZ
T1C0.016
T2C0.030
T3C0.031
T4C0.032
T5C0.032
T6C0.040
T7C0.120
%
G90
G05
M72
T1
X5.21Y-4.58
X5.3167Y-4.6093
X5.34Y-5.15
X5.37Y-4.02
X5.65Y-4.51
X5.7359Y-5.0171
X5.7433Y-5.0805
X5.77Y-5.12
X5.85Y-5.12
X5.91Y-5.22
X5.95Y-4.51
X6.37Y-5.
X6.37Y-5.1
X6.38Y-5.19
X6.89Y-5.48
X6.95Y-5.52
X6.98Y-5.49
T2
X7.4Y-4.05
X7.4Y-4.15
X7.4Y-4.25
X7.4Y-4.35
X7.4Y-4.45
X7.4Y-4.55
X7.4Y-4.65
X7.4Y-4.75
X7.4Y-4.85
X7.4Y-4.95
X7.4Y-5.05
X7.4Y-5.15
X7.475Y-4.1
X7.475Y-4.2
X7.475Y-4.3
X7.475Y-4.4
X7.475Y-4.5
X7.475Y-4.6
X7.475Y-4.7
X7.475Y-4.8
X7.475Y-4.9
X7.475Y-5.
X7.475Y-5.1
X7.475Y-5.2
X7.6Y-4.05
X7.6Y-4.15
X7.6Y-4.25
X7.6Y-4.35
X7.6Y-4.45
X7.6Y-4.55
X7.6Y-4.65
X7.6Y-4.75
X7.6Y-4.85
X7.6Y-4.95
X7.6Y-5.05
X7.6Y-5.15
X7.675Y-4.1
X7.675Y-4.2
X7.675Y-4.3
X7.675Y-4.4
X7.675Y-4.5
X7.675Y-4.6
X7.675Y-4.7
X7.675Y-4.8
X7.675Y-4.9
X7.675Y-5.
X7.675Y-5.1
X7.675Y-5.2
X7.8Y-4.05
X7.8Y-4.15
X7.8Y-4.25
X7.8Y-4.35
X7.8Y-4.45
X7.8Y-4.55
X7.8Y-4.65
X7.8Y-4.75
X7.8Y-4.85
X7.8Y-4.95
X7.8Y-5.05
X7.8Y-5.15
X7.875Y-4.1
X7.875Y-4.2
X7.875Y-4.3
X7.875Y-4.4
X7.875Y-4.5
X7.875Y-4.6
X7.875Y-4.7
X7.875Y-4.8
X7.875Y-4.9
X7.875Y-5.
X7.875Y-5.1
X7.875Y-5.2
X8.Y-4.05
X8.Y-4.15
X8.Y-4.25
X8.Y-4.35
X8.Y-4.45
X8.Y-4.55
X8.Y-4.65
X8.Y-4.75
X8.Y-4.85
X8.Y-4.95
X8.Y-5.05
X8.Y-5.15
X8.075Y-4.1
X8.075Y-4.2
X8.075Y-4.3
X8.075Y-4.4
X8.075Y-4.5
X8.075Y-4.6
X8.075Y-4.7
X8.075Y-4.8
X8.075Y-4.9
X8.075Y-5.
X8.075Y-5.1
X8.075Y-5.2
T3
X4.95Y-3.5
X4.95Y-3.6
X4.95Y-3.7
X4.95Y-3.8
X4.95Y-3.9
X4.95Y-4.
X4.95Y-4.1
X4.95Y-4.2
X4.95Y-4.3
X4.95Y-4.4
X5.25Y-3.5
X5.25Y-3.6
X5.25Y-3.7
X5.25Y-3.8
X5.25Y-3.9
X5.25Y-4.
X5.25Y-4.1
X5.25Y-4.2
X5.25Y-4.3
X5.25Y-4.4
X5.27Y-4.85
X5.27Y-5.25
X5.45Y-3.45
X5.45Y-3.6
X5.45Y-3.7
X5.45Y-4.
X5.55Y-3.7
X5.55Y-4.
X5.65Y-3.7
X5.65Y-4.
X5.7453Y-3.45
X5.75Y-3.7
X5.75Y-4.
X5.85Y-3.6
X5.85Y-3.7
X5.85Y-4.
X5.95Y-3.7
X5.95Y-4.
X6.05Y-3.7
X6.05Y-4.
X6.15Y-3.7
X6.15Y-4.
X6.25Y-3.7
X6.25Y-4.
X6.35Y-3.7
X6.35Y-4.
X6.8Y-5.
X6.8Y-5.4
X7.1Y-4.05
X7.1Y-4.15
X7.1Y-4.25
X7.1Y-4.35
X7.1Y-4.45
X7.1Y-4.55
X7.1Y-4.65
X7.1Y-4.75
X7.1Y-4.85
X7.1Y-4.95
X7.1Y-5.05
X7.1Y-5.15
X7.1Y-5.25
X7.1Y-5.35
X7.2Y-4.1
X7.2Y-4.2
X7.2Y-4.3
X7.2Y-4.4
X7.2Y-4.5
X7.2Y-4.6
X7.2Y-4.7
X7.2Y-4.8
X7.2Y-4.9
X7.2Y-5.
X7.2Y-5.1
X7.2Y-5.2
X7.2Y-5.3
X7.2Y-5.4
X7.4Y-5.35
X7.6953Y-5.35
X7.8Y-3.9
X7.8Y-5.35
X8.0953Y-3.9
X8.0953Y-5.35
X8.34Y-5.35
X8.45Y-3.85
X8.45Y-4.15
X8.45Y-4.35
X8.45Y-4.65
X8.45Y-4.85
X8.45Y-5.15
X8.74Y-5.35
X8.95Y-5.5
X8.95Y-5.6
X8.95Y-5.7
X8.95Y-5.8
X8.9547Y-5.35
X9.05Y-3.85
X9.05Y-4.15
X9.05Y-4.35
X9.05Y-4.65
X9.05Y-4.85
X9.05Y-5.15
X9.25Y-3.8547
X9.25Y-4.15
X9.25Y-4.3547
X9.25Y-4.65
X9.25Y-4.8547
X9.25Y-5.15
X9.25Y-5.35
X9.25Y-5.5
X9.25Y-5.6
X9.25Y-5.7
X9.25Y-5.8
T4
X5.45Y-5.6
X5.45Y-5.7
X5.45Y-5.8
X5.55Y-5.6
X5.55Y-5.7
X5.55Y-5.8
X5.65Y-5.6
X5.65Y-5.7
X5.65Y-5.8
X5.75Y-5.6
X5.75Y-5.7
X5.75Y-5.8
X5.85Y-5.6
X5.85Y-5.7
X5.85Y-5.8
X5.95Y-5.6
X5.95Y-5.7
X5.95Y-5.8
X6.05Y-5.6
X6.05Y-5.7
X6.05Y-5.8
X6.15Y-5.6
X6.15Y-5.7
X6.15Y-5.8
X6.25Y-5.6
X6.25Y-5.7
X6.25Y-5.8
X6.35Y-5.6
X6.35Y-5.7
X6.35Y-5.8
X6.45Y-5.6
X6.45Y-5.7
X6.45Y-5.8
X6.55Y-5.6
X6.55Y-5.7
X6.55Y-5.8
X6.65Y-5.6
X6.65Y-5.7
X6.65Y-5.8
X6.75Y-5.6
X6.75Y-5.7
X6.75Y-5.8
X6.85Y-5.6
X6.85Y-5.7
X6.85Y-5.8
X6.95Y-5.6
X6.95Y-5.7
X6.95Y-5.8
X7.05Y-5.6
X7.05Y-5.7
X7.05Y-5.8
X7.15Y-5.6
X7.15Y-5.7
X7.15Y-5.8
X7.25Y-5.6
X7.25Y-5.7
X7.25Y-5.8
X7.35Y-5.6
X7.35Y-5.7
X7.35Y-5.8
X7.45Y-5.6
X7.45Y-5.7
X7.45Y-5.8
X7.55Y-5.6
X7.55Y-5.7
X7.55Y-5.8
X7.65Y-5.6
X7.65Y-5.7
X7.65Y-5.8
X7.75Y-5.6
X7.75Y-5.7
X7.75Y-5.8
X7.85Y-5.6
X7.85Y-5.7
X7.85Y-5.8
X7.95Y-5.6
X7.95Y-5.7
X7.95Y-5.8
X8.05Y-5.6
X8.05Y-5.7
X8.05Y-5.8
X8.15Y-5.6
X8.15Y-5.7
X8.15Y-5.8
X8.25Y-5.6
X8.25Y-5.7
X8.25Y-5.8
X8.35Y-5.6
X8.35Y-5.7
X8.35Y-5.8
X8.45Y-5.6
X8.45Y-5.7
X8.45Y-5.8
X8.55Y-5.6
X8.55Y-5.7
X8.55Y-5.8
T5
X5.45Y-4.3
X5.45Y-4.4
X5.45Y-4.5
X5.45Y-4.6
X5.45Y-4.7
X5.45Y-4.8
X5.45Y-4.9
X5.45Y-5.
X5.45Y-5.1
X5.45Y-5.2
X5.45Y-5.3
X5.55Y-4.2
X5.55Y-4.3
X5.55Y-4.4
X5.55Y-4.5
X5.55Y-4.6
X5.55Y-4.7
X5.55Y-4.8
X5.55Y-4.9
X5.55Y-5.
X5.55Y-5.1
X5.55Y-5.2
X5.55Y-5.3
X5.55Y-5.4
X5.65Y-4.2
X5.65Y-4.3
X5.65Y-5.3
X5.65Y-5.4
X5.75Y-4.2
X5.75Y-4.3
X5.75Y-5.3
X5.75Y-5.4
X5.85Y-4.2
X5.85Y-4.3
X5.85Y-5.3
X5.85Y-5.4
X5.95Y-4.2
X5.95Y-4.3
X5.95Y-5.3
X5.95Y-5.4
X6.05Y-4.2
X6.05Y-4.3
X6.05Y-5.3
X6.05Y-5.4
X6.15Y-4.2
X6.15Y-4.3
X6.15Y-5.3
X6.15Y-5.4
X6.25Y-4.2
X6.25Y-4.3
X6.25Y-5.3
X6.25Y-5.4
X6.35Y-4.2
X6.35Y-4.3
X6.35Y-5.3
X6.35Y-5.4
X6.45Y-4.2
X6.45Y-4.3
X6.45Y-5.3
X6.45Y-5.4
X6.55Y-4.2
X6.55Y-4.3
X6.55Y-4.4
X6.55Y-4.5
X6.55Y-4.6
X6.55Y-4.7
X6.55Y-4.8
X6.55Y-4.9
X6.55Y-5.
X6.55Y-5.1
X6.55Y-5.2
X6.55Y-5.3
X6.55Y-5.4
X6.65Y-4.3
X6.65Y-4.4
X6.65Y-4.5
X6.65Y-4.6
X6.65Y-4.7
X6.65Y-4.8
X6.65Y-4.9
X6.65Y-5.
X6.65Y-5.1
X6.65Y-5.2
X6.65Y-5.3
T6
X6.6424Y-3.6935
X6.6511Y-3.5939
X6.742Y-3.7022
X6.7508Y-3.6026
X6.8417Y-3.7109
X6.8504Y-3.6113
X6.9413Y-3.7196
X6.95Y-3.62
X7.0409Y-3.7283
X7.0496Y-3.6287
X7.1405Y-3.7371
X7.1492Y-3.6374
X7.2401Y-3.7458
X7.2489Y-3.6461
X7.3398Y-3.7545
X7.3485Y-3.6549
X7.4394Y-3.7632
X7.4481Y-3.6636
X7.539Y-3.7719
X7.5477Y-3.6723
T7
X5.25Y-5.7
X8.75Y-5.7
T0
M30
