G04 #@! TF.FileFunction,Copper,L1,Top,Signal*
%FSLAX46Y46*%
G04 Gerber Fmt 4.6, Leading zero omitted, Abs format (unit mm)*
G04 Created by KiCad (PCBNEW 4.0.6) date Wednesday, 31 May 2017 22:47:01*
%MOMM*%
%LPD*%
G01*
G04 APERTURE LIST*
%ADD10C,0.100000*%
%ADD11R,1.524000X1.524000*%
%ADD12C,1.524000*%
%ADD13C,3.810000*%
%ADD14C,1.520000*%
%ADD15R,1.520000X1.520000*%
%ADD16R,1.600000X1.600000*%
%ADD17O,1.600000X1.600000*%
%ADD18C,1.600000*%
%ADD19C,1.727200*%
%ADD20R,1.397000X1.397000*%
%ADD21C,1.397000*%
%ADD22R,0.650000X1.060000*%
%ADD23C,0.600000*%
%ADD24C,0.254000*%
%ADD25C,0.228600*%
%ADD26C,0.609600*%
G04 APERTURE END LIST*
D10*
D11*
X187960000Y-102870000D03*
D12*
X189865000Y-104140000D03*
X187960000Y-105410000D03*
X189865000Y-106680000D03*
X187960000Y-107950000D03*
X189865000Y-109220000D03*
X187960000Y-110490000D03*
X189865000Y-111760000D03*
X187960000Y-113030000D03*
X189865000Y-114300000D03*
X187960000Y-115570000D03*
X189865000Y-116840000D03*
X187960000Y-118110000D03*
X189865000Y-119380000D03*
X187960000Y-120650000D03*
X189865000Y-121920000D03*
X187960000Y-123190000D03*
X189865000Y-124460000D03*
X187960000Y-125730000D03*
X189865000Y-127000000D03*
X187960000Y-128270000D03*
X189865000Y-129540000D03*
X187960000Y-130810000D03*
X189865000Y-132080000D03*
D11*
X198120000Y-102870000D03*
D12*
X200025000Y-104140000D03*
X198120000Y-105410000D03*
X200025000Y-106680000D03*
X198120000Y-107950000D03*
X200025000Y-109220000D03*
X198120000Y-110490000D03*
X200025000Y-111760000D03*
X198120000Y-113030000D03*
X200025000Y-114300000D03*
X198120000Y-115570000D03*
X200025000Y-116840000D03*
X198120000Y-118110000D03*
X200025000Y-119380000D03*
X198120000Y-120650000D03*
X200025000Y-121920000D03*
X198120000Y-123190000D03*
X200025000Y-124460000D03*
X198120000Y-125730000D03*
X200025000Y-127000000D03*
X198120000Y-128270000D03*
X200025000Y-129540000D03*
X198120000Y-130810000D03*
X200025000Y-132080000D03*
D11*
X203200000Y-102870000D03*
D12*
X205105000Y-104140000D03*
X203200000Y-105410000D03*
X205105000Y-106680000D03*
X203200000Y-107950000D03*
X205105000Y-109220000D03*
X203200000Y-110490000D03*
X205105000Y-111760000D03*
X203200000Y-113030000D03*
X205105000Y-114300000D03*
X203200000Y-115570000D03*
X205105000Y-116840000D03*
X203200000Y-118110000D03*
X205105000Y-119380000D03*
X203200000Y-120650000D03*
X205105000Y-121920000D03*
X203200000Y-123190000D03*
X205105000Y-124460000D03*
X203200000Y-125730000D03*
X205105000Y-127000000D03*
X203200000Y-128270000D03*
X205105000Y-129540000D03*
X203200000Y-130810000D03*
X205105000Y-132080000D03*
D13*
X133350000Y-144780000D03*
X222250000Y-144780000D03*
D14*
X143510000Y-142240000D03*
X146050000Y-142240000D03*
X148590000Y-142240000D03*
X151130000Y-142240000D03*
X153670000Y-142240000D03*
X156210000Y-142240000D03*
X158750000Y-142240000D03*
X161290000Y-142240000D03*
X163830000Y-142240000D03*
X166370000Y-142240000D03*
X168910000Y-142240000D03*
X171450000Y-142240000D03*
X173990000Y-142240000D03*
X176530000Y-142240000D03*
X179070000Y-142240000D03*
X181610000Y-142240000D03*
X184150000Y-142240000D03*
X186690000Y-142240000D03*
X189230000Y-142240000D03*
X191770000Y-142240000D03*
X194310000Y-142240000D03*
X196850000Y-142240000D03*
X199390000Y-142240000D03*
X201930000Y-142240000D03*
X204470000Y-142240000D03*
X207010000Y-142240000D03*
X209550000Y-142240000D03*
X212090000Y-142240000D03*
X214630000Y-142240000D03*
X217170000Y-142240000D03*
X140970000Y-142240000D03*
D15*
X138430000Y-142240000D03*
D14*
X138430000Y-144780000D03*
X140970000Y-144780000D03*
X143510000Y-144780000D03*
X146050000Y-144780000D03*
X148590000Y-144780000D03*
X151130000Y-144780000D03*
X153670000Y-144780000D03*
X156210000Y-144780000D03*
X158750000Y-144780000D03*
X161290000Y-144780000D03*
X163830000Y-144780000D03*
X166370000Y-144780000D03*
X168910000Y-144780000D03*
X171450000Y-144780000D03*
X173990000Y-144780000D03*
X176530000Y-144780000D03*
X179070000Y-144780000D03*
X181610000Y-144780000D03*
X184150000Y-144780000D03*
X186690000Y-144780000D03*
X189230000Y-144780000D03*
X191770000Y-144780000D03*
X194310000Y-144780000D03*
X196850000Y-144780000D03*
X199390000Y-144780000D03*
X201930000Y-144780000D03*
X204470000Y-144780000D03*
X207010000Y-144780000D03*
X209550000Y-144780000D03*
X212090000Y-144780000D03*
X214630000Y-144780000D03*
X217170000Y-144780000D03*
X138430000Y-147320000D03*
X140970000Y-147320000D03*
X143510000Y-147320000D03*
X146050000Y-147320000D03*
X148590000Y-147320000D03*
X151130000Y-147320000D03*
X153670000Y-147320000D03*
X156210000Y-147320000D03*
X158750000Y-147320000D03*
X161290000Y-147320000D03*
X163830000Y-147320000D03*
X166370000Y-147320000D03*
X168910000Y-147320000D03*
X171450000Y-147320000D03*
X173990000Y-147320000D03*
X176530000Y-147320000D03*
X179070000Y-147320000D03*
X181610000Y-147320000D03*
X184150000Y-147320000D03*
X186690000Y-147320000D03*
X189230000Y-147320000D03*
X191770000Y-147320000D03*
X194310000Y-147320000D03*
X196850000Y-147320000D03*
X199390000Y-147320000D03*
X201930000Y-147320000D03*
X204470000Y-147320000D03*
X207010000Y-147320000D03*
X209550000Y-147320000D03*
X212090000Y-147320000D03*
X214630000Y-147320000D03*
X217170000Y-147320000D03*
D16*
X182880000Y-104140000D03*
D17*
X182880000Y-106680000D03*
X182880000Y-109220000D03*
X182880000Y-111760000D03*
X182880000Y-114300000D03*
X182880000Y-116840000D03*
D16*
X180340000Y-102870000D03*
D17*
X180340000Y-105410000D03*
X180340000Y-107950000D03*
X180340000Y-110490000D03*
X180340000Y-113030000D03*
X180340000Y-115570000D03*
D16*
X180340000Y-118110000D03*
D17*
X180340000Y-120650000D03*
X180340000Y-123190000D03*
X180340000Y-125730000D03*
X180340000Y-128270000D03*
X180340000Y-130810000D03*
X180340000Y-133350000D03*
X180340000Y-135890000D03*
D16*
X182880000Y-119380000D03*
D17*
X182880000Y-121920000D03*
X182880000Y-124460000D03*
X182880000Y-127000000D03*
X182880000Y-129540000D03*
X182880000Y-132080000D03*
X182880000Y-134620000D03*
X182880000Y-137160000D03*
D16*
X229870000Y-97790000D03*
D18*
X229870000Y-105410000D03*
X214630000Y-105410000D03*
X214630000Y-97790000D03*
D16*
X229870000Y-110490000D03*
D18*
X229870000Y-118110000D03*
X214630000Y-118110000D03*
X214630000Y-110490000D03*
D16*
X229870000Y-123190000D03*
D18*
X229870000Y-130810000D03*
X214630000Y-130810000D03*
X214630000Y-123190000D03*
X234950000Y-105410000D03*
D17*
X234950000Y-97910000D03*
D18*
X234950000Y-118110000D03*
D17*
X234950000Y-110610000D03*
D18*
X234950000Y-130810000D03*
D17*
X234950000Y-123310000D03*
D18*
X138430000Y-87630000D03*
D17*
X145930000Y-87630000D03*
D18*
X187960000Y-135890000D03*
D17*
X195460000Y-135890000D03*
D18*
X198120000Y-99060000D03*
D17*
X205620000Y-99060000D03*
D18*
X198120000Y-135890000D03*
D17*
X205620000Y-135890000D03*
D18*
X234950000Y-135890000D03*
D17*
X227450000Y-135890000D03*
D10*
G36*
X192647588Y-92491208D02*
X192497053Y-94211835D01*
X190776426Y-94061300D01*
X190926961Y-92340673D01*
X192647588Y-92491208D01*
X192647588Y-92491208D01*
G37*
D19*
X191490631Y-95806589D02*
X191490631Y-95806589D01*
X189181672Y-93054878D02*
X189181672Y-93054878D01*
X188960297Y-95585213D02*
X188960297Y-95585213D01*
X186651338Y-92833503D02*
X186651338Y-92833503D01*
X186429962Y-95363837D02*
X186429962Y-95363837D01*
X184121003Y-92612127D02*
X184121003Y-92612127D01*
X183899628Y-95142462D02*
X183899628Y-95142462D01*
X181590669Y-92390752D02*
X181590669Y-92390752D01*
X181369293Y-94921086D02*
X181369293Y-94921086D01*
X179060334Y-92169376D02*
X179060334Y-92169376D01*
X178838959Y-94699711D02*
X178838959Y-94699711D01*
X176530000Y-91948000D02*
X176530000Y-91948000D01*
X176308624Y-94478335D02*
X176308624Y-94478335D01*
X173999665Y-91726625D02*
X173999665Y-91726625D01*
X173778290Y-94256959D02*
X173778290Y-94256959D01*
X171469331Y-91505249D02*
X171469331Y-91505249D01*
X171247955Y-94035584D02*
X171247955Y-94035584D01*
X168938996Y-91283874D02*
X168938996Y-91283874D01*
X168717621Y-93814208D02*
X168717621Y-93814208D01*
D18*
X148590000Y-91440000D03*
D17*
X138430000Y-91440000D03*
D18*
X133858000Y-123190000D03*
D17*
X133858000Y-133350000D03*
D18*
X172720000Y-137160000D03*
D17*
X172720000Y-127000000D03*
D18*
X211836000Y-135890000D03*
D17*
X221996000Y-135890000D03*
D20*
X153670000Y-106680000D03*
D21*
X153670000Y-109220000D03*
X151130000Y-106680000D03*
X151130000Y-109220000D03*
X148590000Y-106680000D03*
X148590000Y-109220000D03*
X146050000Y-106680000D03*
X146050000Y-109220000D03*
X143510000Y-106680000D03*
X143510000Y-109220000D03*
X140970000Y-106680000D03*
X138430000Y-109220000D03*
X140970000Y-109220000D03*
X138430000Y-111760000D03*
X140970000Y-111760000D03*
X138430000Y-114300000D03*
X140970000Y-114300000D03*
X138430000Y-116840000D03*
X140970000Y-116840000D03*
X138430000Y-119380000D03*
X140970000Y-119380000D03*
X138430000Y-121920000D03*
X140970000Y-121920000D03*
X138430000Y-124460000D03*
X140970000Y-124460000D03*
X138430000Y-127000000D03*
X140970000Y-127000000D03*
X138430000Y-129540000D03*
X140970000Y-129540000D03*
X138430000Y-132080000D03*
X140970000Y-132080000D03*
X138430000Y-134620000D03*
X140970000Y-137160000D03*
X140970000Y-134620000D03*
X143510000Y-137160000D03*
X143510000Y-134620000D03*
X146050000Y-137160000D03*
X146050000Y-134620000D03*
X148590000Y-137160000D03*
X148590000Y-134620000D03*
X151130000Y-137160000D03*
X151130000Y-134620000D03*
X153670000Y-137160000D03*
X153670000Y-134620000D03*
X156210000Y-137160000D03*
X156210000Y-134620000D03*
X158750000Y-137160000D03*
X158750000Y-134620000D03*
X161290000Y-137160000D03*
X161290000Y-134620000D03*
X163830000Y-137160000D03*
X163830000Y-134620000D03*
X166370000Y-137160000D03*
X168910000Y-134620000D03*
X166370000Y-134620000D03*
X168910000Y-132080000D03*
X166370000Y-132080000D03*
X168910000Y-129540000D03*
X166370000Y-129540000D03*
X168910000Y-127000000D03*
X166370000Y-127000000D03*
X168910000Y-124460000D03*
X166370000Y-124460000D03*
X168910000Y-121920000D03*
X166370000Y-121920000D03*
X168910000Y-119380000D03*
X166370000Y-119380000D03*
X168910000Y-116840000D03*
X166370000Y-116840000D03*
X168910000Y-114300000D03*
X166370000Y-114300000D03*
X168910000Y-111760000D03*
X166370000Y-111760000D03*
X168910000Y-109220000D03*
X166370000Y-106680000D03*
X166370000Y-109220000D03*
X163830000Y-106680000D03*
X163830000Y-109220000D03*
X161290000Y-106680000D03*
X161290000Y-109220000D03*
X158750000Y-106680000D03*
X158750000Y-109220000D03*
X156210000Y-106680000D03*
X156210000Y-109220000D03*
D16*
X125730000Y-88900000D03*
D17*
X133350000Y-111760000D03*
X125730000Y-91440000D03*
X133350000Y-109220000D03*
X125730000Y-93980000D03*
X133350000Y-106680000D03*
X125730000Y-96520000D03*
X133350000Y-104140000D03*
X125730000Y-99060000D03*
X133350000Y-101600000D03*
X125730000Y-101600000D03*
X133350000Y-99060000D03*
X125730000Y-104140000D03*
X133350000Y-96520000D03*
X125730000Y-106680000D03*
X133350000Y-93980000D03*
X125730000Y-109220000D03*
X133350000Y-91440000D03*
X125730000Y-111760000D03*
X133350000Y-88900000D03*
D22*
X134300000Y-118280000D03*
X133350000Y-118280000D03*
X132400000Y-118280000D03*
X132400000Y-120480000D03*
X134300000Y-120480000D03*
D16*
X138430000Y-101600000D03*
D17*
X161290000Y-93980000D03*
X140970000Y-101600000D03*
X158750000Y-93980000D03*
X143510000Y-101600000D03*
X156210000Y-93980000D03*
X146050000Y-101600000D03*
X153670000Y-93980000D03*
X148590000Y-101600000D03*
X151130000Y-93980000D03*
X151130000Y-101600000D03*
X148590000Y-93980000D03*
X153670000Y-101600000D03*
X146050000Y-93980000D03*
X156210000Y-101600000D03*
X143510000Y-93980000D03*
X158750000Y-101600000D03*
X140970000Y-93980000D03*
X161290000Y-101600000D03*
X138430000Y-93980000D03*
D16*
X227330000Y-139700000D03*
D17*
X234950000Y-147320000D03*
X227330000Y-142240000D03*
X234950000Y-144780000D03*
X227330000Y-144780000D03*
X234950000Y-142240000D03*
X227330000Y-147320000D03*
X234950000Y-139700000D03*
D11*
X193040000Y-102870000D03*
D12*
X194945000Y-104140000D03*
X193040000Y-105410000D03*
X194945000Y-106680000D03*
X193040000Y-107950000D03*
X194945000Y-109220000D03*
X193040000Y-110490000D03*
X194945000Y-111760000D03*
X193040000Y-113030000D03*
X194945000Y-114300000D03*
X193040000Y-115570000D03*
X194945000Y-116840000D03*
X193040000Y-118110000D03*
X194945000Y-119380000D03*
X193040000Y-120650000D03*
X194945000Y-121920000D03*
X193040000Y-123190000D03*
X194945000Y-124460000D03*
X193040000Y-125730000D03*
X194945000Y-127000000D03*
X193040000Y-128270000D03*
X194945000Y-129540000D03*
X193040000Y-130810000D03*
X194945000Y-132080000D03*
D23*
X132334000Y-116332000D03*
X175006000Y-139192000D03*
X150114000Y-132588000D03*
X145691291Y-127434079D03*
X135043890Y-117076233D03*
X136398000Y-102108000D03*
X135636000Y-130810000D03*
X151130000Y-114554000D03*
X177292000Y-139446000D03*
X176530000Y-140208000D03*
X145880110Y-129044072D03*
X146558000Y-130048000D03*
X148590000Y-130048000D03*
X162052000Y-131826000D03*
X161798000Y-129540000D03*
X161798000Y-127000000D03*
X143510000Y-114554000D03*
D24*
X181444801Y-109054801D02*
X181139999Y-108749999D01*
X181139999Y-108749999D02*
X180340000Y-107950000D01*
X181444801Y-111959907D02*
X181444801Y-109054801D01*
X182349695Y-112864801D02*
X181444801Y-111959907D01*
X183079907Y-112864801D02*
X182349695Y-112864801D01*
X183984801Y-113769695D02*
X183079907Y-112864801D01*
X183984801Y-114134801D02*
X183984801Y-113769695D01*
X187960000Y-118110000D02*
X183984801Y-114134801D01*
X198120000Y-118110000D02*
X203200000Y-118110000D01*
X193040000Y-118110000D02*
X198120000Y-118110000D01*
X187960000Y-118110000D02*
X193040000Y-118110000D01*
D25*
X148590000Y-109220000D02*
X149580601Y-108229399D01*
X149580601Y-108229399D02*
X178079399Y-108229399D01*
X178079399Y-108229399D02*
X179540001Y-109690001D01*
X179540001Y-109690001D02*
X180340000Y-110490000D01*
D24*
X200025000Y-132080000D02*
X205105000Y-132080000D01*
X146748499Y-109918499D02*
X146050000Y-109220000D01*
X147154889Y-110324889D02*
X146748499Y-109918499D01*
X175094890Y-110324890D02*
X147154889Y-110324889D01*
X180340000Y-115570000D02*
X175094890Y-110324890D01*
D25*
X147247658Y-105981501D02*
X146748499Y-105981501D01*
X146748499Y-105981501D02*
X146050000Y-106680000D01*
X147946171Y-105282988D02*
X147247658Y-105981501D01*
X162366262Y-105282988D02*
X147946171Y-105282988D01*
X165871351Y-101777899D02*
X162366262Y-105282988D01*
X182880000Y-104140000D02*
X182880000Y-103111400D01*
X182880000Y-103111400D02*
X181546499Y-101777899D01*
X181546499Y-101777899D02*
X165871351Y-101777899D01*
X145059399Y-105689399D02*
X140494511Y-105689399D01*
X140494511Y-105689399D02*
X139979399Y-106204511D01*
X139979399Y-106204511D02*
X139979399Y-108229399D01*
X139979399Y-108229399D02*
X140271501Y-108521501D01*
X140271501Y-108521501D02*
X140970000Y-109220000D01*
X146050000Y-106680000D02*
X145059399Y-105689399D01*
D24*
X200025000Y-114300000D02*
X205105000Y-114300000D01*
X194945000Y-114300000D02*
X200025000Y-114300000D01*
X189865000Y-114300000D02*
X194945000Y-114300000D01*
X189865000Y-132080000D02*
X194945000Y-132080000D01*
D25*
X140970000Y-111760000D02*
X141960601Y-110769399D01*
X141960601Y-110769399D02*
X141960601Y-108229399D01*
X141960601Y-108229399D02*
X142811501Y-107378499D01*
X142811501Y-107378499D02*
X143510000Y-106680000D01*
X179146101Y-104317899D02*
X177774601Y-105689399D01*
X144500601Y-107670601D02*
X144208499Y-107378499D01*
X147040601Y-107155489D02*
X146525489Y-107670601D01*
X146525489Y-107670601D02*
X144500601Y-107670601D01*
X148114511Y-105689399D02*
X147040601Y-106763309D01*
X177774601Y-105689399D02*
X148114511Y-105689399D01*
X147040601Y-106763309D02*
X147040601Y-107155489D01*
X144208499Y-107378499D02*
X143510000Y-106680000D01*
X181610000Y-105410000D02*
X181610000Y-105063690D01*
X181610000Y-105063690D02*
X180864209Y-104317899D01*
X180864209Y-104317899D02*
X179146101Y-104317899D01*
X183735782Y-105410000D02*
X181610000Y-105410000D01*
X183972101Y-110377829D02*
X187454031Y-106895899D01*
X187454031Y-106895899D02*
X188034171Y-106895899D01*
X183972101Y-110667899D02*
X183972101Y-110377829D01*
X182880000Y-111760000D02*
X183972101Y-110667899D01*
X188034171Y-106895899D02*
X189014101Y-105915969D01*
X189014101Y-105915969D02*
X189014101Y-104904031D01*
X189014101Y-104904031D02*
X188465969Y-104355899D01*
X188465969Y-104355899D02*
X184789883Y-104355899D01*
X184789883Y-104355899D02*
X183735782Y-105410000D01*
D24*
X184404000Y-117348000D02*
X184404000Y-115824000D01*
X184404000Y-115824000D02*
X182880000Y-114300000D01*
X186436000Y-119380000D02*
X184404000Y-117348000D01*
X189865000Y-119380000D02*
X186436000Y-119380000D01*
X200025000Y-119380000D02*
X205105000Y-119380000D01*
X194945000Y-119380000D02*
X200025000Y-119380000D01*
X189865000Y-119380000D02*
X194945000Y-119380000D01*
D25*
X169360090Y-110744000D02*
X145034000Y-110744000D01*
X145034000Y-110744000D02*
X143510000Y-109220000D01*
X182880000Y-116840000D02*
X175456090Y-116840000D01*
X175456090Y-116840000D02*
X169360090Y-110744000D01*
D24*
X186690000Y-120650000D02*
X184150000Y-118110000D01*
X184150000Y-118110000D02*
X180340000Y-118110000D01*
X187960000Y-120650000D02*
X186690000Y-120650000D01*
X198120000Y-120650000D02*
X203200000Y-120650000D01*
X193040000Y-120650000D02*
X198120000Y-120650000D01*
X187960000Y-120650000D02*
X193040000Y-120650000D01*
X170434000Y-117348000D02*
X170434000Y-116840000D01*
X168897301Y-115303301D02*
X167373301Y-115303301D01*
X170434000Y-116840000D02*
X168897301Y-115303301D01*
X167373301Y-115303301D02*
X167068499Y-114998499D01*
X167068499Y-114998499D02*
X166370000Y-114300000D01*
X173736000Y-120650000D02*
X170434000Y-117348000D01*
X180340000Y-120650000D02*
X173736000Y-120650000D01*
X187960000Y-123190000D02*
X180340000Y-123190000D01*
X198120000Y-123190000D02*
X203200000Y-123190000D01*
X193040000Y-123190000D02*
X198120000Y-123190000D01*
X187960000Y-123190000D02*
X193040000Y-123190000D01*
X180340000Y-125730000D02*
X177355558Y-125730000D01*
X177355558Y-125730000D02*
X169570446Y-117944888D01*
X169570446Y-117944888D02*
X167474888Y-117944888D01*
X167474888Y-117944888D02*
X167068499Y-117538499D01*
X167068499Y-117538499D02*
X166370000Y-116840000D01*
X185420000Y-127000000D02*
X184150000Y-128270000D01*
X184150000Y-128270000D02*
X180340000Y-128270000D01*
X189865000Y-127000000D02*
X185420000Y-127000000D01*
X200025000Y-127000000D02*
X205105000Y-127000000D01*
X194945000Y-127000000D02*
X200025000Y-127000000D01*
X189865000Y-127000000D02*
X194945000Y-127000000D01*
X180340000Y-130810000D02*
X177634801Y-128104801D01*
X169913301Y-123978415D02*
X168858187Y-122923301D01*
X177634801Y-128104801D02*
X172189695Y-128104801D01*
X168858187Y-122923301D02*
X167373301Y-122923301D01*
X167068499Y-122618499D02*
X166370000Y-121920000D01*
X172189695Y-128104801D02*
X169913301Y-125828407D01*
X169913301Y-125828407D02*
X169913301Y-123978415D01*
X167373301Y-122923301D02*
X167068499Y-122618499D01*
X189865000Y-129540000D02*
X187651134Y-129540000D01*
X183841134Y-133350000D02*
X181471370Y-133350000D01*
X187651134Y-129540000D02*
X183841134Y-133350000D01*
X181471370Y-133350000D02*
X180340000Y-133350000D01*
X200025000Y-129540000D02*
X205105000Y-129540000D01*
X194945000Y-129540000D02*
X200025000Y-129540000D01*
X189865000Y-129540000D02*
X194945000Y-129540000D01*
X180340000Y-135890000D02*
X179540001Y-135090001D01*
X179540001Y-135090001D02*
X177000001Y-135090001D01*
X177000001Y-135090001D02*
X169608499Y-127698499D01*
X169608499Y-127698499D02*
X168910000Y-127000000D01*
X189865000Y-121920000D02*
X185420000Y-121920000D01*
X185420000Y-121920000D02*
X182880000Y-119380000D01*
X200025000Y-121920000D02*
X205105000Y-121920000D01*
X194945000Y-121920000D02*
X200025000Y-121920000D01*
X189865000Y-121920000D02*
X194945000Y-121920000D01*
X169076230Y-116840000D02*
X168910000Y-116840000D01*
X174156230Y-121920000D02*
X169076230Y-116840000D01*
X182880000Y-121920000D02*
X174156230Y-121920000D01*
X186690000Y-124460000D02*
X182880000Y-124460000D01*
X187960000Y-125730000D02*
X186690000Y-124460000D01*
X198120000Y-125730000D02*
X203200000Y-125730000D01*
X193040000Y-125730000D02*
X198120000Y-125730000D01*
X187960000Y-125730000D02*
X193040000Y-125730000D01*
X169913301Y-118898415D02*
X169391585Y-118376699D01*
X169391585Y-118376699D02*
X165888415Y-118376699D01*
X175614120Y-127000000D02*
X169913301Y-121299181D01*
X169913301Y-121299181D02*
X169913301Y-118898415D01*
X165888415Y-118376699D02*
X165366699Y-117854983D01*
X165366699Y-117854983D02*
X165366699Y-112763301D01*
X165366699Y-112763301D02*
X165671501Y-112458499D01*
X165671501Y-112458499D02*
X166370000Y-111760000D01*
X182880000Y-127000000D02*
X175614120Y-127000000D01*
X203200000Y-128270000D02*
X205413866Y-128270000D01*
X205413866Y-128270000D02*
X211836000Y-134692134D01*
X211836000Y-134692134D02*
X211836000Y-134758630D01*
X211836000Y-134758630D02*
X211836000Y-135890000D01*
X185674000Y-128270000D02*
X184404000Y-129540000D01*
X184404000Y-129540000D02*
X182880000Y-129540000D01*
X187960000Y-128270000D02*
X185674000Y-128270000D01*
X198120000Y-128270000D02*
X203200000Y-128270000D01*
X193040000Y-128270000D02*
X198120000Y-128270000D01*
X187960000Y-128270000D02*
X193040000Y-128270000D01*
X182880000Y-132080000D02*
X175542172Y-132080000D01*
X175542172Y-132080000D02*
X168910000Y-125447828D01*
X168910000Y-125447828D02*
X168910000Y-124460000D01*
X187960000Y-130810000D02*
X184150000Y-134620000D01*
X184150000Y-134620000D02*
X182880000Y-134620000D01*
X198120000Y-130810000D02*
X203200000Y-130810000D01*
X193040000Y-130810000D02*
X198120000Y-130810000D01*
X187960000Y-130810000D02*
X193040000Y-130810000D01*
X182880000Y-137160000D02*
X176530000Y-137160000D01*
X176530000Y-137160000D02*
X168910000Y-129540000D01*
D26*
X196088000Y-96266000D02*
X207518000Y-96266000D01*
X207518000Y-96266000D02*
X212344000Y-101092000D01*
X212344000Y-101092000D02*
X225552000Y-101092000D01*
X225552000Y-101092000D02*
X229870000Y-105410000D01*
X193098254Y-93276254D02*
X196088000Y-96266000D01*
X191712007Y-93276254D02*
X193098254Y-93276254D01*
X234950000Y-130810000D02*
X229870000Y-130810000D01*
X234950000Y-118110000D02*
X229870000Y-118110000D01*
X234950000Y-105410000D02*
X229870000Y-105410000D01*
X132400000Y-118280000D02*
X132400000Y-116398000D01*
X132400000Y-116398000D02*
X132334000Y-116332000D01*
X234950000Y-123310000D02*
X233547399Y-121907399D01*
X233547399Y-121907399D02*
X215912601Y-121907399D01*
X215912601Y-121907399D02*
X215429999Y-122390001D01*
X215429999Y-122390001D02*
X214630000Y-123190000D01*
X234950000Y-110610000D02*
X233547399Y-109207399D01*
X233547399Y-109207399D02*
X215912601Y-109207399D01*
X215912601Y-109207399D02*
X215429999Y-109690001D01*
X215429999Y-109690001D02*
X214630000Y-110490000D01*
X234950000Y-97910000D02*
X233306000Y-96266000D01*
X233306000Y-96266000D02*
X216154000Y-96266000D01*
X216154000Y-96266000D02*
X215429999Y-96990001D01*
X215429999Y-96990001D02*
X214630000Y-97790000D01*
D25*
X166370000Y-137160000D02*
X167462101Y-138252101D01*
X167462101Y-138252101D02*
X211090209Y-138252101D01*
X211090209Y-138252101D02*
X214630000Y-134712310D01*
X214630000Y-134712310D02*
X214630000Y-130810000D01*
D26*
X191490631Y-95806589D02*
X193461441Y-97777399D01*
X193461441Y-97777399D02*
X196837399Y-97777399D01*
X196837399Y-97777399D02*
X197320001Y-98260001D01*
X197320001Y-98260001D02*
X198120000Y-99060000D01*
X168910000Y-121920000D02*
X168910000Y-119380000D01*
X163068000Y-123190000D02*
X165519101Y-120738899D01*
X165519101Y-120738899D02*
X167728899Y-120738899D01*
X167728899Y-120738899D02*
X168211501Y-121221501D01*
X168211501Y-121221501D02*
X168910000Y-121920000D01*
X139700000Y-123190000D02*
X163068000Y-123190000D01*
X138430000Y-121920000D02*
X139700000Y-123190000D01*
X134300000Y-120480000D02*
X134300000Y-122748000D01*
X134300000Y-122748000D02*
X133858000Y-123190000D01*
X234950000Y-142240000D02*
X234950000Y-144780000D01*
X234950000Y-139700000D02*
X234950000Y-142240000D01*
X200025000Y-124460000D02*
X205105000Y-124460000D01*
X194945000Y-124460000D02*
X200025000Y-124460000D01*
X189865000Y-124460000D02*
X194945000Y-124460000D01*
X134300000Y-120480000D02*
X134450000Y-120480000D01*
X227330000Y-142240000D02*
X227330000Y-144780000D01*
X228600000Y-142240000D02*
X227330000Y-142240000D01*
X229870000Y-140970000D02*
X228600000Y-142240000D01*
X229870000Y-139700000D02*
X229870000Y-140970000D01*
X234950000Y-135890000D02*
X233680000Y-135890000D01*
X233680000Y-135890000D02*
X229870000Y-139700000D01*
D25*
X138430000Y-91440000D02*
X139522101Y-92532101D01*
X139522101Y-92532101D02*
X165277899Y-92532101D01*
X165277899Y-92532101D02*
X167681827Y-90128173D01*
X176488173Y-90128173D02*
X177038000Y-90678000D01*
X177038000Y-90678000D02*
X186206273Y-90678000D01*
X188025971Y-92497698D02*
X188025971Y-94650887D01*
X167681827Y-90128173D02*
X176488173Y-90128173D01*
X186206273Y-90678000D02*
X188025971Y-92497698D01*
X188025971Y-94650887D02*
X188096698Y-94721614D01*
X188096698Y-94721614D02*
X188960297Y-95585213D01*
D24*
X133350000Y-117496000D02*
X133350000Y-118280000D01*
X135470889Y-94399111D02*
X135470889Y-111332399D01*
X138430000Y-91440000D02*
X135470889Y-94399111D01*
X133350000Y-113453288D02*
X133350000Y-117496000D01*
X135470889Y-111332399D02*
X133350000Y-113453288D01*
D25*
X164592000Y-100330000D02*
X165020246Y-100330000D01*
X165020246Y-100330000D02*
X165477440Y-99872806D01*
X185566363Y-96227436D02*
X186429962Y-95363837D01*
X165477440Y-99872806D02*
X181920993Y-99872806D01*
X181920993Y-99872806D02*
X185566363Y-96227436D01*
D24*
X159766000Y-100330000D02*
X164592000Y-100330000D01*
X158750000Y-101346000D02*
X159766000Y-100330000D01*
X158750000Y-101600000D02*
X158750000Y-101346000D01*
D25*
X164592000Y-99466396D02*
X179575694Y-99466396D01*
X179575694Y-99466396D02*
X183899628Y-95142462D01*
D24*
X153670000Y-101600000D02*
X153670000Y-100838000D01*
X153670000Y-100838000D02*
X155041604Y-99466396D01*
X155041604Y-99466396D02*
X164592000Y-99466396D01*
D25*
X164592000Y-99034594D02*
X177255785Y-99034594D01*
X177255785Y-99034594D02*
X181369293Y-94921086D01*
D24*
X148590000Y-101600000D02*
X148590000Y-101092000D01*
X148590000Y-101092000D02*
X150647406Y-99034594D01*
X150647406Y-99034594D02*
X164592000Y-99034594D01*
D25*
X164541208Y-98552000D02*
X174986670Y-98552000D01*
X174986670Y-98552000D02*
X178838959Y-94699711D01*
D24*
X164541208Y-98552000D02*
X164592000Y-98602792D01*
X143510000Y-101600000D02*
X146304000Y-98806000D01*
X146304000Y-98806000D02*
X146558000Y-98552000D01*
X146558000Y-98552000D02*
X164541208Y-98552000D01*
D25*
X143510000Y-93980000D02*
X146383265Y-96853265D01*
X175445025Y-95341934D02*
X176308624Y-94478335D01*
X146383265Y-96853265D02*
X173933694Y-96853265D01*
X173933694Y-96853265D02*
X175445025Y-95341934D01*
X148590000Y-93980000D02*
X151056856Y-96446856D01*
X151056856Y-96446856D02*
X171588393Y-96446856D01*
X171588393Y-96446856D02*
X173778290Y-94256959D01*
X153670000Y-93980000D02*
X155730446Y-96040446D01*
X155730446Y-96040446D02*
X169243093Y-96040446D01*
X169243093Y-96040446D02*
X170384356Y-94899183D01*
X170384356Y-94899183D02*
X171247955Y-94035584D01*
X158750000Y-93980000D02*
X160404036Y-95634036D01*
X160404036Y-95634036D02*
X166897793Y-95634036D01*
X166897793Y-95634036D02*
X167854022Y-94677807D01*
X167854022Y-94677807D02*
X168717621Y-93814208D01*
X175006000Y-139192000D02*
X174498000Y-139192000D01*
X174498000Y-139192000D02*
X171450000Y-142240000D01*
X150114000Y-132163736D02*
X150114000Y-132588000D01*
X150114000Y-130048000D02*
X150114000Y-132163736D01*
X148092180Y-128026180D02*
X150114000Y-130048000D01*
X144836571Y-128026180D02*
X148092180Y-128026180D01*
X131318000Y-123894090D02*
X137032988Y-129609078D01*
X131318000Y-121666000D02*
X131318000Y-123894090D01*
X131097375Y-121445375D02*
X131318000Y-121666000D01*
X131097375Y-112047375D02*
X131097375Y-121445375D01*
X125730000Y-106680000D02*
X131097375Y-112047375D01*
X141773352Y-131089398D02*
X144836571Y-128026180D01*
X137626647Y-131089398D02*
X141773352Y-131089398D01*
X137032988Y-130495739D02*
X137626647Y-131089398D01*
X137032988Y-129609078D02*
X137032988Y-130495739D01*
X163324991Y-143292101D02*
X165323351Y-143292101D01*
X200471488Y-143698512D02*
X201170001Y-142999999D01*
X162777899Y-140359148D02*
X162777899Y-142745009D01*
X162777899Y-142745009D02*
X163324991Y-143292101D01*
X161966340Y-139547589D02*
X162777899Y-140359148D01*
X201170001Y-142999999D02*
X201930000Y-142240000D01*
X152529761Y-139547589D02*
X161966340Y-139547589D01*
X151130000Y-138147828D02*
X152529761Y-139547589D01*
X165729761Y-143698512D02*
X200471488Y-143698512D01*
X165323351Y-143292101D02*
X165729761Y-143698512D01*
X151130000Y-137160000D02*
X151130000Y-138147828D01*
X146050000Y-135607828D02*
X147599399Y-137157227D01*
X146050000Y-134620000D02*
X146050000Y-135607828D01*
X162371488Y-142913349D02*
X163156651Y-143698512D01*
X162371488Y-141764379D02*
X162371488Y-142913349D01*
X147599399Y-137157227D02*
X147599399Y-137635489D01*
X202982101Y-145251899D02*
X202982101Y-143727899D01*
X149917910Y-139954000D02*
X160782000Y-139954000D01*
X147599399Y-137635489D02*
X149917910Y-139954000D01*
X160782000Y-139954000D02*
X162306000Y-141478000D01*
X162306000Y-141478000D02*
X162306000Y-141698890D01*
X162306000Y-141698890D02*
X162371488Y-141764379D01*
X165317899Y-145285009D02*
X165864991Y-145832101D01*
X165317899Y-144710789D02*
X165317899Y-145285009D01*
X164305622Y-143698512D02*
X165317899Y-144710789D01*
X163156651Y-143698512D02*
X164305622Y-143698512D01*
X202401899Y-145832101D02*
X202982101Y-145251899D01*
X165864991Y-145832101D02*
X202401899Y-145832101D01*
X202982101Y-143727899D02*
X203710001Y-142999999D01*
X203710001Y-142999999D02*
X204470000Y-142240000D01*
D24*
X160225199Y-147831105D02*
X160225199Y-146255199D01*
X160225199Y-146255199D02*
X159509999Y-145539999D01*
X159509999Y-145539999D02*
X158750000Y-144780000D01*
X227330000Y-147320000D02*
X225234480Y-149415520D01*
X161809614Y-149415520D02*
X160225199Y-147831105D01*
X225234480Y-149415520D02*
X161809614Y-149415520D01*
X135043890Y-117331110D02*
X135043890Y-117076233D01*
X134300000Y-118075000D02*
X135043890Y-117331110D01*
X134300000Y-118280000D02*
X134300000Y-118075000D01*
D25*
X135890000Y-102616000D02*
X136398000Y-102108000D01*
X135890000Y-126746000D02*
X135890000Y-102616000D01*
X137439399Y-128295399D02*
X135890000Y-126746000D01*
X137794988Y-130682988D02*
X137439399Y-130327399D01*
X137439399Y-130327399D02*
X137439399Y-128295399D01*
X141605011Y-130682988D02*
X137794988Y-130682988D01*
X145484090Y-126803910D02*
X141605011Y-130682988D01*
X145484090Y-126492000D02*
X145484090Y-126803910D01*
X147320000Y-126492000D02*
X145484090Y-126492000D01*
X151130000Y-130302000D02*
X147320000Y-126492000D01*
X151130000Y-134620000D02*
X151130000Y-130302000D01*
X135636000Y-130810000D02*
X135636000Y-131326841D01*
X147858209Y-128439899D02*
X149288499Y-129870189D01*
X135636000Y-131326841D02*
X137786171Y-133477012D01*
X149288499Y-133921501D02*
X148590000Y-134620000D01*
X137786171Y-133477012D02*
X141613829Y-133477012D01*
X142367012Y-131584678D02*
X145511791Y-128439899D01*
X141613829Y-133477012D02*
X142367012Y-132723829D01*
X142367012Y-132723829D02*
X142367012Y-131584678D01*
X145511791Y-128439899D02*
X147858209Y-128439899D01*
X149288499Y-129870189D02*
X149288499Y-133921501D01*
X199895009Y-143292101D02*
X165898101Y-143292101D01*
X201930000Y-144780000D02*
X201930000Y-143797110D01*
X164882101Y-141734991D02*
X162339110Y-139192000D01*
X164882101Y-142276101D02*
X164882101Y-141734991D01*
X200442101Y-142170789D02*
X200442101Y-142745009D01*
X201930000Y-143797110D02*
X202982101Y-142745009D01*
X202982101Y-142745009D02*
X202982101Y-141734991D01*
X152679399Y-137635489D02*
X152679399Y-137243309D01*
X202982101Y-141734991D02*
X202217110Y-140970000D01*
X202217110Y-140970000D02*
X201642890Y-140970000D01*
X201642890Y-140970000D02*
X200442101Y-142170789D01*
X162185501Y-139192000D02*
X162134680Y-139141179D01*
X165898101Y-143292101D02*
X164882101Y-142276101D01*
X200442101Y-142745009D02*
X199895009Y-143292101D01*
X162339110Y-139192000D02*
X162185501Y-139192000D01*
X154185089Y-139141179D02*
X152679399Y-137635489D01*
X162134680Y-139141179D02*
X154185089Y-139141179D01*
X152679399Y-137243309D02*
X151580090Y-136144000D01*
X150114000Y-136144000D02*
X148590000Y-134620000D01*
X151580090Y-136144000D02*
X150114000Y-136144000D01*
X135636000Y-137160000D02*
X133858000Y-135382000D01*
X133858000Y-135382000D02*
X133858000Y-133350000D01*
X135890000Y-137160000D02*
X135636000Y-137160000D01*
X161795009Y-146267899D02*
X160999899Y-146267899D01*
X160999899Y-146267899D02*
X159802101Y-145070101D01*
X159802101Y-145070101D02*
X159802101Y-144274991D01*
X159802101Y-144274991D02*
X159225622Y-143698512D01*
X162342101Y-146814991D02*
X161795009Y-146267899D01*
X162342101Y-148184851D02*
X162342101Y-146814991D01*
X162935760Y-148778511D02*
X162342101Y-148184851D01*
X202982101Y-146401400D02*
X202982101Y-147825009D01*
X204470000Y-144913501D02*
X202982101Y-146401400D01*
X157262101Y-142883962D02*
X157262101Y-141734991D01*
X204470000Y-144780000D02*
X204470000Y-144913501D01*
X159225622Y-143698512D02*
X158076651Y-143698512D01*
X158076651Y-143698512D02*
X157262101Y-142883962D01*
X157262101Y-141734991D02*
X156700345Y-141173235D01*
X156700345Y-141173235D02*
X149412893Y-141173235D01*
X141668499Y-137858499D02*
X140970000Y-137160000D01*
X142798822Y-138988822D02*
X141668499Y-137858499D01*
X147228481Y-138988823D02*
X142798822Y-138988822D01*
X149412893Y-141173235D02*
X147228481Y-138988823D01*
X202982101Y-147825009D02*
X202028598Y-148778512D01*
X202028598Y-148778512D02*
X162935760Y-148778511D01*
D24*
X135890000Y-137160000D02*
X140970000Y-137160000D01*
D25*
X212090000Y-144780000D02*
X210602101Y-143292101D01*
X210602101Y-143292101D02*
X210602101Y-141734991D01*
X208313110Y-139446000D02*
X177292000Y-139446000D01*
X210602101Y-141734991D02*
X208313110Y-139446000D01*
X203964991Y-143727899D02*
X207735899Y-143727899D01*
X207735899Y-143727899D02*
X208497899Y-144489899D01*
X208497899Y-144489899D02*
X208497899Y-147825009D01*
X208497899Y-147825009D02*
X209044991Y-148372101D01*
X209044991Y-148372101D02*
X212595009Y-148372101D01*
X212595009Y-148372101D02*
X213142101Y-147825009D01*
X213142101Y-147825009D02*
X213142101Y-146267899D01*
X213142101Y-146267899D02*
X213870001Y-145539999D01*
X213870001Y-145539999D02*
X214630000Y-144780000D01*
X160784991Y-143292101D02*
X162021350Y-143292101D01*
X159189519Y-141122409D02*
X160020000Y-141952890D01*
X158327659Y-141122409D02*
X159189519Y-141122409D01*
X160020000Y-142527110D02*
X160784991Y-143292101D01*
X203417899Y-144274991D02*
X203964991Y-143727899D01*
X160020000Y-141952890D02*
X160020000Y-142527110D01*
X147247658Y-137858499D02*
X149749572Y-140360413D01*
X149749572Y-140360413D02*
X157565663Y-140360413D01*
X162021350Y-143292101D02*
X162777899Y-144048650D01*
X146748499Y-137858499D02*
X147247658Y-137858499D01*
X146050000Y-137160000D02*
X146748499Y-137858499D01*
X162777899Y-145505899D02*
X163510512Y-146238512D01*
X162777899Y-144048650D02*
X162777899Y-145505899D01*
X157565663Y-140360413D02*
X158327659Y-141122409D01*
X163510512Y-146238512D02*
X202570239Y-146238512D01*
X202570239Y-146238512D02*
X203417899Y-145390852D01*
X203417899Y-145390852D02*
X203417899Y-144274991D01*
X147396820Y-138582412D02*
X146643661Y-138582411D01*
X149581232Y-140766824D02*
X147396820Y-138582412D01*
X156868685Y-140766824D02*
X149581232Y-140766824D01*
X157697899Y-141596038D02*
X156868685Y-140766824D01*
X157697899Y-142745009D02*
X157697899Y-141596038D01*
X144208499Y-137858499D02*
X143510000Y-137160000D01*
X162371488Y-144371129D02*
X161698871Y-143698512D01*
X162371488Y-145674239D02*
X162371488Y-144371129D01*
X162748512Y-146051263D02*
X162371488Y-145674239D01*
X162748512Y-148016511D02*
X162748512Y-146051263D01*
X163104101Y-148372101D02*
X162748512Y-148016511D01*
X201930000Y-147320000D02*
X200877899Y-148372101D01*
X200877899Y-148372101D02*
X163104101Y-148372101D01*
X158244991Y-143292101D02*
X157697899Y-142745009D01*
X144500601Y-138150601D02*
X144208499Y-137858499D01*
X146211851Y-138150601D02*
X144500601Y-138150601D01*
X146643661Y-138582411D02*
X146211851Y-138150601D01*
X161698871Y-143698512D02*
X160616651Y-143698512D01*
X160616651Y-143698512D02*
X160210241Y-143292101D01*
X160210241Y-143292101D02*
X158244991Y-143292101D01*
X212090000Y-147320000D02*
X210602101Y-145832101D01*
X210602101Y-145832101D02*
X210602101Y-144274991D01*
X210602101Y-144274991D02*
X209619211Y-143292101D01*
X209619211Y-143292101D02*
X206069193Y-143292101D01*
X206069193Y-143292101D02*
X205522101Y-142745009D01*
X205522101Y-142745009D02*
X205522101Y-141734991D01*
X205522101Y-141734991D02*
X203995110Y-140208000D01*
X203995110Y-140208000D02*
X176530000Y-140208000D01*
D24*
X172720000Y-137160000D02*
X168910000Y-137160000D01*
X168910000Y-137160000D02*
X166370000Y-134620000D01*
X168910000Y-132080000D02*
X166370000Y-134620000D01*
X156210000Y-101600000D02*
X156210000Y-101346000D01*
X198120000Y-110490000D02*
X203200000Y-110490000D01*
X193040000Y-110490000D02*
X198120000Y-110490000D01*
X187960000Y-110490000D02*
X193040000Y-110490000D01*
D25*
X137786171Y-113157012D02*
X137032988Y-112403829D01*
X137032988Y-112403829D02*
X137032988Y-106860760D01*
X137032988Y-106860760D02*
X139956981Y-103936767D01*
X139956981Y-103936767D02*
X148526230Y-103936767D01*
X148526230Y-103936767D02*
X149770742Y-102692255D01*
X202122370Y-105410000D02*
X203200000Y-105410000D01*
X193203070Y-100838000D02*
X196720969Y-104355899D01*
X183080252Y-100838000D02*
X193203070Y-100838000D01*
X182800919Y-100558666D02*
X183080252Y-100838000D01*
X165366330Y-100558666D02*
X182800919Y-100558666D01*
X139982172Y-114300000D02*
X138839184Y-113157012D01*
X140970000Y-114300000D02*
X139982172Y-114300000D01*
X163232741Y-102692255D02*
X165366330Y-100558666D01*
X149770742Y-102692255D02*
X163232741Y-102692255D01*
X138839184Y-113157012D02*
X137786171Y-113157012D01*
X199680070Y-105410000D02*
X202122370Y-105410000D01*
X198625969Y-104355899D02*
X199680070Y-105410000D01*
X196720969Y-104355899D02*
X198625969Y-104355899D01*
X140970000Y-116840000D02*
X141960601Y-115849399D01*
X140326171Y-113157012D02*
X139919760Y-112750601D01*
X141284261Y-113157012D02*
X140326171Y-113157012D01*
X141960601Y-113833352D02*
X141284261Y-113157012D01*
X141960601Y-115849399D02*
X141960601Y-113833352D01*
X137439399Y-112235489D02*
X137439399Y-107029100D01*
X137954511Y-112750601D02*
X137439399Y-112235489D01*
X139919760Y-112750601D02*
X137954511Y-112750601D01*
X182632579Y-100965077D02*
X183013501Y-101346000D01*
X165534670Y-100965077D02*
X182632579Y-100965077D01*
X162054978Y-104444769D02*
X165534670Y-100965077D01*
X147634888Y-104444769D02*
X162054978Y-104444769D01*
X147482479Y-104597178D02*
X147634888Y-104444769D01*
X139871321Y-104597178D02*
X147482479Y-104597178D01*
X137439399Y-107029100D02*
X139871321Y-104597178D01*
X183013501Y-101346000D02*
X189466218Y-101346000D01*
X189466218Y-101346000D02*
X192044319Y-103924101D01*
X192044319Y-103924101D02*
X193169031Y-103924101D01*
X193169031Y-103924101D02*
X194654930Y-105410000D01*
X194654930Y-105410000D02*
X198120000Y-105410000D01*
X139293591Y-105749659D02*
X139293591Y-108617501D01*
X139293591Y-108617501D02*
X139446000Y-108769910D01*
X141668499Y-118681501D02*
X140970000Y-119380000D01*
X192193469Y-104648001D02*
X189323367Y-101777899D01*
X142367012Y-117982988D02*
X141668499Y-118681501D01*
X139446000Y-111702090D02*
X140494511Y-112750601D01*
X139760261Y-105282988D02*
X139293591Y-105749659D01*
X147803228Y-104851180D02*
X147371420Y-105282988D01*
X162223319Y-104851180D02*
X147803228Y-104851180D01*
X165703011Y-101371488D02*
X162223319Y-104851180D01*
X182464239Y-101371488D02*
X165703011Y-101371488D01*
X182870649Y-101777899D02*
X182464239Y-101371488D01*
X142367012Y-113656171D02*
X142367012Y-117982988D01*
X141461441Y-112750601D02*
X142367012Y-113656171D01*
X140494511Y-112750601D02*
X141461441Y-112750601D01*
X189323367Y-101777899D02*
X182870649Y-101777899D01*
X192278001Y-104648001D02*
X192193469Y-104648001D01*
X193040000Y-105410000D02*
X192278001Y-104648001D01*
X139446000Y-108769910D02*
X139446000Y-111702090D01*
X147371420Y-105282988D02*
X139760261Y-105282988D01*
X141960601Y-118964149D02*
X141960601Y-119855489D01*
X141960601Y-119855489D02*
X140886691Y-120929399D01*
X137954511Y-120929399D02*
X137439399Y-121444511D01*
X137731501Y-123761501D02*
X138430000Y-124460000D01*
X140886691Y-120929399D02*
X137954511Y-120929399D01*
X137439399Y-121444511D02*
X137439399Y-123469399D01*
X137439399Y-123469399D02*
X137731501Y-123761501D01*
X142773423Y-113487831D02*
X142773423Y-118151327D01*
X185597899Y-107772101D02*
X182134209Y-107772101D01*
X182134209Y-107772101D02*
X180864209Y-106502101D01*
X142367012Y-108896898D02*
X142367012Y-113081420D01*
X142367012Y-113081420D02*
X142773423Y-113487831D01*
X176336101Y-107797589D02*
X147539162Y-107797589D01*
X147539162Y-107797589D02*
X147259739Y-108077012D01*
X143186898Y-108077012D02*
X142367012Y-108896898D01*
X177631589Y-106502101D02*
X176336101Y-107797589D01*
X187960000Y-105410000D02*
X185597899Y-107772101D01*
X142773423Y-118151327D02*
X141960601Y-118964149D01*
X180864209Y-106502101D02*
X177631589Y-106502101D01*
X147259739Y-108077012D02*
X143186898Y-108077012D01*
D24*
X200025000Y-111760000D02*
X205105000Y-111760000D01*
X194945000Y-111760000D02*
X200025000Y-111760000D01*
X189865000Y-111760000D02*
X194945000Y-111760000D01*
X198120000Y-113030000D02*
X203200000Y-113030000D01*
X193040000Y-113030000D02*
X198120000Y-113030000D01*
X187960000Y-113030000D02*
X193040000Y-113030000D01*
D25*
X138430000Y-128552172D02*
X138430000Y-129540000D01*
X136563110Y-126685282D02*
X138430000Y-128552172D01*
X136563110Y-106006890D02*
X136563110Y-126685282D01*
X140970000Y-101600000D02*
X136563110Y-106006890D01*
D24*
X200025000Y-106680000D02*
X205105000Y-106680000D01*
X194945000Y-106680000D02*
X200025000Y-106680000D01*
X189865000Y-106680000D02*
X194945000Y-106680000D01*
X198120000Y-107950000D02*
X203200000Y-107950000D01*
X193040000Y-107950000D02*
X198120000Y-107950000D01*
X187960000Y-107950000D02*
X190173866Y-107950000D01*
X190173866Y-107950000D02*
X193040000Y-107950000D01*
D25*
X142773423Y-132150759D02*
X145580111Y-129344071D01*
X145580111Y-129344071D02*
X145880110Y-129044072D01*
X141957828Y-134620000D02*
X142773423Y-133804405D01*
X142773423Y-133804405D02*
X142773423Y-132150759D01*
X140970000Y-134620000D02*
X141957828Y-134620000D01*
X146558000Y-130048000D02*
X143510000Y-133096000D01*
X143510000Y-133096000D02*
X143510000Y-134620000D01*
X148590000Y-130048000D02*
X147599399Y-131038601D01*
X147599399Y-136169399D02*
X147891501Y-136461501D01*
X147599399Y-131038601D02*
X147599399Y-136169399D01*
X147891501Y-136461501D02*
X148590000Y-137160000D01*
X162052000Y-131826000D02*
X166116000Y-131826000D01*
X166116000Y-131826000D02*
X166370000Y-132080000D01*
X161798000Y-129540000D02*
X166370000Y-129540000D01*
X161798000Y-127000000D02*
X166370000Y-127000000D01*
X126822101Y-107010101D02*
X126822101Y-92532101D01*
X132400000Y-120275000D02*
X131572000Y-119447000D01*
X131572000Y-119447000D02*
X131572000Y-111760000D01*
X131572000Y-111760000D02*
X126822101Y-107010101D01*
X126822101Y-92532101D02*
X125730000Y-91440000D01*
X132400000Y-120480000D02*
X132400000Y-120275000D01*
M02*
