G04 #@! TF.FileFunction,Soldermask,Top*
%FSLAX46Y46*%
G04 Gerber Fmt 4.6, Leading zero omitted, Abs format (unit mm)*
G04 Created by KiCad (PCBNEW 4.0.6) date Wednesday, 31 May 2017 22:47:01*
%MOMM*%
%LPD*%
G01*
G04 APERTURE LIST*
%ADD10C,0.100000*%
%ADD11R,1.924000X1.924000*%
%ADD12C,1.924000*%
%ADD13C,4.210000*%
%ADD14C,1.920000*%
%ADD15R,1.920000X1.920000*%
%ADD16R,2.000000X2.000000*%
%ADD17O,2.000000X2.000000*%
%ADD18C,2.000000*%
%ADD19C,2.127200*%
%ADD20R,1.797000X1.797000*%
%ADD21C,1.797000*%
%ADD22R,1.050000X1.460000*%
G04 APERTURE END LIST*
D10*
D11*
X187960000Y-102870000D03*
D12*
X189865000Y-104140000D03*
X187960000Y-105410000D03*
X189865000Y-106680000D03*
X187960000Y-107950000D03*
X189865000Y-109220000D03*
X187960000Y-110490000D03*
X189865000Y-111760000D03*
X187960000Y-113030000D03*
X189865000Y-114300000D03*
X187960000Y-115570000D03*
X189865000Y-116840000D03*
X187960000Y-118110000D03*
X189865000Y-119380000D03*
X187960000Y-120650000D03*
X189865000Y-121920000D03*
X187960000Y-123190000D03*
X189865000Y-124460000D03*
X187960000Y-125730000D03*
X189865000Y-127000000D03*
X187960000Y-128270000D03*
X189865000Y-129540000D03*
X187960000Y-130810000D03*
X189865000Y-132080000D03*
D11*
X198120000Y-102870000D03*
D12*
X200025000Y-104140000D03*
X198120000Y-105410000D03*
X200025000Y-106680000D03*
X198120000Y-107950000D03*
X200025000Y-109220000D03*
X198120000Y-110490000D03*
X200025000Y-111760000D03*
X198120000Y-113030000D03*
X200025000Y-114300000D03*
X198120000Y-115570000D03*
X200025000Y-116840000D03*
X198120000Y-118110000D03*
X200025000Y-119380000D03*
X198120000Y-120650000D03*
X200025000Y-121920000D03*
X198120000Y-123190000D03*
X200025000Y-124460000D03*
X198120000Y-125730000D03*
X200025000Y-127000000D03*
X198120000Y-128270000D03*
X200025000Y-129540000D03*
X198120000Y-130810000D03*
X200025000Y-132080000D03*
D11*
X203200000Y-102870000D03*
D12*
X205105000Y-104140000D03*
X203200000Y-105410000D03*
X205105000Y-106680000D03*
X203200000Y-107950000D03*
X205105000Y-109220000D03*
X203200000Y-110490000D03*
X205105000Y-111760000D03*
X203200000Y-113030000D03*
X205105000Y-114300000D03*
X203200000Y-115570000D03*
X205105000Y-116840000D03*
X203200000Y-118110000D03*
X205105000Y-119380000D03*
X203200000Y-120650000D03*
X205105000Y-121920000D03*
X203200000Y-123190000D03*
X205105000Y-124460000D03*
X203200000Y-125730000D03*
X205105000Y-127000000D03*
X203200000Y-128270000D03*
X205105000Y-129540000D03*
X203200000Y-130810000D03*
X205105000Y-132080000D03*
D13*
X133350000Y-144780000D03*
X222250000Y-144780000D03*
D14*
X143510000Y-142240000D03*
X146050000Y-142240000D03*
X148590000Y-142240000D03*
X151130000Y-142240000D03*
X153670000Y-142240000D03*
X156210000Y-142240000D03*
X158750000Y-142240000D03*
X161290000Y-142240000D03*
X163830000Y-142240000D03*
X166370000Y-142240000D03*
X168910000Y-142240000D03*
X171450000Y-142240000D03*
X173990000Y-142240000D03*
X176530000Y-142240000D03*
X179070000Y-142240000D03*
X181610000Y-142240000D03*
X184150000Y-142240000D03*
X186690000Y-142240000D03*
X189230000Y-142240000D03*
X191770000Y-142240000D03*
X194310000Y-142240000D03*
X196850000Y-142240000D03*
X199390000Y-142240000D03*
X201930000Y-142240000D03*
X204470000Y-142240000D03*
X207010000Y-142240000D03*
X209550000Y-142240000D03*
X212090000Y-142240000D03*
X214630000Y-142240000D03*
X217170000Y-142240000D03*
X140970000Y-142240000D03*
D15*
X138430000Y-142240000D03*
D14*
X138430000Y-144780000D03*
X140970000Y-144780000D03*
X143510000Y-144780000D03*
X146050000Y-144780000D03*
X148590000Y-144780000D03*
X151130000Y-144780000D03*
X153670000Y-144780000D03*
X156210000Y-144780000D03*
X158750000Y-144780000D03*
X161290000Y-144780000D03*
X163830000Y-144780000D03*
X166370000Y-144780000D03*
X168910000Y-144780000D03*
X171450000Y-144780000D03*
X173990000Y-144780000D03*
X176530000Y-144780000D03*
X179070000Y-144780000D03*
X181610000Y-144780000D03*
X184150000Y-144780000D03*
X186690000Y-144780000D03*
X189230000Y-144780000D03*
X191770000Y-144780000D03*
X194310000Y-144780000D03*
X196850000Y-144780000D03*
X199390000Y-144780000D03*
X201930000Y-144780000D03*
X204470000Y-144780000D03*
X207010000Y-144780000D03*
X209550000Y-144780000D03*
X212090000Y-144780000D03*
X214630000Y-144780000D03*
X217170000Y-144780000D03*
X138430000Y-147320000D03*
X140970000Y-147320000D03*
X143510000Y-147320000D03*
X146050000Y-147320000D03*
X148590000Y-147320000D03*
X151130000Y-147320000D03*
X153670000Y-147320000D03*
X156210000Y-147320000D03*
X158750000Y-147320000D03*
X161290000Y-147320000D03*
X163830000Y-147320000D03*
X166370000Y-147320000D03*
X168910000Y-147320000D03*
X171450000Y-147320000D03*
X173990000Y-147320000D03*
X176530000Y-147320000D03*
X179070000Y-147320000D03*
X181610000Y-147320000D03*
X184150000Y-147320000D03*
X186690000Y-147320000D03*
X189230000Y-147320000D03*
X191770000Y-147320000D03*
X194310000Y-147320000D03*
X196850000Y-147320000D03*
X199390000Y-147320000D03*
X201930000Y-147320000D03*
X204470000Y-147320000D03*
X207010000Y-147320000D03*
X209550000Y-147320000D03*
X212090000Y-147320000D03*
X214630000Y-147320000D03*
X217170000Y-147320000D03*
D16*
X182880000Y-104140000D03*
D17*
X182880000Y-106680000D03*
X182880000Y-109220000D03*
X182880000Y-111760000D03*
X182880000Y-114300000D03*
X182880000Y-116840000D03*
D16*
X180340000Y-102870000D03*
D17*
X180340000Y-105410000D03*
X180340000Y-107950000D03*
X180340000Y-110490000D03*
X180340000Y-113030000D03*
X180340000Y-115570000D03*
D16*
X180340000Y-118110000D03*
D17*
X180340000Y-120650000D03*
X180340000Y-123190000D03*
X180340000Y-125730000D03*
X180340000Y-128270000D03*
X180340000Y-130810000D03*
X180340000Y-133350000D03*
X180340000Y-135890000D03*
D16*
X182880000Y-119380000D03*
D17*
X182880000Y-121920000D03*
X182880000Y-124460000D03*
X182880000Y-127000000D03*
X182880000Y-129540000D03*
X182880000Y-132080000D03*
X182880000Y-134620000D03*
X182880000Y-137160000D03*
D16*
X229870000Y-97790000D03*
D18*
X229870000Y-105410000D03*
X214630000Y-105410000D03*
X214630000Y-97790000D03*
D16*
X229870000Y-110490000D03*
D18*
X229870000Y-118110000D03*
X214630000Y-118110000D03*
X214630000Y-110490000D03*
D16*
X229870000Y-123190000D03*
D18*
X229870000Y-130810000D03*
X214630000Y-130810000D03*
X214630000Y-123190000D03*
X234950000Y-105410000D03*
D17*
X234950000Y-97910000D03*
D18*
X234950000Y-118110000D03*
D17*
X234950000Y-110610000D03*
D18*
X234950000Y-130810000D03*
D17*
X234950000Y-123310000D03*
D18*
X138430000Y-87630000D03*
D17*
X145930000Y-87630000D03*
D18*
X187960000Y-135890000D03*
D17*
X195460000Y-135890000D03*
D18*
X198120000Y-99060000D03*
D17*
X205620000Y-99060000D03*
D18*
X198120000Y-135890000D03*
D17*
X205620000Y-135890000D03*
D18*
X234950000Y-135890000D03*
D17*
X227450000Y-135890000D03*
D10*
G36*
X192864259Y-92309400D02*
X192678861Y-94428506D01*
X190559755Y-94243108D01*
X190745153Y-92124002D01*
X192864259Y-92309400D01*
X192864259Y-92309400D01*
G37*
D19*
X191490631Y-95806589D02*
X191490631Y-95806589D01*
X189181672Y-93054878D02*
X189181672Y-93054878D01*
X188960297Y-95585213D02*
X188960297Y-95585213D01*
X186651338Y-92833503D02*
X186651338Y-92833503D01*
X186429962Y-95363837D02*
X186429962Y-95363837D01*
X184121003Y-92612127D02*
X184121003Y-92612127D01*
X183899628Y-95142462D02*
X183899628Y-95142462D01*
X181590669Y-92390752D02*
X181590669Y-92390752D01*
X181369293Y-94921086D02*
X181369293Y-94921086D01*
X179060334Y-92169376D02*
X179060334Y-92169376D01*
X178838959Y-94699711D02*
X178838959Y-94699711D01*
X176530000Y-91948000D02*
X176530000Y-91948000D01*
X176308624Y-94478335D02*
X176308624Y-94478335D01*
X173999665Y-91726625D02*
X173999665Y-91726625D01*
X173778290Y-94256959D02*
X173778290Y-94256959D01*
X171469331Y-91505249D02*
X171469331Y-91505249D01*
X171247955Y-94035584D02*
X171247955Y-94035584D01*
X168938996Y-91283874D02*
X168938996Y-91283874D01*
X168717621Y-93814208D02*
X168717621Y-93814208D01*
D18*
X148590000Y-91440000D03*
D17*
X138430000Y-91440000D03*
D18*
X133858000Y-123190000D03*
D17*
X133858000Y-133350000D03*
D18*
X172720000Y-137160000D03*
D17*
X172720000Y-127000000D03*
D18*
X211836000Y-135890000D03*
D17*
X221996000Y-135890000D03*
D20*
X153670000Y-106680000D03*
D21*
X153670000Y-109220000D03*
X151130000Y-106680000D03*
X151130000Y-109220000D03*
X148590000Y-106680000D03*
X148590000Y-109220000D03*
X146050000Y-106680000D03*
X146050000Y-109220000D03*
X143510000Y-106680000D03*
X143510000Y-109220000D03*
X140970000Y-106680000D03*
X138430000Y-109220000D03*
X140970000Y-109220000D03*
X138430000Y-111760000D03*
X140970000Y-111760000D03*
X138430000Y-114300000D03*
X140970000Y-114300000D03*
X138430000Y-116840000D03*
X140970000Y-116840000D03*
X138430000Y-119380000D03*
X140970000Y-119380000D03*
X138430000Y-121920000D03*
X140970000Y-121920000D03*
X138430000Y-124460000D03*
X140970000Y-124460000D03*
X138430000Y-127000000D03*
X140970000Y-127000000D03*
X138430000Y-129540000D03*
X140970000Y-129540000D03*
X138430000Y-132080000D03*
X140970000Y-132080000D03*
X138430000Y-134620000D03*
X140970000Y-137160000D03*
X140970000Y-134620000D03*
X143510000Y-137160000D03*
X143510000Y-134620000D03*
X146050000Y-137160000D03*
X146050000Y-134620000D03*
X148590000Y-137160000D03*
X148590000Y-134620000D03*
X151130000Y-137160000D03*
X151130000Y-134620000D03*
X153670000Y-137160000D03*
X153670000Y-134620000D03*
X156210000Y-137160000D03*
X156210000Y-134620000D03*
X158750000Y-137160000D03*
X158750000Y-134620000D03*
X161290000Y-137160000D03*
X161290000Y-134620000D03*
X163830000Y-137160000D03*
X163830000Y-134620000D03*
X166370000Y-137160000D03*
X168910000Y-134620000D03*
X166370000Y-134620000D03*
X168910000Y-132080000D03*
X166370000Y-132080000D03*
X168910000Y-129540000D03*
X166370000Y-129540000D03*
X168910000Y-127000000D03*
X166370000Y-127000000D03*
X168910000Y-124460000D03*
X166370000Y-124460000D03*
X168910000Y-121920000D03*
X166370000Y-121920000D03*
X168910000Y-119380000D03*
X166370000Y-119380000D03*
X168910000Y-116840000D03*
X166370000Y-116840000D03*
X168910000Y-114300000D03*
X166370000Y-114300000D03*
X168910000Y-111760000D03*
X166370000Y-111760000D03*
X168910000Y-109220000D03*
X166370000Y-106680000D03*
X166370000Y-109220000D03*
X163830000Y-106680000D03*
X163830000Y-109220000D03*
X161290000Y-106680000D03*
X161290000Y-109220000D03*
X158750000Y-106680000D03*
X158750000Y-109220000D03*
X156210000Y-106680000D03*
X156210000Y-109220000D03*
D16*
X125730000Y-88900000D03*
D17*
X133350000Y-111760000D03*
X125730000Y-91440000D03*
X133350000Y-109220000D03*
X125730000Y-93980000D03*
X133350000Y-106680000D03*
X125730000Y-96520000D03*
X133350000Y-104140000D03*
X125730000Y-99060000D03*
X133350000Y-101600000D03*
X125730000Y-101600000D03*
X133350000Y-99060000D03*
X125730000Y-104140000D03*
X133350000Y-96520000D03*
X125730000Y-106680000D03*
X133350000Y-93980000D03*
X125730000Y-109220000D03*
X133350000Y-91440000D03*
X125730000Y-111760000D03*
X133350000Y-88900000D03*
D22*
X134300000Y-118280000D03*
X133350000Y-118280000D03*
X132400000Y-118280000D03*
X132400000Y-120480000D03*
X134300000Y-120480000D03*
D16*
X138430000Y-101600000D03*
D17*
X161290000Y-93980000D03*
X140970000Y-101600000D03*
X158750000Y-93980000D03*
X143510000Y-101600000D03*
X156210000Y-93980000D03*
X146050000Y-101600000D03*
X153670000Y-93980000D03*
X148590000Y-101600000D03*
X151130000Y-93980000D03*
X151130000Y-101600000D03*
X148590000Y-93980000D03*
X153670000Y-101600000D03*
X146050000Y-93980000D03*
X156210000Y-101600000D03*
X143510000Y-93980000D03*
X158750000Y-101600000D03*
X140970000Y-93980000D03*
X161290000Y-101600000D03*
X138430000Y-93980000D03*
D16*
X227330000Y-139700000D03*
D17*
X234950000Y-147320000D03*
X227330000Y-142240000D03*
X234950000Y-144780000D03*
X227330000Y-144780000D03*
X234950000Y-142240000D03*
X227330000Y-147320000D03*
X234950000Y-139700000D03*
D11*
X193040000Y-102870000D03*
D12*
X194945000Y-104140000D03*
X193040000Y-105410000D03*
X194945000Y-106680000D03*
X193040000Y-107950000D03*
X194945000Y-109220000D03*
X193040000Y-110490000D03*
X194945000Y-111760000D03*
X193040000Y-113030000D03*
X194945000Y-114300000D03*
X193040000Y-115570000D03*
X194945000Y-116840000D03*
X193040000Y-118110000D03*
X194945000Y-119380000D03*
X193040000Y-120650000D03*
X194945000Y-121920000D03*
X193040000Y-123190000D03*
X194945000Y-124460000D03*
X193040000Y-125730000D03*
X194945000Y-127000000D03*
X193040000Y-128270000D03*
X194945000Y-129540000D03*
X193040000Y-130810000D03*
X194945000Y-132080000D03*
M02*
