G04 #@! TF.FileFunction,Copper,L4,Bot,Signal*
%FSLAX46Y46*%
G04 Gerber Fmt 4.6, Leading zero omitted, Abs format (unit mm)*
G04 Created by KiCad (PCBNEW 4.0.6) date Wednesday, 31 May 2017 22:47:01*
%MOMM*%
%LPD*%
G01*
G04 APERTURE LIST*
%ADD10C,0.100000*%
%ADD11R,1.524000X1.524000*%
%ADD12C,1.524000*%
%ADD13C,3.810000*%
%ADD14C,1.520000*%
%ADD15R,1.520000X1.520000*%
%ADD16R,1.600000X1.600000*%
%ADD17O,1.600000X1.600000*%
%ADD18C,1.600000*%
%ADD19C,1.727200*%
%ADD20R,1.397000X1.397000*%
%ADD21C,1.397000*%
%ADD22C,0.600000*%
%ADD23C,0.254000*%
%ADD24C,0.228600*%
%ADD25C,0.609600*%
G04 APERTURE END LIST*
D10*
D11*
X187960000Y-102870000D03*
D12*
X189865000Y-104140000D03*
X187960000Y-105410000D03*
X189865000Y-106680000D03*
X187960000Y-107950000D03*
X189865000Y-109220000D03*
X187960000Y-110490000D03*
X189865000Y-111760000D03*
X187960000Y-113030000D03*
X189865000Y-114300000D03*
X187960000Y-115570000D03*
X189865000Y-116840000D03*
X187960000Y-118110000D03*
X189865000Y-119380000D03*
X187960000Y-120650000D03*
X189865000Y-121920000D03*
X187960000Y-123190000D03*
X189865000Y-124460000D03*
X187960000Y-125730000D03*
X189865000Y-127000000D03*
X187960000Y-128270000D03*
X189865000Y-129540000D03*
X187960000Y-130810000D03*
X189865000Y-132080000D03*
D11*
X198120000Y-102870000D03*
D12*
X200025000Y-104140000D03*
X198120000Y-105410000D03*
X200025000Y-106680000D03*
X198120000Y-107950000D03*
X200025000Y-109220000D03*
X198120000Y-110490000D03*
X200025000Y-111760000D03*
X198120000Y-113030000D03*
X200025000Y-114300000D03*
X198120000Y-115570000D03*
X200025000Y-116840000D03*
X198120000Y-118110000D03*
X200025000Y-119380000D03*
X198120000Y-120650000D03*
X200025000Y-121920000D03*
X198120000Y-123190000D03*
X200025000Y-124460000D03*
X198120000Y-125730000D03*
X200025000Y-127000000D03*
X198120000Y-128270000D03*
X200025000Y-129540000D03*
X198120000Y-130810000D03*
X200025000Y-132080000D03*
D11*
X203200000Y-102870000D03*
D12*
X205105000Y-104140000D03*
X203200000Y-105410000D03*
X205105000Y-106680000D03*
X203200000Y-107950000D03*
X205105000Y-109220000D03*
X203200000Y-110490000D03*
X205105000Y-111760000D03*
X203200000Y-113030000D03*
X205105000Y-114300000D03*
X203200000Y-115570000D03*
X205105000Y-116840000D03*
X203200000Y-118110000D03*
X205105000Y-119380000D03*
X203200000Y-120650000D03*
X205105000Y-121920000D03*
X203200000Y-123190000D03*
X205105000Y-124460000D03*
X203200000Y-125730000D03*
X205105000Y-127000000D03*
X203200000Y-128270000D03*
X205105000Y-129540000D03*
X203200000Y-130810000D03*
X205105000Y-132080000D03*
D13*
X133350000Y-144780000D03*
X222250000Y-144780000D03*
D14*
X143510000Y-142240000D03*
X146050000Y-142240000D03*
X148590000Y-142240000D03*
X151130000Y-142240000D03*
X153670000Y-142240000D03*
X156210000Y-142240000D03*
X158750000Y-142240000D03*
X161290000Y-142240000D03*
X163830000Y-142240000D03*
X166370000Y-142240000D03*
X168910000Y-142240000D03*
X171450000Y-142240000D03*
X173990000Y-142240000D03*
X176530000Y-142240000D03*
X179070000Y-142240000D03*
X181610000Y-142240000D03*
X184150000Y-142240000D03*
X186690000Y-142240000D03*
X189230000Y-142240000D03*
X191770000Y-142240000D03*
X194310000Y-142240000D03*
X196850000Y-142240000D03*
X199390000Y-142240000D03*
X201930000Y-142240000D03*
X204470000Y-142240000D03*
X207010000Y-142240000D03*
X209550000Y-142240000D03*
X212090000Y-142240000D03*
X214630000Y-142240000D03*
X217170000Y-142240000D03*
X140970000Y-142240000D03*
D15*
X138430000Y-142240000D03*
D14*
X138430000Y-144780000D03*
X140970000Y-144780000D03*
X143510000Y-144780000D03*
X146050000Y-144780000D03*
X148590000Y-144780000D03*
X151130000Y-144780000D03*
X153670000Y-144780000D03*
X156210000Y-144780000D03*
X158750000Y-144780000D03*
X161290000Y-144780000D03*
X163830000Y-144780000D03*
X166370000Y-144780000D03*
X168910000Y-144780000D03*
X171450000Y-144780000D03*
X173990000Y-144780000D03*
X176530000Y-144780000D03*
X179070000Y-144780000D03*
X181610000Y-144780000D03*
X184150000Y-144780000D03*
X186690000Y-144780000D03*
X189230000Y-144780000D03*
X191770000Y-144780000D03*
X194310000Y-144780000D03*
X196850000Y-144780000D03*
X199390000Y-144780000D03*
X201930000Y-144780000D03*
X204470000Y-144780000D03*
X207010000Y-144780000D03*
X209550000Y-144780000D03*
X212090000Y-144780000D03*
X214630000Y-144780000D03*
X217170000Y-144780000D03*
X138430000Y-147320000D03*
X140970000Y-147320000D03*
X143510000Y-147320000D03*
X146050000Y-147320000D03*
X148590000Y-147320000D03*
X151130000Y-147320000D03*
X153670000Y-147320000D03*
X156210000Y-147320000D03*
X158750000Y-147320000D03*
X161290000Y-147320000D03*
X163830000Y-147320000D03*
X166370000Y-147320000D03*
X168910000Y-147320000D03*
X171450000Y-147320000D03*
X173990000Y-147320000D03*
X176530000Y-147320000D03*
X179070000Y-147320000D03*
X181610000Y-147320000D03*
X184150000Y-147320000D03*
X186690000Y-147320000D03*
X189230000Y-147320000D03*
X191770000Y-147320000D03*
X194310000Y-147320000D03*
X196850000Y-147320000D03*
X199390000Y-147320000D03*
X201930000Y-147320000D03*
X204470000Y-147320000D03*
X207010000Y-147320000D03*
X209550000Y-147320000D03*
X212090000Y-147320000D03*
X214630000Y-147320000D03*
X217170000Y-147320000D03*
D16*
X182880000Y-104140000D03*
D17*
X182880000Y-106680000D03*
X182880000Y-109220000D03*
X182880000Y-111760000D03*
X182880000Y-114300000D03*
X182880000Y-116840000D03*
D16*
X180340000Y-102870000D03*
D17*
X180340000Y-105410000D03*
X180340000Y-107950000D03*
X180340000Y-110490000D03*
X180340000Y-113030000D03*
X180340000Y-115570000D03*
D16*
X180340000Y-118110000D03*
D17*
X180340000Y-120650000D03*
X180340000Y-123190000D03*
X180340000Y-125730000D03*
X180340000Y-128270000D03*
X180340000Y-130810000D03*
X180340000Y-133350000D03*
X180340000Y-135890000D03*
D16*
X182880000Y-119380000D03*
D17*
X182880000Y-121920000D03*
X182880000Y-124460000D03*
X182880000Y-127000000D03*
X182880000Y-129540000D03*
X182880000Y-132080000D03*
X182880000Y-134620000D03*
X182880000Y-137160000D03*
D16*
X229870000Y-97790000D03*
D18*
X229870000Y-105410000D03*
X214630000Y-105410000D03*
X214630000Y-97790000D03*
D16*
X229870000Y-110490000D03*
D18*
X229870000Y-118110000D03*
X214630000Y-118110000D03*
X214630000Y-110490000D03*
D16*
X229870000Y-123190000D03*
D18*
X229870000Y-130810000D03*
X214630000Y-130810000D03*
X214630000Y-123190000D03*
X234950000Y-105410000D03*
D17*
X234950000Y-97910000D03*
D18*
X234950000Y-118110000D03*
D17*
X234950000Y-110610000D03*
D18*
X234950000Y-130810000D03*
D17*
X234950000Y-123310000D03*
D18*
X138430000Y-87630000D03*
D17*
X145930000Y-87630000D03*
D18*
X187960000Y-135890000D03*
D17*
X195460000Y-135890000D03*
D18*
X198120000Y-99060000D03*
D17*
X205620000Y-99060000D03*
D18*
X198120000Y-135890000D03*
D17*
X205620000Y-135890000D03*
D18*
X234950000Y-135890000D03*
D17*
X227450000Y-135890000D03*
D10*
G36*
X192647588Y-92491208D02*
X192497053Y-94211835D01*
X190776426Y-94061300D01*
X190926961Y-92340673D01*
X192647588Y-92491208D01*
X192647588Y-92491208D01*
G37*
D19*
X191490631Y-95806589D02*
X191490631Y-95806589D01*
X189181672Y-93054878D02*
X189181672Y-93054878D01*
X188960297Y-95585213D02*
X188960297Y-95585213D01*
X186651338Y-92833503D02*
X186651338Y-92833503D01*
X186429962Y-95363837D02*
X186429962Y-95363837D01*
X184121003Y-92612127D02*
X184121003Y-92612127D01*
X183899628Y-95142462D02*
X183899628Y-95142462D01*
X181590669Y-92390752D02*
X181590669Y-92390752D01*
X181369293Y-94921086D02*
X181369293Y-94921086D01*
X179060334Y-92169376D02*
X179060334Y-92169376D01*
X178838959Y-94699711D02*
X178838959Y-94699711D01*
X176530000Y-91948000D02*
X176530000Y-91948000D01*
X176308624Y-94478335D02*
X176308624Y-94478335D01*
X173999665Y-91726625D02*
X173999665Y-91726625D01*
X173778290Y-94256959D02*
X173778290Y-94256959D01*
X171469331Y-91505249D02*
X171469331Y-91505249D01*
X171247955Y-94035584D02*
X171247955Y-94035584D01*
X168938996Y-91283874D02*
X168938996Y-91283874D01*
X168717621Y-93814208D02*
X168717621Y-93814208D01*
D18*
X148590000Y-91440000D03*
D17*
X138430000Y-91440000D03*
D18*
X133858000Y-123190000D03*
D17*
X133858000Y-133350000D03*
D18*
X172720000Y-137160000D03*
D17*
X172720000Y-127000000D03*
D18*
X211836000Y-135890000D03*
D17*
X221996000Y-135890000D03*
D20*
X153670000Y-106680000D03*
D21*
X153670000Y-109220000D03*
X151130000Y-106680000D03*
X151130000Y-109220000D03*
X148590000Y-106680000D03*
X148590000Y-109220000D03*
X146050000Y-106680000D03*
X146050000Y-109220000D03*
X143510000Y-106680000D03*
X143510000Y-109220000D03*
X140970000Y-106680000D03*
X138430000Y-109220000D03*
X140970000Y-109220000D03*
X138430000Y-111760000D03*
X140970000Y-111760000D03*
X138430000Y-114300000D03*
X140970000Y-114300000D03*
X138430000Y-116840000D03*
X140970000Y-116840000D03*
X138430000Y-119380000D03*
X140970000Y-119380000D03*
X138430000Y-121920000D03*
X140970000Y-121920000D03*
X138430000Y-124460000D03*
X140970000Y-124460000D03*
X138430000Y-127000000D03*
X140970000Y-127000000D03*
X138430000Y-129540000D03*
X140970000Y-129540000D03*
X138430000Y-132080000D03*
X140970000Y-132080000D03*
X138430000Y-134620000D03*
X140970000Y-137160000D03*
X140970000Y-134620000D03*
X143510000Y-137160000D03*
X143510000Y-134620000D03*
X146050000Y-137160000D03*
X146050000Y-134620000D03*
X148590000Y-137160000D03*
X148590000Y-134620000D03*
X151130000Y-137160000D03*
X151130000Y-134620000D03*
X153670000Y-137160000D03*
X153670000Y-134620000D03*
X156210000Y-137160000D03*
X156210000Y-134620000D03*
X158750000Y-137160000D03*
X158750000Y-134620000D03*
X161290000Y-137160000D03*
X161290000Y-134620000D03*
X163830000Y-137160000D03*
X163830000Y-134620000D03*
X166370000Y-137160000D03*
X168910000Y-134620000D03*
X166370000Y-134620000D03*
X168910000Y-132080000D03*
X166370000Y-132080000D03*
X168910000Y-129540000D03*
X166370000Y-129540000D03*
X168910000Y-127000000D03*
X166370000Y-127000000D03*
X168910000Y-124460000D03*
X166370000Y-124460000D03*
X168910000Y-121920000D03*
X166370000Y-121920000D03*
X168910000Y-119380000D03*
X166370000Y-119380000D03*
X168910000Y-116840000D03*
X166370000Y-116840000D03*
X168910000Y-114300000D03*
X166370000Y-114300000D03*
X168910000Y-111760000D03*
X166370000Y-111760000D03*
X168910000Y-109220000D03*
X166370000Y-106680000D03*
X166370000Y-109220000D03*
X163830000Y-106680000D03*
X163830000Y-109220000D03*
X161290000Y-106680000D03*
X161290000Y-109220000D03*
X158750000Y-106680000D03*
X158750000Y-109220000D03*
X156210000Y-106680000D03*
X156210000Y-109220000D03*
D16*
X125730000Y-88900000D03*
D17*
X133350000Y-111760000D03*
X125730000Y-91440000D03*
X133350000Y-109220000D03*
X125730000Y-93980000D03*
X133350000Y-106680000D03*
X125730000Y-96520000D03*
X133350000Y-104140000D03*
X125730000Y-99060000D03*
X133350000Y-101600000D03*
X125730000Y-101600000D03*
X133350000Y-99060000D03*
X125730000Y-104140000D03*
X133350000Y-96520000D03*
X125730000Y-106680000D03*
X133350000Y-93980000D03*
X125730000Y-109220000D03*
X133350000Y-91440000D03*
X125730000Y-111760000D03*
X133350000Y-88900000D03*
D16*
X138430000Y-101600000D03*
D17*
X161290000Y-93980000D03*
X140970000Y-101600000D03*
X158750000Y-93980000D03*
X143510000Y-101600000D03*
X156210000Y-93980000D03*
X146050000Y-101600000D03*
X153670000Y-93980000D03*
X148590000Y-101600000D03*
X151130000Y-93980000D03*
X151130000Y-101600000D03*
X148590000Y-93980000D03*
X153670000Y-101600000D03*
X146050000Y-93980000D03*
X156210000Y-101600000D03*
X143510000Y-93980000D03*
X158750000Y-101600000D03*
X140970000Y-93980000D03*
X161290000Y-101600000D03*
X138430000Y-93980000D03*
D16*
X227330000Y-139700000D03*
D17*
X234950000Y-147320000D03*
X227330000Y-142240000D03*
X234950000Y-144780000D03*
X227330000Y-144780000D03*
X234950000Y-142240000D03*
X227330000Y-147320000D03*
X234950000Y-139700000D03*
D11*
X193040000Y-102870000D03*
D12*
X194945000Y-104140000D03*
X193040000Y-105410000D03*
X194945000Y-106680000D03*
X193040000Y-107950000D03*
X194945000Y-109220000D03*
X193040000Y-110490000D03*
X194945000Y-111760000D03*
X193040000Y-113030000D03*
X194945000Y-114300000D03*
X193040000Y-115570000D03*
X194945000Y-116840000D03*
X193040000Y-118110000D03*
X194945000Y-119380000D03*
X193040000Y-120650000D03*
X194945000Y-121920000D03*
X193040000Y-123190000D03*
X194945000Y-124460000D03*
X193040000Y-125730000D03*
X194945000Y-127000000D03*
X193040000Y-128270000D03*
X194945000Y-129540000D03*
X193040000Y-130810000D03*
X194945000Y-132080000D03*
D22*
X132334000Y-116332000D03*
X175006000Y-139192000D03*
X150114000Y-132588000D03*
X145691291Y-127434079D03*
X135043890Y-117076233D03*
X136398000Y-102108000D03*
X135636000Y-130810000D03*
X151130000Y-114554000D03*
X177292000Y-139446000D03*
X176530000Y-140208000D03*
X145880110Y-129044072D03*
X146558000Y-130048000D03*
X148590000Y-130048000D03*
X162052000Y-131826000D03*
X161798000Y-129540000D03*
X161798000Y-127000000D03*
X143510000Y-114554000D03*
D23*
X200025000Y-132080000D02*
X198958199Y-133146801D01*
X186461388Y-116246282D02*
X183245106Y-113030000D01*
X198958199Y-133146801D02*
X188107263Y-133146801D01*
X188107263Y-133146801D02*
X186461388Y-131500926D01*
X186461388Y-131500926D02*
X186461388Y-116246282D01*
X183245106Y-113030000D02*
X181471370Y-113030000D01*
X181471370Y-113030000D02*
X180340000Y-113030000D01*
D24*
X183984801Y-107784801D02*
X183984801Y-108074871D01*
X183984801Y-108074871D02*
X187454031Y-111544101D01*
X187454031Y-111544101D02*
X188034171Y-111544101D01*
X188034171Y-111544101D02*
X189103001Y-112612931D01*
X189103001Y-112612931D02*
X189103001Y-113538001D01*
X189103001Y-113538001D02*
X189865000Y-114300000D01*
D23*
X183984801Y-107784801D02*
X183679999Y-107479999D01*
X183679999Y-107479999D02*
X182880000Y-106680000D01*
X188787370Y-132080000D02*
X189865000Y-132080000D01*
X188584171Y-131876801D02*
X188787370Y-132080000D01*
X186893199Y-131322065D02*
X187447935Y-131876801D01*
X186893199Y-113233199D02*
X186893199Y-131322065D01*
X182880000Y-109220000D02*
X186893199Y-113233199D01*
X187447935Y-131876801D02*
X188584171Y-131876801D01*
D25*
X229870000Y-118110000D02*
X228587399Y-116827399D01*
X228587399Y-116827399D02*
X228587399Y-106692601D01*
X228587399Y-106692601D02*
X229070001Y-106209999D01*
X229070001Y-106209999D02*
X229870000Y-105410000D01*
X229870000Y-130810000D02*
X229870000Y-129678630D01*
X229870000Y-129678630D02*
X228587399Y-128396029D01*
X228587399Y-128396029D02*
X228587399Y-119392601D01*
X228587399Y-119392601D02*
X229070001Y-118909999D01*
X229070001Y-118909999D02*
X229870000Y-118110000D01*
X194945000Y-124460000D02*
X199911212Y-124460000D01*
X199911212Y-124460000D02*
X201269601Y-123101611D01*
X234049370Y-137668000D02*
X211715750Y-137668000D01*
X211715750Y-137668000D02*
X206349601Y-132301851D01*
X206349601Y-132301851D02*
X206349601Y-125704601D01*
X206349601Y-125704601D02*
X205866999Y-125221999D01*
X205866999Y-125221999D02*
X205105000Y-124460000D01*
X234950000Y-139700000D02*
X234950000Y-138568630D01*
X234950000Y-138568630D02*
X234049370Y-137668000D01*
X131826000Y-102616000D02*
X131826000Y-100584000D01*
X131826000Y-100584000D02*
X133350000Y-99060000D01*
X133350000Y-104140000D02*
X131826000Y-102616000D01*
X133350000Y-109220000D02*
X134632601Y-107937399D01*
X134632601Y-107937399D02*
X134632601Y-105422601D01*
X134632601Y-105422601D02*
X134149999Y-104939999D01*
X134149999Y-104939999D02*
X133350000Y-104140000D01*
X133350000Y-109220000D02*
X135128000Y-109220000D01*
X135128000Y-109220000D02*
X138430000Y-109220000D01*
X134112000Y-118872000D02*
X134112000Y-112896250D01*
X134620000Y-121920000D02*
X134620000Y-119380000D01*
X134620000Y-119380000D02*
X134112000Y-118872000D01*
X134112000Y-112896250D02*
X135128000Y-111880250D01*
X135128000Y-111880250D02*
X135128000Y-109220000D01*
X133858000Y-123190000D02*
X134657999Y-122390001D01*
X134657999Y-122390001D02*
X134657999Y-121957999D01*
X134657999Y-121957999D02*
X134620000Y-121920000D01*
X138430000Y-134620000D02*
X139611101Y-133438899D01*
X139611101Y-133438899D02*
X139611101Y-123101101D01*
X139611101Y-123101101D02*
X139128499Y-122618499D01*
X139128499Y-122618499D02*
X138430000Y-121920000D01*
X138430000Y-121920000D02*
X134620000Y-121920000D01*
X138430000Y-87630000D02*
X137147399Y-88912601D01*
X137147399Y-88912601D02*
X137147399Y-92697399D01*
X137147399Y-92697399D02*
X137630001Y-93180001D01*
X137630001Y-93180001D02*
X138430000Y-93980000D01*
X168910000Y-134620000D02*
X172720000Y-130810000D01*
X172720000Y-130810000D02*
X172720000Y-127000000D01*
X168910000Y-121920000D02*
X169897828Y-121920000D01*
X169897828Y-121920000D02*
X172720000Y-124742172D01*
X172720000Y-124742172D02*
X172720000Y-125868630D01*
X172720000Y-125868630D02*
X172720000Y-127000000D01*
X198120000Y-99060000D02*
X201269601Y-102209601D01*
X201269601Y-102209601D02*
X201269601Y-123101611D01*
X204027370Y-124460000D02*
X205105000Y-124460000D01*
X201269601Y-123101611D02*
X202627990Y-124460000D01*
X202627990Y-124460000D02*
X204027370Y-124460000D01*
X223140988Y-148969012D02*
X226530001Y-145579999D01*
X146050000Y-147320000D02*
X147699012Y-148969012D01*
X147699012Y-148969012D02*
X223140988Y-148969012D01*
X226530001Y-145579999D02*
X227330000Y-144780000D01*
X143510000Y-147320000D02*
X146050000Y-147320000D01*
X140970000Y-147320000D02*
X143510000Y-147320000D01*
X143510000Y-144780000D02*
X143510000Y-147320000D01*
X146050000Y-144780000D02*
X146050000Y-147320000D01*
X146050000Y-142240000D02*
X146050000Y-144780000D01*
X143510000Y-142240000D02*
X143510000Y-144780000D01*
X140970000Y-144780000D02*
X140970000Y-147320000D01*
X140970000Y-142240000D02*
X140970000Y-144780000D01*
D24*
X151173679Y-135737589D02*
X148257452Y-135737589D01*
X152654000Y-137217910D02*
X151173679Y-135737589D01*
X139128499Y-120078499D02*
X138430000Y-119380000D01*
X139979399Y-120929399D02*
X139128499Y-120078499D01*
X148257452Y-135737589D02*
X147447012Y-134927149D01*
X141445489Y-120929399D02*
X139979399Y-120929399D01*
X144246577Y-123730487D02*
X141445489Y-120929399D01*
X144246577Y-129441640D02*
X144246577Y-123730487D01*
X147447012Y-132642075D02*
X144246577Y-129441640D01*
X147447012Y-134927149D02*
X147447012Y-132642075D01*
X152654000Y-138684000D02*
X152654000Y-137217910D01*
X156210000Y-142240000D02*
X152654000Y-138684000D01*
X161290000Y-142240000D02*
X161290000Y-138626090D01*
X161290000Y-138626090D02*
X160299399Y-137635489D01*
X160299399Y-137635489D02*
X160299399Y-135610601D01*
X160299399Y-135610601D02*
X160591501Y-135318499D01*
X160591501Y-135318499D02*
X161290000Y-134620000D01*
X163830000Y-142240000D02*
X163830000Y-141165198D01*
X163830000Y-141165198D02*
X164820601Y-140174597D01*
X164820601Y-140174597D02*
X164820601Y-136684511D01*
X164820601Y-136684511D02*
X163746691Y-135610601D01*
X163746691Y-135610601D02*
X163354511Y-135610601D01*
X163354511Y-135610601D02*
X162839399Y-135095489D01*
X162839399Y-135095489D02*
X162839399Y-113309399D01*
X162839399Y-113309399D02*
X159448499Y-109918499D01*
X159448499Y-109918499D02*
X158750000Y-109220000D01*
X167360601Y-136684511D02*
X166286691Y-135610601D01*
X166286691Y-135610601D02*
X165894511Y-135610601D01*
X166370000Y-142240000D02*
X166370000Y-138626090D01*
X167360601Y-137635489D02*
X167360601Y-136684511D01*
X165894511Y-135610601D02*
X165379399Y-135095489D01*
X166370000Y-138626090D02*
X167360601Y-137635489D01*
X165379399Y-135095489D02*
X165379399Y-133130241D01*
X165379399Y-133130241D02*
X164820601Y-132571443D01*
X165288512Y-133039353D02*
X164820601Y-132571443D01*
X164820601Y-132571443D02*
X164820601Y-111676691D01*
X164820601Y-111676691D02*
X162839399Y-109695489D01*
X162839399Y-108432601D02*
X163042601Y-108229399D01*
X162839399Y-109695489D02*
X162839399Y-108432601D01*
X163042601Y-108229399D02*
X165379399Y-108229399D01*
X165671501Y-108521501D02*
X166370000Y-109220000D01*
X165379399Y-108229399D02*
X165671501Y-108521501D01*
X160528000Y-145796000D02*
X160748890Y-145796000D01*
X167422101Y-143727899D02*
X168150001Y-142999999D01*
X168150001Y-142999999D02*
X168910000Y-142240000D01*
X160748890Y-145796000D02*
X160784991Y-145832101D01*
X167422101Y-145285009D02*
X167422101Y-143727899D01*
X160784991Y-145832101D02*
X166875009Y-145832101D01*
X166875009Y-145832101D02*
X167422101Y-145285009D01*
X159802101Y-145070101D02*
X160528000Y-145796000D01*
X158750000Y-137160000D02*
X158750000Y-138147828D01*
X158750000Y-138147828D02*
X159802101Y-139199929D01*
X159802101Y-139199929D02*
X159802101Y-145070101D01*
X174624923Y-138556923D02*
X175006000Y-138938000D01*
X175006000Y-138938000D02*
X175006000Y-139192000D01*
X174624923Y-137541077D02*
X174624923Y-138556923D01*
X160782000Y-104648000D02*
X167894000Y-104648000D01*
X158750000Y-106680000D02*
X160782000Y-104648000D01*
X174624923Y-111378923D02*
X174624923Y-137541077D01*
X167894000Y-104648000D02*
X174624923Y-111378923D01*
X139420601Y-114782601D02*
X140487399Y-115849399D01*
X143781488Y-118562549D02*
X145188417Y-119969478D01*
X145391292Y-127134080D02*
X145691291Y-127434079D01*
X140487399Y-115849399D02*
X141445489Y-115849399D01*
X145188417Y-126931205D02*
X145391292Y-127134080D01*
X145188417Y-119969478D02*
X145188417Y-126931205D01*
X141445489Y-115849399D02*
X143781488Y-118185398D01*
X143781488Y-118185398D02*
X143781488Y-118562549D01*
X133350000Y-101600000D02*
X139420601Y-107670601D01*
X139420601Y-107670601D02*
X139420601Y-114782601D01*
X141668499Y-122618499D02*
X140970000Y-121920000D01*
X147040601Y-132810415D02*
X143840166Y-129609980D01*
X143840166Y-129609980D02*
X143840166Y-124790166D01*
X143840166Y-124790166D02*
X141668499Y-122618499D01*
X155157899Y-142170789D02*
X151137711Y-138150601D01*
X155157899Y-143727899D02*
X155157899Y-142170789D01*
X156210000Y-144780000D02*
X155157899Y-143727899D01*
X149040090Y-136144000D02*
X148073159Y-136144000D01*
X149580601Y-136684511D02*
X149040090Y-136144000D01*
X147040601Y-135111441D02*
X147040601Y-132810415D01*
X148073159Y-136144000D02*
X147040601Y-135111441D01*
X149580601Y-137134601D02*
X149580601Y-136684511D01*
X150596601Y-138150601D02*
X149580601Y-137134601D01*
X151137711Y-138150601D02*
X150596601Y-138150601D01*
X161290000Y-144780000D02*
X160208512Y-143698512D01*
X160208512Y-143698512D02*
X160208512Y-139031589D01*
X160208512Y-139031589D02*
X159892988Y-138716065D01*
X159892988Y-138716065D02*
X159892988Y-135762988D01*
X159892988Y-135762988D02*
X159448499Y-135318499D01*
X159448499Y-135318499D02*
X158750000Y-134620000D01*
X164414191Y-112344191D02*
X162814000Y-110744000D01*
X164414191Y-132739783D02*
X164414191Y-112344191D01*
X164882101Y-133207692D02*
X164414191Y-132739783D01*
X164882101Y-136171261D02*
X164882101Y-133207692D01*
X165227012Y-136516171D02*
X164882101Y-136171261D01*
X165227012Y-143382988D02*
X165227012Y-136516171D01*
X163830000Y-144780000D02*
X165227012Y-143382988D01*
X162814000Y-110744000D02*
X161988499Y-109918499D01*
X162839399Y-110769399D02*
X162814000Y-110744000D01*
X161988499Y-109918499D02*
X161290000Y-109220000D01*
D23*
X139839712Y-117727996D02*
X139839712Y-116764826D01*
X135343889Y-116776234D02*
X135043890Y-117076233D01*
X136283424Y-115836699D02*
X135343889Y-116776234D01*
X138911585Y-115836699D02*
X136283424Y-115836699D01*
X139839712Y-116764826D02*
X138911585Y-115836699D01*
X140221716Y-118110000D02*
X139839712Y-117727996D01*
D24*
X144652988Y-129019300D02*
X146273790Y-130640102D01*
X153083994Y-132116306D02*
X161193198Y-132116306D01*
X151607790Y-130640102D02*
X153083994Y-132116306D01*
X146273790Y-130640102D02*
X151607790Y-130640102D01*
X144652988Y-123562148D02*
X144652988Y-129019300D01*
X140221716Y-118110000D02*
X141166090Y-118110000D01*
X141166090Y-118110000D02*
X141986000Y-118929910D01*
X141986000Y-120895160D02*
X144652988Y-123562148D01*
X141986000Y-118929910D02*
X141986000Y-120895160D01*
D23*
X162420288Y-136004288D02*
X163131501Y-136461501D01*
X163131501Y-136461501D02*
X163830000Y-137160000D01*
X162420288Y-133343396D02*
X162420288Y-136004288D01*
X161193198Y-132116306D02*
X162420288Y-133343396D01*
D24*
X168150001Y-145539999D02*
X168910000Y-144780000D01*
X167451488Y-146238512D02*
X168150001Y-145539999D01*
X158651402Y-146238512D02*
X167451488Y-146238512D01*
X157668512Y-145255622D02*
X158651402Y-146238512D01*
X157668512Y-138618512D02*
X157668512Y-145255622D01*
X156210000Y-137160000D02*
X157668512Y-138618512D01*
X174218512Y-111734512D02*
X167766988Y-105282988D01*
X167766988Y-105282988D02*
X162687012Y-105282988D01*
X162687012Y-105282988D02*
X161988499Y-105981501D01*
X161988499Y-105981501D02*
X161290000Y-106680000D01*
X173812101Y-131241899D02*
X174218512Y-130835488D01*
X174218512Y-130835488D02*
X174218512Y-111734512D01*
X172937899Y-140244101D02*
X173812101Y-139369899D01*
X173812101Y-139369899D02*
X173812101Y-131241899D01*
X171450000Y-144780000D02*
X171450000Y-145762890D01*
X172937899Y-147389211D02*
X172937899Y-140244101D01*
X171450000Y-145762890D02*
X170397899Y-146814991D01*
X170397899Y-146814991D02*
X170397899Y-147825009D01*
X170397899Y-147825009D02*
X170944991Y-148372101D01*
X170944991Y-148372101D02*
X171955009Y-148372101D01*
X171955009Y-148372101D02*
X172937899Y-147389211D01*
X133350000Y-111760000D02*
X133350000Y-122081690D01*
X133350000Y-122081690D02*
X132765899Y-122665791D01*
X132765899Y-122665791D02*
X132765899Y-127939899D01*
X132765899Y-127939899D02*
X135636000Y-130810000D01*
X133058001Y-132550001D02*
X133858000Y-133350000D01*
X131741899Y-131233899D02*
X133058001Y-132550001D01*
X130213091Y-99656909D02*
X130213091Y-102355249D01*
X131741899Y-103884057D02*
X131741899Y-131233899D01*
X130213091Y-102355249D02*
X131741899Y-103884057D01*
X133350000Y-96520000D02*
X130213091Y-99656909D01*
X151130000Y-114554000D02*
X151130000Y-109220000D01*
X137731501Y-117538499D02*
X138430000Y-116840000D01*
X153670000Y-147320000D02*
X152182101Y-145832101D01*
X152182101Y-145832101D02*
X152182101Y-141734991D01*
X152182101Y-141734991D02*
X148597711Y-138150601D01*
X148597711Y-138150601D02*
X148114511Y-138150601D01*
X137954511Y-120370601D02*
X137439399Y-119855489D01*
X138845851Y-120370601D02*
X137954511Y-120370601D01*
X137439399Y-117830601D02*
X137731501Y-117538499D01*
X137439399Y-119855489D02*
X137439399Y-117830601D01*
X139811059Y-122227149D02*
X139811059Y-121335810D01*
X139811059Y-121335810D02*
X138845851Y-120370601D01*
X140494511Y-122910601D02*
X139811059Y-122227149D01*
X140884036Y-122910601D02*
X140494511Y-122910601D01*
X147040601Y-137076691D02*
X147040601Y-135931351D01*
X147040601Y-135931351D02*
X146786601Y-135677351D01*
X146786601Y-135677351D02*
X145641261Y-135677351D01*
X145641261Y-135677351D02*
X144627589Y-134663679D01*
X144627589Y-134663679D02*
X144627589Y-130972154D01*
X144627589Y-130972154D02*
X143433755Y-129778320D01*
X143433755Y-129778320D02*
X143433755Y-125460321D01*
X143433755Y-125460321D02*
X140884036Y-122910601D01*
X148114511Y-138150601D02*
X147040601Y-137076691D01*
X144583904Y-138582410D02*
X145015713Y-138150601D01*
X137474100Y-138582410D02*
X144583904Y-138582410D01*
X131335489Y-132443799D02*
X137474100Y-138582410D01*
X131335488Y-104052397D02*
X131335489Y-132443799D01*
X129806680Y-91948080D02*
X129806680Y-102523589D01*
X126758600Y-88900000D02*
X129806680Y-91948080D01*
X129806680Y-102523589D02*
X131335488Y-104052397D01*
X125730000Y-88900000D02*
X126758600Y-88900000D01*
X137731501Y-127698499D02*
X138430000Y-127000000D01*
X137439399Y-135086648D02*
X137439399Y-127990601D01*
X137439399Y-127990601D02*
X137731501Y-127698499D01*
X144500601Y-137635489D02*
X144500601Y-136684511D01*
X144500601Y-136684511D02*
X143985489Y-136169399D01*
X146057711Y-138150601D02*
X145015713Y-138150601D01*
X145015713Y-138150601D02*
X144500601Y-137635489D01*
X150624991Y-145832101D02*
X149642101Y-144849211D01*
X149642101Y-144849211D02*
X149642101Y-141734991D01*
X149642101Y-141734991D02*
X146057711Y-138150601D01*
X143985489Y-136169399D02*
X138522150Y-136169399D01*
X138522150Y-136169399D02*
X137439399Y-135086648D01*
X153198101Y-148372101D02*
X152182101Y-147356101D01*
X152182101Y-147356101D02*
X152182101Y-146814991D01*
X152182101Y-146814991D02*
X151199211Y-145832101D01*
X151199211Y-145832101D02*
X150624991Y-145832101D01*
X155157899Y-148372101D02*
X153198101Y-148372101D01*
X156210000Y-147320000D02*
X155157899Y-148372101D01*
X161290000Y-147320000D02*
X160237899Y-148372101D01*
X160237899Y-148372101D02*
X158244991Y-148372101D01*
X158244991Y-148372101D02*
X157262101Y-147389211D01*
X157262101Y-147389211D02*
X157262101Y-139678191D01*
X157262101Y-139678191D02*
X155219399Y-137635489D01*
X155219399Y-137635489D02*
X155219399Y-135610601D01*
X155219399Y-135610601D02*
X155511501Y-135318499D01*
X155511501Y-135318499D02*
X156210000Y-134620000D01*
X165227012Y-110617012D02*
X164528499Y-109918499D01*
X165227012Y-129863102D02*
X165227012Y-110617012D01*
X165894511Y-130530601D02*
X165227012Y-129863102D01*
X166286691Y-130530601D02*
X165894511Y-130530601D01*
X167360601Y-131604511D02*
X166286691Y-130530601D01*
X167767012Y-136516171D02*
X167360601Y-136109761D01*
X167360601Y-136109761D02*
X167360601Y-131604511D01*
X169415009Y-145832101D02*
X169962101Y-145285009D01*
X169962101Y-145285009D02*
X169962101Y-141734991D01*
X167857899Y-147389211D02*
X167857899Y-146594101D01*
X167857899Y-146594101D02*
X168619899Y-145832101D01*
X168619899Y-145832101D02*
X169415009Y-145832101D01*
X169962101Y-141734991D02*
X167767012Y-139539902D01*
X167767012Y-139539902D02*
X167767012Y-136516171D01*
X166875009Y-148372101D02*
X167857899Y-147389211D01*
X164882101Y-148372101D02*
X166875009Y-148372101D01*
X163830000Y-147320000D02*
X164882101Y-148372101D01*
X164528499Y-109918499D02*
X163830000Y-109220000D01*
X156908499Y-107378499D02*
X156210000Y-106680000D01*
X157200601Y-107670601D02*
X156908499Y-107378499D01*
X166286691Y-107670601D02*
X157200601Y-107670601D01*
X167512988Y-108896898D02*
X166286691Y-107670601D01*
X167512988Y-131182148D02*
X167512988Y-108896898D01*
X167767012Y-131436171D02*
X167512988Y-131182148D01*
X168173423Y-139217423D02*
X168173423Y-136347831D01*
X170368512Y-141412512D02*
X168173423Y-139217423D01*
X167767012Y-135941420D02*
X167767012Y-131436171D01*
X168173423Y-136347831D02*
X167767012Y-135941420D01*
X170368512Y-145861488D02*
X170368512Y-141412512D01*
X168910000Y-147320000D02*
X170368512Y-145861488D01*
X164528499Y-105981501D02*
X163830000Y-106680000D01*
X164820601Y-105689399D02*
X164528499Y-105981501D01*
X167411399Y-105689399D02*
X164820601Y-105689399D01*
X167919399Y-106197399D02*
X167411399Y-105689399D01*
X167919399Y-117315489D02*
X167919399Y-106197399D01*
X168434511Y-117830601D02*
X167919399Y-117315489D01*
X168826691Y-117830601D02*
X168434511Y-117830601D01*
X173812101Y-122816011D02*
X168826691Y-117830601D01*
X173812101Y-130667149D02*
X173812101Y-122816011D01*
X171627899Y-132851351D02*
X173812101Y-130667149D01*
X171627899Y-138803989D02*
X171627899Y-132851351D01*
X172502101Y-139678191D02*
X171627899Y-138803989D01*
X172502101Y-146267899D02*
X172502101Y-139678191D01*
X171450000Y-147320000D02*
X172502101Y-146267899D01*
X133350000Y-106680000D02*
X132257899Y-107772101D01*
X132257899Y-107772101D02*
X132257899Y-112284209D01*
X132943590Y-121913350D02*
X132359489Y-122497451D01*
X132359489Y-122497451D02*
X132359489Y-128409799D01*
X132359489Y-128409799D02*
X135775690Y-131826000D01*
X135775690Y-131826000D02*
X135775690Y-134006530D01*
X135775690Y-134006530D02*
X139919761Y-138150601D01*
X139919761Y-138150601D02*
X142976601Y-138150601D01*
X142976601Y-138150601D02*
X143002000Y-138176000D01*
X143002000Y-138176000D02*
X143481828Y-138176000D01*
X143481828Y-138176000D02*
X143510000Y-138147828D01*
X143510000Y-138147828D02*
X143510000Y-137160000D01*
X132257899Y-112284209D02*
X132943590Y-112969900D01*
X132943590Y-112969900D02*
X132943590Y-121913350D01*
X146180109Y-128744073D02*
X145880110Y-129044072D01*
X146283392Y-128640790D02*
X146180109Y-128744073D01*
X146283392Y-127149870D02*
X146283392Y-128640790D01*
X145880110Y-126746588D02*
X146283392Y-127149870D01*
X145880110Y-116555800D02*
X145880110Y-126746588D01*
X146050000Y-93980000D02*
X144695899Y-95334101D01*
X144695899Y-95334101D02*
X144695899Y-115371589D01*
X144695899Y-115371589D02*
X145880110Y-116555800D01*
X146050000Y-101600000D02*
X147048512Y-102598512D01*
X147048512Y-102598512D02*
X147048512Y-129557488D01*
X146857999Y-129748001D02*
X146558000Y-130048000D01*
X147048512Y-129557488D02*
X146857999Y-129748001D01*
X151130000Y-93980000D02*
X150037899Y-95072101D01*
X150037899Y-95072101D02*
X150037899Y-128600101D01*
X150037899Y-128600101D02*
X148590000Y-130048000D01*
X152272988Y-109289078D02*
X154812988Y-111829078D01*
X152272988Y-102742988D02*
X152272988Y-109289078D01*
X154812988Y-124586988D02*
X161752001Y-131526001D01*
X154812988Y-111829078D02*
X154812988Y-124586988D01*
X151130000Y-101600000D02*
X152272988Y-102742988D01*
X161752001Y-131526001D02*
X162052000Y-131826000D01*
X161205898Y-128947898D02*
X161498001Y-129240001D01*
X161205898Y-116568649D02*
X161205898Y-128947898D01*
X154787589Y-103639629D02*
X154787589Y-110150340D01*
X155219399Y-103207819D02*
X154787589Y-103639629D01*
X161498001Y-129240001D02*
X161798000Y-129540000D01*
X155219399Y-102225709D02*
X155219399Y-103207819D01*
X155117899Y-102124209D02*
X155219399Y-102225709D01*
X155117899Y-95072101D02*
X155117899Y-102124209D01*
X156210000Y-93980000D02*
X155117899Y-95072101D01*
X154787589Y-110150340D02*
X161205898Y-116568649D01*
X155194000Y-109982000D02*
X161798000Y-116586000D01*
X161798000Y-116586000D02*
X161798000Y-127000000D01*
X155194000Y-106229910D02*
X155194000Y-109982000D01*
X159274209Y-102692101D02*
X158731809Y-102692101D01*
X158731809Y-102692101D02*
X155194000Y-106229910D01*
X161290000Y-93980000D02*
X160197899Y-95072101D01*
X160197899Y-95072101D02*
X160197899Y-101768411D01*
X160197899Y-101768411D02*
X159274209Y-102692101D01*
X139954000Y-112210090D02*
X139954000Y-107629250D01*
X141706601Y-112750601D02*
X140494511Y-112750601D01*
X140494511Y-112750601D02*
X139954000Y-112210090D01*
X143510000Y-114554000D02*
X141706601Y-112750601D01*
X134442101Y-92532101D02*
X134149999Y-92239999D01*
X134149999Y-92239999D02*
X133350000Y-91440000D01*
X134442101Y-102117351D02*
X134442101Y-92532101D01*
X139954000Y-107629250D02*
X134442101Y-102117351D01*
M02*
