G04 #@! TF.FileFunction,Legend,Top*
%FSLAX46Y46*%
G04 Gerber Fmt 4.6, Leading zero omitted, Abs format (unit mm)*
G04 Created by KiCad (PCBNEW 4.0.6) date Wednesday, 31 May 2017 22:47:01*
%MOMM*%
%LPD*%
G01*
G04 APERTURE LIST*
%ADD10C,0.100000*%
%ADD11C,0.300000*%
%ADD12C,0.150000*%
%ADD13C,0.120000*%
G04 APERTURE END LIST*
D10*
D11*
X208342000Y-128698668D02*
X208408667Y-128765334D01*
X208475333Y-128965334D01*
X208475333Y-129098668D01*
X208408667Y-129298668D01*
X208275333Y-129432001D01*
X208142000Y-129498668D01*
X207875333Y-129565334D01*
X207675333Y-129565334D01*
X207408667Y-129498668D01*
X207275333Y-129432001D01*
X207142000Y-129298668D01*
X207075333Y-129098668D01*
X207075333Y-128965334D01*
X207142000Y-128765334D01*
X207208667Y-128698668D01*
X208475333Y-127898668D02*
X208408667Y-128032001D01*
X208342000Y-128098668D01*
X208208667Y-128165334D01*
X207808667Y-128165334D01*
X207675333Y-128098668D01*
X207608667Y-128032001D01*
X207542000Y-127898668D01*
X207542000Y-127698668D01*
X207608667Y-127565334D01*
X207675333Y-127498668D01*
X207808667Y-127432001D01*
X208208667Y-127432001D01*
X208342000Y-127498668D01*
X208408667Y-127565334D01*
X208475333Y-127698668D01*
X208475333Y-127898668D01*
X208475333Y-126832001D02*
X207542000Y-126832001D01*
X207675333Y-126832001D02*
X207608667Y-126765334D01*
X207542000Y-126632001D01*
X207542000Y-126432001D01*
X207608667Y-126298667D01*
X207742000Y-126232001D01*
X208475333Y-126232001D01*
X207742000Y-126232001D02*
X207608667Y-126165334D01*
X207542000Y-126032001D01*
X207542000Y-125832001D01*
X207608667Y-125698667D01*
X207742000Y-125632001D01*
X208475333Y-125632001D01*
X207542000Y-124965334D02*
X208942000Y-124965334D01*
X207608667Y-124965334D02*
X207542000Y-124832000D01*
X207542000Y-124565334D01*
X207608667Y-124432000D01*
X207675333Y-124365334D01*
X207808667Y-124298667D01*
X208208667Y-124298667D01*
X208342000Y-124365334D01*
X208408667Y-124432000D01*
X208475333Y-124565334D01*
X208475333Y-124832000D01*
X208408667Y-124965334D01*
X207542000Y-123098667D02*
X208475333Y-123098667D01*
X207542000Y-123698667D02*
X208275333Y-123698667D01*
X208408667Y-123632000D01*
X208475333Y-123498667D01*
X208475333Y-123298667D01*
X208408667Y-123165333D01*
X208342000Y-123098667D01*
X207542000Y-122632000D02*
X207542000Y-122098666D01*
X207075333Y-122432000D02*
X208275333Y-122432000D01*
X208408667Y-122365333D01*
X208475333Y-122232000D01*
X208475333Y-122098666D01*
X208408667Y-121098666D02*
X208475333Y-121232000D01*
X208475333Y-121498666D01*
X208408667Y-121632000D01*
X208275333Y-121698666D01*
X207742000Y-121698666D01*
X207608667Y-121632000D01*
X207542000Y-121498666D01*
X207542000Y-121232000D01*
X207608667Y-121098666D01*
X207742000Y-121032000D01*
X207875333Y-121032000D01*
X208008667Y-121698666D01*
X208475333Y-120432000D02*
X207542000Y-120432000D01*
X207808667Y-120432000D02*
X207675333Y-120365333D01*
X207608667Y-120298666D01*
X207542000Y-120165333D01*
X207542000Y-120032000D01*
X208342000Y-117698666D02*
X208408667Y-117765332D01*
X208475333Y-117965332D01*
X208475333Y-118098666D01*
X208408667Y-118298666D01*
X208275333Y-118431999D01*
X208142000Y-118498666D01*
X207875333Y-118565332D01*
X207675333Y-118565332D01*
X207408667Y-118498666D01*
X207275333Y-118431999D01*
X207142000Y-118298666D01*
X207075333Y-118098666D01*
X207075333Y-117965332D01*
X207142000Y-117765332D01*
X207208667Y-117698666D01*
X208475333Y-116498666D02*
X207742000Y-116498666D01*
X207608667Y-116565332D01*
X207542000Y-116698666D01*
X207542000Y-116965332D01*
X207608667Y-117098666D01*
X208408667Y-116498666D02*
X208475333Y-116631999D01*
X208475333Y-116965332D01*
X208408667Y-117098666D01*
X208275333Y-117165332D01*
X208142000Y-117165332D01*
X208008667Y-117098666D01*
X207942000Y-116965332D01*
X207942000Y-116631999D01*
X207875333Y-116498666D01*
X208475333Y-115831999D02*
X207542000Y-115831999D01*
X207808667Y-115831999D02*
X207675333Y-115765332D01*
X207608667Y-115698665D01*
X207542000Y-115565332D01*
X207542000Y-115431999D01*
X208408667Y-114431998D02*
X208475333Y-114565332D01*
X208475333Y-114831998D01*
X208408667Y-114965332D01*
X208275333Y-115031998D01*
X207742000Y-115031998D01*
X207608667Y-114965332D01*
X207542000Y-114831998D01*
X207542000Y-114565332D01*
X207608667Y-114431998D01*
X207742000Y-114365332D01*
X207875333Y-114365332D01*
X208008667Y-115031998D01*
X208475333Y-112698665D02*
X207075333Y-112698665D01*
X207542000Y-112031998D02*
X208475333Y-112031998D01*
X207675333Y-112031998D02*
X207608667Y-111965331D01*
X207542000Y-111831998D01*
X207542000Y-111631998D01*
X207608667Y-111498664D01*
X207742000Y-111431998D01*
X208475333Y-111431998D01*
X208408667Y-110165331D02*
X208475333Y-110298664D01*
X208475333Y-110565331D01*
X208408667Y-110698664D01*
X208342000Y-110765331D01*
X208208667Y-110831997D01*
X207808667Y-110831997D01*
X207675333Y-110765331D01*
X207608667Y-110698664D01*
X207542000Y-110565331D01*
X207542000Y-110298664D01*
X207608667Y-110165331D01*
X208342000Y-109565331D02*
X208408667Y-109498664D01*
X208475333Y-109565331D01*
X208408667Y-109631997D01*
X208342000Y-109565331D01*
X208475333Y-109565331D01*
X208475333Y-107098663D02*
X208475333Y-107898663D01*
X208475333Y-107498663D02*
X207075333Y-107498663D01*
X207275333Y-107631997D01*
X207408667Y-107765330D01*
X207475333Y-107898663D01*
X208475333Y-106431997D02*
X208475333Y-106165330D01*
X208408667Y-106031997D01*
X208342000Y-105965330D01*
X208142000Y-105831997D01*
X207875333Y-105765330D01*
X207342000Y-105765330D01*
X207208667Y-105831997D01*
X207142000Y-105898664D01*
X207075333Y-106031997D01*
X207075333Y-106298664D01*
X207142000Y-106431997D01*
X207208667Y-106498664D01*
X207342000Y-106565330D01*
X207675333Y-106565330D01*
X207808667Y-106498664D01*
X207875333Y-106431997D01*
X207942000Y-106298664D01*
X207942000Y-106031997D01*
X207875333Y-105898664D01*
X207808667Y-105831997D01*
X207675333Y-105765330D01*
X208475333Y-105098664D02*
X208475333Y-104831997D01*
X208408667Y-104698664D01*
X208342000Y-104631997D01*
X208142000Y-104498664D01*
X207875333Y-104431997D01*
X207342000Y-104431997D01*
X207208667Y-104498664D01*
X207142000Y-104565331D01*
X207075333Y-104698664D01*
X207075333Y-104965331D01*
X207142000Y-105098664D01*
X207208667Y-105165331D01*
X207342000Y-105231997D01*
X207675333Y-105231997D01*
X207808667Y-105165331D01*
X207875333Y-105098664D01*
X207942000Y-104965331D01*
X207942000Y-104698664D01*
X207875333Y-104565331D01*
X207808667Y-104498664D01*
X207675333Y-104431997D01*
X208475333Y-103098664D02*
X208475333Y-103898664D01*
X208475333Y-103498664D02*
X207075333Y-103498664D01*
X207275333Y-103631998D01*
X207408667Y-103765331D01*
X207475333Y-103898664D01*
X210475333Y-129032000D02*
X210475333Y-128365334D01*
X210875333Y-129165334D02*
X209475333Y-128698667D01*
X210875333Y-128232000D01*
X209942000Y-127765334D02*
X210875333Y-127765334D01*
X210075333Y-127765334D02*
X210008667Y-127698667D01*
X209942000Y-127565334D01*
X209942000Y-127365334D01*
X210008667Y-127232000D01*
X210142000Y-127165334D01*
X210875333Y-127165334D01*
X210875333Y-125898667D02*
X209475333Y-125898667D01*
X210808667Y-125898667D02*
X210875333Y-126032000D01*
X210875333Y-126298667D01*
X210808667Y-126432000D01*
X210742000Y-126498667D01*
X210608667Y-126565333D01*
X210208667Y-126565333D01*
X210075333Y-126498667D01*
X210008667Y-126432000D01*
X209942000Y-126298667D01*
X209942000Y-126032000D01*
X210008667Y-125898667D01*
X210875333Y-125232000D02*
X209942000Y-125232000D01*
X210208667Y-125232000D02*
X210075333Y-125165333D01*
X210008667Y-125098666D01*
X209942000Y-124965333D01*
X209942000Y-124832000D01*
X210808667Y-123831999D02*
X210875333Y-123965333D01*
X210875333Y-124231999D01*
X210808667Y-124365333D01*
X210675333Y-124431999D01*
X210142000Y-124431999D01*
X210008667Y-124365333D01*
X209942000Y-124231999D01*
X209942000Y-123965333D01*
X210008667Y-123831999D01*
X210142000Y-123765333D01*
X210275333Y-123765333D01*
X210408667Y-124431999D01*
X209942000Y-123298666D02*
X210875333Y-123031999D01*
X210208667Y-122765333D01*
X210875333Y-122498666D01*
X209942000Y-122231999D01*
X210875333Y-120631999D02*
X209475333Y-120631999D01*
X210475333Y-120165332D01*
X209475333Y-119698665D01*
X210875333Y-119698665D01*
X210808667Y-118431999D02*
X210875333Y-118565332D01*
X210875333Y-118831999D01*
X210808667Y-118965332D01*
X210742000Y-119031999D01*
X210608667Y-119098665D01*
X210208667Y-119098665D01*
X210075333Y-119031999D01*
X210008667Y-118965332D01*
X209942000Y-118831999D01*
X209942000Y-118565332D01*
X210008667Y-118431999D01*
X210875333Y-117831999D02*
X209475333Y-117831999D01*
X209475333Y-117298665D01*
X209542000Y-117165332D01*
X209608667Y-117098665D01*
X209742000Y-117031999D01*
X209942000Y-117031999D01*
X210075333Y-117098665D01*
X210142000Y-117165332D01*
X210208667Y-117298665D01*
X210208667Y-117831999D01*
X210875333Y-116431999D02*
X209475333Y-116431999D01*
X210875333Y-115831999D02*
X210142000Y-115831999D01*
X210008667Y-115898665D01*
X209942000Y-116031999D01*
X209942000Y-116231999D01*
X210008667Y-116365332D01*
X210075333Y-116431999D01*
X210808667Y-114631998D02*
X210875333Y-114765332D01*
X210875333Y-115031998D01*
X210808667Y-115165332D01*
X210675333Y-115231998D01*
X210142000Y-115231998D01*
X210008667Y-115165332D01*
X209942000Y-115031998D01*
X209942000Y-114765332D01*
X210008667Y-114631998D01*
X210142000Y-114565332D01*
X210275333Y-114565332D01*
X210408667Y-115231998D01*
X210875333Y-113965332D02*
X209942000Y-113965332D01*
X210208667Y-113965332D02*
X210075333Y-113898665D01*
X210008667Y-113831998D01*
X209942000Y-113698665D01*
X209942000Y-113565332D01*
X210808667Y-113165331D02*
X210875333Y-113031998D01*
X210875333Y-112765331D01*
X210808667Y-112631998D01*
X210675333Y-112565331D01*
X210608667Y-112565331D01*
X210475333Y-112631998D01*
X210408667Y-112765331D01*
X210408667Y-112965331D01*
X210342000Y-113098665D01*
X210208667Y-113165331D01*
X210142000Y-113165331D01*
X210008667Y-113098665D01*
X209942000Y-112965331D01*
X209942000Y-112765331D01*
X210008667Y-112631998D01*
X210875333Y-111765332D02*
X210808667Y-111898665D01*
X210742000Y-111965332D01*
X210608667Y-112031998D01*
X210208667Y-112031998D01*
X210075333Y-111965332D01*
X210008667Y-111898665D01*
X209942000Y-111765332D01*
X209942000Y-111565332D01*
X210008667Y-111431998D01*
X210075333Y-111365332D01*
X210208667Y-111298665D01*
X210608667Y-111298665D01*
X210742000Y-111365332D01*
X210808667Y-111431998D01*
X210875333Y-111565332D01*
X210875333Y-111765332D01*
X209942000Y-110698665D02*
X210875333Y-110698665D01*
X210075333Y-110698665D02*
X210008667Y-110631998D01*
X209942000Y-110498665D01*
X209942000Y-110298665D01*
X210008667Y-110165331D01*
X210142000Y-110098665D01*
X210875333Y-110098665D01*
X209608667Y-108431997D02*
X209542000Y-108365331D01*
X209475333Y-108231997D01*
X209475333Y-107898664D01*
X209542000Y-107765331D01*
X209608667Y-107698664D01*
X209742000Y-107631997D01*
X209875333Y-107631997D01*
X210075333Y-107698664D01*
X210875333Y-108498664D01*
X210875333Y-107631997D01*
X209475333Y-106765331D02*
X209475333Y-106631998D01*
X209542000Y-106498664D01*
X209608667Y-106431998D01*
X209742000Y-106365331D01*
X210008667Y-106298664D01*
X210342000Y-106298664D01*
X210608667Y-106365331D01*
X210742000Y-106431998D01*
X210808667Y-106498664D01*
X210875333Y-106631998D01*
X210875333Y-106765331D01*
X210808667Y-106898664D01*
X210742000Y-106965331D01*
X210608667Y-107031998D01*
X210342000Y-107098664D01*
X210008667Y-107098664D01*
X209742000Y-107031998D01*
X209608667Y-106965331D01*
X209542000Y-106898664D01*
X209475333Y-106765331D01*
X210875333Y-104965331D02*
X210875333Y-105765331D01*
X210875333Y-105365331D02*
X209475333Y-105365331D01*
X209675333Y-105498665D01*
X209808667Y-105631998D01*
X209875333Y-105765331D01*
X209475333Y-104498665D02*
X209475333Y-103565332D01*
X210875333Y-104165332D01*
X173148762Y-123545712D02*
X175148762Y-122945712D01*
X173148762Y-122345712D01*
X175148762Y-121745713D02*
X173815429Y-121745713D01*
X173148762Y-121745713D02*
X173244000Y-121831427D01*
X173339238Y-121745713D01*
X173244000Y-121659998D01*
X173148762Y-121745713D01*
X173339238Y-121745713D01*
X175148762Y-120117141D02*
X173148762Y-120117141D01*
X175053524Y-120117141D02*
X175148762Y-120288570D01*
X175148762Y-120631427D01*
X175053524Y-120802855D01*
X174958286Y-120888570D01*
X174767810Y-120974284D01*
X174196381Y-120974284D01*
X174005905Y-120888570D01*
X173910667Y-120802855D01*
X173815429Y-120631427D01*
X173815429Y-120288570D01*
X173910667Y-120117141D01*
X175053524Y-118574284D02*
X175148762Y-118745713D01*
X175148762Y-119088570D01*
X175053524Y-119259999D01*
X174863048Y-119345713D01*
X174101143Y-119345713D01*
X173910667Y-119259999D01*
X173815429Y-119088570D01*
X173815429Y-118745713D01*
X173910667Y-118574284D01*
X174101143Y-118488570D01*
X174291619Y-118488570D01*
X174482095Y-119345713D01*
X175148762Y-117459999D02*
X175053524Y-117631427D01*
X174958286Y-117717142D01*
X174767810Y-117802856D01*
X174196381Y-117802856D01*
X174005905Y-117717142D01*
X173910667Y-117631427D01*
X173815429Y-117459999D01*
X173815429Y-117202856D01*
X173910667Y-117031427D01*
X174005905Y-116945713D01*
X174196381Y-116859999D01*
X174767810Y-116859999D01*
X174958286Y-116945713D01*
X175053524Y-117031427D01*
X175148762Y-117202856D01*
X175148762Y-117459999D01*
X175148762Y-116088571D02*
X173148762Y-116088571D01*
X174577333Y-115488571D01*
X173148762Y-114888571D01*
X175148762Y-114888571D01*
X175148762Y-113259999D02*
X174101143Y-113259999D01*
X173910667Y-113345713D01*
X173815429Y-113517142D01*
X173815429Y-113859999D01*
X173910667Y-114031428D01*
X175053524Y-113259999D02*
X175148762Y-113431428D01*
X175148762Y-113859999D01*
X175053524Y-114031428D01*
X174863048Y-114117142D01*
X174672571Y-114117142D01*
X174482095Y-114031428D01*
X174386857Y-113859999D01*
X174386857Y-113431428D01*
X174291619Y-113259999D01*
X175053524Y-111631428D02*
X175148762Y-111802857D01*
X175148762Y-112145714D01*
X175053524Y-112317142D01*
X174958286Y-112402857D01*
X174767810Y-112488571D01*
X174196381Y-112488571D01*
X174005905Y-112402857D01*
X173910667Y-112317142D01*
X173815429Y-112145714D01*
X173815429Y-111802857D01*
X173910667Y-111631428D01*
X175148762Y-110860000D02*
X173148762Y-110860000D01*
X173148762Y-110174285D01*
X173244000Y-110002857D01*
X173339238Y-109917142D01*
X173529714Y-109831428D01*
X173815429Y-109831428D01*
X174005905Y-109917142D01*
X174101143Y-110002857D01*
X174196381Y-110174285D01*
X174196381Y-110860000D01*
X175148762Y-108288571D02*
X174101143Y-108288571D01*
X173910667Y-108374285D01*
X173815429Y-108545714D01*
X173815429Y-108888571D01*
X173910667Y-109060000D01*
X175053524Y-108288571D02*
X175148762Y-108460000D01*
X175148762Y-108888571D01*
X175053524Y-109060000D01*
X174863048Y-109145714D01*
X174672571Y-109145714D01*
X174482095Y-109060000D01*
X174386857Y-108888571D01*
X174386857Y-108460000D01*
X174291619Y-108288571D01*
X175053524Y-106660000D02*
X175148762Y-106831429D01*
X175148762Y-107174286D01*
X175053524Y-107345714D01*
X174958286Y-107431429D01*
X174767810Y-107517143D01*
X174196381Y-107517143D01*
X174005905Y-107431429D01*
X173910667Y-107345714D01*
X173815429Y-107174286D01*
X173815429Y-106831429D01*
X173910667Y-106660000D01*
X175148762Y-105888572D02*
X173148762Y-105888572D01*
X174101143Y-105888572D02*
X174101143Y-104860000D01*
X175148762Y-104860000D02*
X173148762Y-104860000D01*
X175148762Y-103231429D02*
X174101143Y-103231429D01*
X173910667Y-103317143D01*
X173815429Y-103488572D01*
X173815429Y-103831429D01*
X173910667Y-104002858D01*
X175053524Y-103231429D02*
X175148762Y-103402858D01*
X175148762Y-103831429D01*
X175053524Y-104002858D01*
X174863048Y-104088572D01*
X174672571Y-104088572D01*
X174482095Y-104002858D01*
X174386857Y-103831429D01*
X174386857Y-103402858D01*
X174291619Y-103231429D01*
X175053524Y-101602858D02*
X175148762Y-101774287D01*
X175148762Y-102117144D01*
X175053524Y-102288572D01*
X174958286Y-102374287D01*
X174767810Y-102460001D01*
X174196381Y-102460001D01*
X174005905Y-102374287D01*
X173910667Y-102288572D01*
X173815429Y-102117144D01*
X173815429Y-101774287D01*
X173910667Y-101602858D01*
X175148762Y-100831430D02*
X173148762Y-100831430D01*
X174386857Y-100660001D02*
X175148762Y-100145715D01*
X173815429Y-100145715D02*
X174577333Y-100831430D01*
D12*
X186690000Y-133350000D02*
X191135000Y-133350000D01*
X186690000Y-101600000D02*
X191135000Y-101600000D01*
X191135000Y-101600000D02*
X191135000Y-133350000D01*
X186690000Y-101600000D02*
X186690000Y-133350000D01*
X196850000Y-133350000D02*
X201295000Y-133350000D01*
X196850000Y-101600000D02*
X201295000Y-101600000D01*
X201295000Y-101600000D02*
X201295000Y-133350000D01*
X196850000Y-101600000D02*
X196850000Y-133350000D01*
X201930000Y-133350000D02*
X206375000Y-133350000D01*
X201930000Y-101600000D02*
X206375000Y-101600000D01*
X206375000Y-101600000D02*
X206375000Y-133350000D01*
X201930000Y-101600000D02*
X201930000Y-133350000D01*
D13*
X130810000Y-139700000D02*
X224790000Y-139700000D01*
X224790000Y-139700000D02*
X224790000Y-147320000D01*
X130810000Y-147320000D02*
X130810000Y-139700000D01*
X135890000Y-147320000D02*
X135890000Y-139700000D01*
X219710000Y-147320000D02*
X219710000Y-139700000D01*
X130810000Y-147320000D02*
X130810000Y-149860000D01*
X130810000Y-149860000D02*
X224790000Y-149860000D01*
X224790000Y-149860000D02*
X224790000Y-147320000D01*
X219710000Y-149860000D02*
X219710000Y-147320000D01*
X135890000Y-147320000D02*
X135890000Y-149860000D01*
X184280000Y-102700000D02*
X181480000Y-102700000D01*
X181480000Y-102700000D02*
X181480000Y-118280000D01*
X181480000Y-118280000D02*
X184280000Y-118280000D01*
X184280000Y-118280000D02*
X184280000Y-102700000D01*
X184280000Y-105410000D02*
X181480000Y-105410000D01*
X181740000Y-101430000D02*
X178940000Y-101430000D01*
X178940000Y-101430000D02*
X178940000Y-117010000D01*
X178940000Y-117010000D02*
X181740000Y-117010000D01*
X181740000Y-117010000D02*
X181740000Y-101430000D01*
X181740000Y-104140000D02*
X178940000Y-104140000D01*
X181740000Y-116670000D02*
X178940000Y-116670000D01*
X178940000Y-116670000D02*
X178940000Y-137330000D01*
X178940000Y-137330000D02*
X181740000Y-137330000D01*
X181740000Y-137330000D02*
X181740000Y-116670000D01*
X181740000Y-119380000D02*
X178940000Y-119380000D01*
X184280000Y-117940000D02*
X181480000Y-117940000D01*
X181480000Y-117940000D02*
X181480000Y-138600000D01*
X181480000Y-138600000D02*
X184280000Y-138600000D01*
X184280000Y-138600000D02*
X184280000Y-117940000D01*
X184280000Y-120650000D02*
X181480000Y-120650000D01*
X232700000Y-107300000D02*
X232700000Y-95150000D01*
X212550000Y-108050000D02*
X231950000Y-108050000D01*
X211800000Y-95900000D02*
X211800000Y-107300000D01*
X232700000Y-95150000D02*
X212550000Y-95150000D01*
X212550000Y-95150000D02*
G75*
G03X211800000Y-95900000I0J-750000D01*
G01*
X211800000Y-107300000D02*
G75*
G03X212550000Y-108050000I750000J0D01*
G01*
X231950000Y-108050000D02*
G75*
G03X232700000Y-107300000I0J750000D01*
G01*
X232700000Y-120000000D02*
X232700000Y-107850000D01*
X212550000Y-120750000D02*
X231950000Y-120750000D01*
X211800000Y-108600000D02*
X211800000Y-120000000D01*
X232700000Y-107850000D02*
X212550000Y-107850000D01*
X212550000Y-107850000D02*
G75*
G03X211800000Y-108600000I0J-750000D01*
G01*
X211800000Y-120000000D02*
G75*
G03X212550000Y-120750000I750000J0D01*
G01*
X231950000Y-120750000D02*
G75*
G03X232700000Y-120000000I0J750000D01*
G01*
X232700000Y-132700000D02*
X232700000Y-120550000D01*
X212550000Y-133450000D02*
X231950000Y-133450000D01*
X211800000Y-121300000D02*
X211800000Y-132700000D01*
X232700000Y-120550000D02*
X212550000Y-120550000D01*
X212550000Y-120550000D02*
G75*
G03X211800000Y-121300000I0J-750000D01*
G01*
X211800000Y-132700000D02*
G75*
G03X212550000Y-133450000I750000J0D01*
G01*
X231950000Y-133450000D02*
G75*
G03X232700000Y-132700000I0J750000D01*
G01*
X233340000Y-104270000D02*
X236560000Y-104270000D01*
X236560000Y-104270000D02*
X236560000Y-99050000D01*
X236560000Y-99050000D02*
X233340000Y-99050000D01*
X233340000Y-99050000D02*
X233340000Y-104270000D01*
X234950000Y-104430000D02*
X234950000Y-104270000D01*
X234950000Y-98890000D02*
X234950000Y-99050000D01*
X233340000Y-116970000D02*
X236560000Y-116970000D01*
X236560000Y-116970000D02*
X236560000Y-111750000D01*
X236560000Y-111750000D02*
X233340000Y-111750000D01*
X233340000Y-111750000D02*
X233340000Y-116970000D01*
X234950000Y-117130000D02*
X234950000Y-116970000D01*
X234950000Y-111590000D02*
X234950000Y-111750000D01*
X233340000Y-129670000D02*
X236560000Y-129670000D01*
X236560000Y-129670000D02*
X236560000Y-124450000D01*
X236560000Y-124450000D02*
X233340000Y-124450000D01*
X233340000Y-124450000D02*
X233340000Y-129670000D01*
X234950000Y-129830000D02*
X234950000Y-129670000D01*
X234950000Y-124290000D02*
X234950000Y-124450000D01*
X139570000Y-86020000D02*
X139570000Y-89240000D01*
X139570000Y-89240000D02*
X144790000Y-89240000D01*
X144790000Y-89240000D02*
X144790000Y-86020000D01*
X144790000Y-86020000D02*
X139570000Y-86020000D01*
X139410000Y-87630000D02*
X139570000Y-87630000D01*
X144950000Y-87630000D02*
X144790000Y-87630000D01*
X189100000Y-134280000D02*
X189100000Y-137500000D01*
X189100000Y-137500000D02*
X194320000Y-137500000D01*
X194320000Y-137500000D02*
X194320000Y-134280000D01*
X194320000Y-134280000D02*
X189100000Y-134280000D01*
X188940000Y-135890000D02*
X189100000Y-135890000D01*
X194480000Y-135890000D02*
X194320000Y-135890000D01*
X199260000Y-97450000D02*
X199260000Y-100670000D01*
X199260000Y-100670000D02*
X204480000Y-100670000D01*
X204480000Y-100670000D02*
X204480000Y-97450000D01*
X204480000Y-97450000D02*
X199260000Y-97450000D01*
X199100000Y-99060000D02*
X199260000Y-99060000D01*
X204640000Y-99060000D02*
X204480000Y-99060000D01*
X199260000Y-134280000D02*
X199260000Y-137500000D01*
X199260000Y-137500000D02*
X204480000Y-137500000D01*
X204480000Y-137500000D02*
X204480000Y-134280000D01*
X204480000Y-134280000D02*
X199260000Y-134280000D01*
X199100000Y-135890000D02*
X199260000Y-135890000D01*
X204640000Y-135890000D02*
X204480000Y-135890000D01*
X233810000Y-137500000D02*
X233810000Y-134280000D01*
X233810000Y-134280000D02*
X228590000Y-134280000D01*
X228590000Y-134280000D02*
X228590000Y-137500000D01*
X228590000Y-137500000D02*
X233810000Y-137500000D01*
X233970000Y-135890000D02*
X233810000Y-135890000D01*
X228430000Y-135890000D02*
X228590000Y-135890000D01*
X196492689Y-99787696D02*
X163100243Y-96866235D01*
X163100243Y-96866235D02*
X163936938Y-87302766D01*
X163936938Y-87302766D02*
X197329385Y-90224227D01*
X197329385Y-90224227D02*
X196492689Y-99787696D01*
X146720000Y-92750000D02*
X146720000Y-90130000D01*
X146720000Y-90130000D02*
X140300000Y-90130000D01*
X140300000Y-90130000D02*
X140300000Y-92750000D01*
X140300000Y-92750000D02*
X146720000Y-92750000D01*
X147610000Y-91440000D02*
X146720000Y-91440000D01*
X139410000Y-91440000D02*
X140300000Y-91440000D01*
X135168000Y-125060000D02*
X132548000Y-125060000D01*
X132548000Y-125060000D02*
X132548000Y-131480000D01*
X132548000Y-131480000D02*
X135168000Y-131480000D01*
X135168000Y-131480000D02*
X135168000Y-125060000D01*
X133858000Y-124170000D02*
X133858000Y-125060000D01*
X133858000Y-132370000D02*
X133858000Y-131480000D01*
X171410000Y-135290000D02*
X174030000Y-135290000D01*
X174030000Y-135290000D02*
X174030000Y-128870000D01*
X174030000Y-128870000D02*
X171410000Y-128870000D01*
X171410000Y-128870000D02*
X171410000Y-135290000D01*
X172720000Y-136180000D02*
X172720000Y-135290000D01*
X172720000Y-127980000D02*
X172720000Y-128870000D01*
X213706000Y-134580000D02*
X213706000Y-137200000D01*
X213706000Y-137200000D02*
X220126000Y-137200000D01*
X220126000Y-137200000D02*
X220126000Y-134580000D01*
X220126000Y-134580000D02*
X213706000Y-134580000D01*
X212816000Y-135890000D02*
X213706000Y-135890000D01*
X221016000Y-135890000D02*
X220126000Y-135890000D01*
D12*
X147320000Y-111760000D02*
X143510000Y-114300000D01*
X143510000Y-114300000D02*
X143510000Y-132080000D01*
X143510000Y-132080000D02*
X163830000Y-132080000D01*
X163830000Y-132080000D02*
X163830000Y-111760000D01*
X170180000Y-105410000D02*
X137160000Y-105410000D01*
X137160000Y-105410000D02*
X137160000Y-138430000D01*
X137160000Y-138430000D02*
X170180000Y-138430000D01*
X170180000Y-138430000D02*
X170180000Y-105410000D01*
X163830000Y-111760000D02*
X147320000Y-111760000D01*
D13*
X128540000Y-87510000D02*
X126770000Y-87510000D01*
X126770000Y-87510000D02*
X126770000Y-113150000D01*
X126770000Y-113150000D02*
X132310000Y-113150000D01*
X132310000Y-113150000D02*
X132310000Y-87510000D01*
X132310000Y-87510000D02*
X130540000Y-87510000D01*
X130540000Y-87510000D02*
G75*
G02X128540000Y-87510000I-1000000J0D01*
G01*
X131740000Y-118480000D02*
X131740000Y-120280000D01*
X134960000Y-120280000D02*
X134960000Y-117830000D01*
X137040000Y-98790000D02*
X137040000Y-100560000D01*
X137040000Y-100560000D02*
X162680000Y-100560000D01*
X162680000Y-100560000D02*
X162680000Y-95020000D01*
X162680000Y-95020000D02*
X137040000Y-95020000D01*
X137040000Y-95020000D02*
X137040000Y-96790000D01*
X137040000Y-96790000D02*
G75*
G02X137040000Y-98790000I0J-1000000D01*
G01*
X230140000Y-138310000D02*
X228370000Y-138310000D01*
X228370000Y-138310000D02*
X228370000Y-148710000D01*
X228370000Y-148710000D02*
X233910000Y-148710000D01*
X233910000Y-148710000D02*
X233910000Y-138310000D01*
X233910000Y-138310000D02*
X232140000Y-138310000D01*
X232140000Y-138310000D02*
G75*
G02X230140000Y-138310000I-1000000J0D01*
G01*
D12*
X191770000Y-133350000D02*
X196215000Y-133350000D01*
X191770000Y-101600000D02*
X196215000Y-101600000D01*
X196215000Y-101600000D02*
X196215000Y-133350000D01*
X191770000Y-101600000D02*
X191770000Y-133350000D01*
X151426667Y-136612381D02*
X151426667Y-137326667D01*
X151379047Y-137469524D01*
X151283809Y-137564762D01*
X151140952Y-137612381D01*
X151045714Y-137612381D01*
X151855238Y-136707619D02*
X151902857Y-136660000D01*
X151998095Y-136612381D01*
X152236191Y-136612381D01*
X152331429Y-136660000D01*
X152379048Y-136707619D01*
X152426667Y-136802857D01*
X152426667Y-136898095D01*
X152379048Y-137040952D01*
X151807619Y-137612381D01*
X152426667Y-137612381D01*
X185732381Y-112450476D02*
X185256190Y-112783810D01*
X185732381Y-113021905D02*
X184732381Y-113021905D01*
X184732381Y-112640952D01*
X184780000Y-112545714D01*
X184827619Y-112498095D01*
X184922857Y-112450476D01*
X185065714Y-112450476D01*
X185160952Y-112498095D01*
X185208571Y-112545714D01*
X185256190Y-112640952D01*
X185256190Y-113021905D01*
X185732381Y-112021905D02*
X184732381Y-112021905D01*
X185732381Y-111450476D01*
X184732381Y-111450476D01*
X184827619Y-111021905D02*
X184780000Y-110974286D01*
X184732381Y-110879048D01*
X184732381Y-110640952D01*
X184780000Y-110545714D01*
X184827619Y-110498095D01*
X184922857Y-110450476D01*
X185018095Y-110450476D01*
X185160952Y-110498095D01*
X185732381Y-111069524D01*
X185732381Y-110450476D01*
X178252381Y-111180476D02*
X177776190Y-111513810D01*
X178252381Y-111751905D02*
X177252381Y-111751905D01*
X177252381Y-111370952D01*
X177300000Y-111275714D01*
X177347619Y-111228095D01*
X177442857Y-111180476D01*
X177585714Y-111180476D01*
X177680952Y-111228095D01*
X177728571Y-111275714D01*
X177776190Y-111370952D01*
X177776190Y-111751905D01*
X178252381Y-110751905D02*
X177252381Y-110751905D01*
X178252381Y-110180476D01*
X177252381Y-110180476D01*
X178252381Y-109180476D02*
X178252381Y-109751905D01*
X178252381Y-109466191D02*
X177252381Y-109466191D01*
X177395238Y-109561429D01*
X177490476Y-109656667D01*
X177538095Y-109751905D01*
X178506381Y-128960476D02*
X178030190Y-129293810D01*
X178506381Y-129531905D02*
X177506381Y-129531905D01*
X177506381Y-129150952D01*
X177554000Y-129055714D01*
X177601619Y-129008095D01*
X177696857Y-128960476D01*
X177839714Y-128960476D01*
X177934952Y-129008095D01*
X177982571Y-129055714D01*
X178030190Y-129150952D01*
X178030190Y-129531905D01*
X178506381Y-128531905D02*
X177506381Y-128531905D01*
X178506381Y-127960476D01*
X177506381Y-127960476D01*
X177506381Y-127579524D02*
X177506381Y-126960476D01*
X177887333Y-127293810D01*
X177887333Y-127150952D01*
X177934952Y-127055714D01*
X177982571Y-127008095D01*
X178077810Y-126960476D01*
X178315905Y-126960476D01*
X178411143Y-127008095D01*
X178458762Y-127055714D01*
X178506381Y-127150952D01*
X178506381Y-127436667D01*
X178458762Y-127531905D01*
X178411143Y-127579524D01*
X185732381Y-130230476D02*
X185256190Y-130563810D01*
X185732381Y-130801905D02*
X184732381Y-130801905D01*
X184732381Y-130420952D01*
X184780000Y-130325714D01*
X184827619Y-130278095D01*
X184922857Y-130230476D01*
X185065714Y-130230476D01*
X185160952Y-130278095D01*
X185208571Y-130325714D01*
X185256190Y-130420952D01*
X185256190Y-130801905D01*
X185732381Y-129801905D02*
X184732381Y-129801905D01*
X185732381Y-129230476D01*
X184732381Y-129230476D01*
X185065714Y-128325714D02*
X185732381Y-128325714D01*
X184684762Y-128563810D02*
X185399048Y-128801905D01*
X185399048Y-128182857D01*
X221440476Y-106132381D02*
X222107143Y-107132381D01*
X222107143Y-106132381D02*
X221440476Y-107132381D01*
X223011905Y-107132381D02*
X222440476Y-107132381D01*
X222726190Y-107132381D02*
X222726190Y-106132381D01*
X222630952Y-106275238D01*
X222535714Y-106370476D01*
X222440476Y-106418095D01*
X221440476Y-118832381D02*
X222107143Y-119832381D01*
X222107143Y-118832381D02*
X221440476Y-119832381D01*
X222440476Y-118927619D02*
X222488095Y-118880000D01*
X222583333Y-118832381D01*
X222821429Y-118832381D01*
X222916667Y-118880000D01*
X222964286Y-118927619D01*
X223011905Y-119022857D01*
X223011905Y-119118095D01*
X222964286Y-119260952D01*
X222392857Y-119832381D01*
X223011905Y-119832381D01*
X221440476Y-131278381D02*
X222107143Y-132278381D01*
X222107143Y-131278381D02*
X221440476Y-132278381D01*
X222392857Y-131278381D02*
X223011905Y-131278381D01*
X222678571Y-131659333D01*
X222821429Y-131659333D01*
X222916667Y-131706952D01*
X222964286Y-131754571D01*
X223011905Y-131849810D01*
X223011905Y-132087905D01*
X222964286Y-132183143D01*
X222916667Y-132230762D01*
X222821429Y-132278381D01*
X222535714Y-132278381D01*
X222440476Y-132230762D01*
X222392857Y-132183143D01*
X235307143Y-101766666D02*
X235354762Y-101814285D01*
X235402381Y-101957142D01*
X235402381Y-102052380D01*
X235354762Y-102195238D01*
X235259524Y-102290476D01*
X235164286Y-102338095D01*
X234973810Y-102385714D01*
X234830952Y-102385714D01*
X234640476Y-102338095D01*
X234545238Y-102290476D01*
X234450000Y-102195238D01*
X234402381Y-102052380D01*
X234402381Y-101957142D01*
X234450000Y-101814285D01*
X234497619Y-101766666D01*
X235402381Y-100814285D02*
X235402381Y-101385714D01*
X235402381Y-101100000D02*
X234402381Y-101100000D01*
X234545238Y-101195238D01*
X234640476Y-101290476D01*
X234688095Y-101385714D01*
X235307143Y-114526666D02*
X235354762Y-114574285D01*
X235402381Y-114717142D01*
X235402381Y-114812380D01*
X235354762Y-114955238D01*
X235259524Y-115050476D01*
X235164286Y-115098095D01*
X234973810Y-115145714D01*
X234830952Y-115145714D01*
X234640476Y-115098095D01*
X234545238Y-115050476D01*
X234450000Y-114955238D01*
X234402381Y-114812380D01*
X234402381Y-114717142D01*
X234450000Y-114574285D01*
X234497619Y-114526666D01*
X234497619Y-114145714D02*
X234450000Y-114098095D01*
X234402381Y-114002857D01*
X234402381Y-113764761D01*
X234450000Y-113669523D01*
X234497619Y-113621904D01*
X234592857Y-113574285D01*
X234688095Y-113574285D01*
X234830952Y-113621904D01*
X235402381Y-114193333D01*
X235402381Y-113574285D01*
X235307143Y-127166666D02*
X235354762Y-127214285D01*
X235402381Y-127357142D01*
X235402381Y-127452380D01*
X235354762Y-127595238D01*
X235259524Y-127690476D01*
X235164286Y-127738095D01*
X234973810Y-127785714D01*
X234830952Y-127785714D01*
X234640476Y-127738095D01*
X234545238Y-127690476D01*
X234450000Y-127595238D01*
X234402381Y-127452380D01*
X234402381Y-127357142D01*
X234450000Y-127214285D01*
X234497619Y-127166666D01*
X234402381Y-126833333D02*
X234402381Y-126214285D01*
X234783333Y-126547619D01*
X234783333Y-126404761D01*
X234830952Y-126309523D01*
X234878571Y-126261904D01*
X234973810Y-126214285D01*
X235211905Y-126214285D01*
X235307143Y-126261904D01*
X235354762Y-126309523D01*
X235402381Y-126404761D01*
X235402381Y-126690476D01*
X235354762Y-126785714D01*
X235307143Y-126833333D01*
X141819334Y-87987143D02*
X141771715Y-88034762D01*
X141628858Y-88082381D01*
X141533620Y-88082381D01*
X141390762Y-88034762D01*
X141295524Y-87939524D01*
X141247905Y-87844286D01*
X141200286Y-87653810D01*
X141200286Y-87510952D01*
X141247905Y-87320476D01*
X141295524Y-87225238D01*
X141390762Y-87130000D01*
X141533620Y-87082381D01*
X141628858Y-87082381D01*
X141771715Y-87130000D01*
X141819334Y-87177619D01*
X142676477Y-87415714D02*
X142676477Y-88082381D01*
X142438381Y-87034762D02*
X142200286Y-87749048D01*
X142819334Y-87749048D01*
X191543334Y-136247143D02*
X191495715Y-136294762D01*
X191352858Y-136342381D01*
X191257620Y-136342381D01*
X191114762Y-136294762D01*
X191019524Y-136199524D01*
X190971905Y-136104286D01*
X190924286Y-135913810D01*
X190924286Y-135770952D01*
X190971905Y-135580476D01*
X191019524Y-135485238D01*
X191114762Y-135390000D01*
X191257620Y-135342381D01*
X191352858Y-135342381D01*
X191495715Y-135390000D01*
X191543334Y-135437619D01*
X192400477Y-135342381D02*
X192210000Y-135342381D01*
X192114762Y-135390000D01*
X192067143Y-135437619D01*
X191971905Y-135580476D01*
X191924286Y-135770952D01*
X191924286Y-136151905D01*
X191971905Y-136247143D01*
X192019524Y-136294762D01*
X192114762Y-136342381D01*
X192305239Y-136342381D01*
X192400477Y-136294762D01*
X192448096Y-136247143D01*
X192495715Y-136151905D01*
X192495715Y-135913810D01*
X192448096Y-135818571D01*
X192400477Y-135770952D01*
X192305239Y-135723333D01*
X192114762Y-135723333D01*
X192019524Y-135770952D01*
X191971905Y-135818571D01*
X191924286Y-135913810D01*
X201703334Y-99417143D02*
X201655715Y-99464762D01*
X201512858Y-99512381D01*
X201417620Y-99512381D01*
X201274762Y-99464762D01*
X201179524Y-99369524D01*
X201131905Y-99274286D01*
X201084286Y-99083810D01*
X201084286Y-98940952D01*
X201131905Y-98750476D01*
X201179524Y-98655238D01*
X201274762Y-98560000D01*
X201417620Y-98512381D01*
X201512858Y-98512381D01*
X201655715Y-98560000D01*
X201703334Y-98607619D01*
X202036667Y-98512381D02*
X202703334Y-98512381D01*
X202274762Y-99512381D01*
X201703334Y-136247143D02*
X201655715Y-136294762D01*
X201512858Y-136342381D01*
X201417620Y-136342381D01*
X201274762Y-136294762D01*
X201179524Y-136199524D01*
X201131905Y-136104286D01*
X201084286Y-135913810D01*
X201084286Y-135770952D01*
X201131905Y-135580476D01*
X201179524Y-135485238D01*
X201274762Y-135390000D01*
X201417620Y-135342381D01*
X201512858Y-135342381D01*
X201655715Y-135390000D01*
X201703334Y-135437619D01*
X202274762Y-135770952D02*
X202179524Y-135723333D01*
X202131905Y-135675714D01*
X202084286Y-135580476D01*
X202084286Y-135532857D01*
X202131905Y-135437619D01*
X202179524Y-135390000D01*
X202274762Y-135342381D01*
X202465239Y-135342381D01*
X202560477Y-135390000D01*
X202608096Y-135437619D01*
X202655715Y-135532857D01*
X202655715Y-135580476D01*
X202608096Y-135675714D01*
X202560477Y-135723333D01*
X202465239Y-135770952D01*
X202274762Y-135770952D01*
X202179524Y-135818571D01*
X202131905Y-135866190D01*
X202084286Y-135961429D01*
X202084286Y-136151905D01*
X202131905Y-136247143D01*
X202179524Y-136294762D01*
X202274762Y-136342381D01*
X202465239Y-136342381D01*
X202560477Y-136294762D01*
X202608096Y-136247143D01*
X202655715Y-136151905D01*
X202655715Y-135961429D01*
X202608096Y-135866190D01*
X202560477Y-135818571D01*
X202465239Y-135770952D01*
X231033334Y-136247143D02*
X230985715Y-136294762D01*
X230842858Y-136342381D01*
X230747620Y-136342381D01*
X230604762Y-136294762D01*
X230509524Y-136199524D01*
X230461905Y-136104286D01*
X230414286Y-135913810D01*
X230414286Y-135770952D01*
X230461905Y-135580476D01*
X230509524Y-135485238D01*
X230604762Y-135390000D01*
X230747620Y-135342381D01*
X230842858Y-135342381D01*
X230985715Y-135390000D01*
X231033334Y-135437619D01*
X231509524Y-136342381D02*
X231700000Y-136342381D01*
X231795239Y-136294762D01*
X231842858Y-136247143D01*
X231938096Y-136104286D01*
X231985715Y-135913810D01*
X231985715Y-135532857D01*
X231938096Y-135437619D01*
X231890477Y-135390000D01*
X231795239Y-135342381D01*
X231604762Y-135342381D01*
X231509524Y-135390000D01*
X231461905Y-135437619D01*
X231414286Y-135532857D01*
X231414286Y-135770952D01*
X231461905Y-135866190D01*
X231509524Y-135913810D01*
X231604762Y-135961429D01*
X231795239Y-135961429D01*
X231890477Y-135913810D01*
X231938096Y-135866190D01*
X231985715Y-135770952D01*
X179377039Y-99296480D02*
X179314784Y-100008048D01*
X179254895Y-100146211D01*
X179151719Y-100232786D01*
X179005255Y-100267773D01*
X178910379Y-100259472D01*
X180286078Y-100379830D02*
X179716823Y-100330027D01*
X180001450Y-100354929D02*
X180088606Y-99358734D01*
X179981279Y-99492747D01*
X179878103Y-99579322D01*
X179779077Y-99618459D01*
D13*
X192087191Y-92036617D02*
X191517937Y-91986814D01*
X191802563Y-92011716D02*
X191889719Y-91015521D01*
X191782393Y-91149534D01*
X191679217Y-91236109D01*
X191580191Y-91275246D01*
D12*
X143343334Y-91892381D02*
X143010000Y-91416190D01*
X142771905Y-91892381D02*
X142771905Y-90892381D01*
X143152858Y-90892381D01*
X143248096Y-90940000D01*
X143295715Y-90987619D01*
X143343334Y-91082857D01*
X143343334Y-91225714D01*
X143295715Y-91320952D01*
X143248096Y-91368571D01*
X143152858Y-91416190D01*
X142771905Y-91416190D01*
X144295715Y-91892381D02*
X143724286Y-91892381D01*
X144010000Y-91892381D02*
X144010000Y-90892381D01*
X143914762Y-91035238D01*
X143819524Y-91130476D01*
X143724286Y-91178095D01*
X134310381Y-128436666D02*
X133834190Y-128770000D01*
X134310381Y-129008095D02*
X133310381Y-129008095D01*
X133310381Y-128627142D01*
X133358000Y-128531904D01*
X133405619Y-128484285D01*
X133500857Y-128436666D01*
X133643714Y-128436666D01*
X133738952Y-128484285D01*
X133786571Y-128531904D01*
X133834190Y-128627142D01*
X133834190Y-129008095D01*
X133405619Y-128055714D02*
X133358000Y-128008095D01*
X133310381Y-127912857D01*
X133310381Y-127674761D01*
X133358000Y-127579523D01*
X133405619Y-127531904D01*
X133500857Y-127484285D01*
X133596095Y-127484285D01*
X133738952Y-127531904D01*
X134310381Y-128103333D01*
X134310381Y-127484285D01*
X173172381Y-132246666D02*
X172696190Y-132580000D01*
X173172381Y-132818095D02*
X172172381Y-132818095D01*
X172172381Y-132437142D01*
X172220000Y-132341904D01*
X172267619Y-132294285D01*
X172362857Y-132246666D01*
X172505714Y-132246666D01*
X172600952Y-132294285D01*
X172648571Y-132341904D01*
X172696190Y-132437142D01*
X172696190Y-132818095D01*
X172172381Y-131913333D02*
X172172381Y-131294285D01*
X172553333Y-131627619D01*
X172553333Y-131484761D01*
X172600952Y-131389523D01*
X172648571Y-131341904D01*
X172743810Y-131294285D01*
X172981905Y-131294285D01*
X173077143Y-131341904D01*
X173124762Y-131389523D01*
X173172381Y-131484761D01*
X173172381Y-131770476D01*
X173124762Y-131865714D01*
X173077143Y-131913333D01*
X216749334Y-136342381D02*
X216416000Y-135866190D01*
X216177905Y-136342381D02*
X216177905Y-135342381D01*
X216558858Y-135342381D01*
X216654096Y-135390000D01*
X216701715Y-135437619D01*
X216749334Y-135532857D01*
X216749334Y-135675714D01*
X216701715Y-135770952D01*
X216654096Y-135818571D01*
X216558858Y-135866190D01*
X216177905Y-135866190D01*
X217606477Y-135675714D02*
X217606477Y-136342381D01*
X217368381Y-135294762D02*
X217130286Y-136009048D01*
X217749334Y-136009048D01*
X155662381Y-122681905D02*
X156471905Y-122681905D01*
X156567143Y-122634286D01*
X156614762Y-122586667D01*
X156662381Y-122491429D01*
X156662381Y-122300952D01*
X156614762Y-122205714D01*
X156567143Y-122158095D01*
X156471905Y-122110476D01*
X155662381Y-122110476D01*
X156662381Y-121110476D02*
X156662381Y-121681905D01*
X156662381Y-121396191D02*
X155662381Y-121396191D01*
X155805238Y-121491429D01*
X155900476Y-121586667D01*
X155948095Y-121681905D01*
X128778095Y-85962381D02*
X128778095Y-86771905D01*
X128825714Y-86867143D01*
X128873333Y-86914762D01*
X128968571Y-86962381D01*
X129159048Y-86962381D01*
X129254286Y-86914762D01*
X129301905Y-86867143D01*
X129349524Y-86771905D01*
X129349524Y-85962381D01*
X129778095Y-86057619D02*
X129825714Y-86010000D01*
X129920952Y-85962381D01*
X130159048Y-85962381D01*
X130254286Y-86010000D01*
X130301905Y-86057619D01*
X130349524Y-86152857D01*
X130349524Y-86248095D01*
X130301905Y-86390952D01*
X129730476Y-86962381D01*
X130349524Y-86962381D01*
X133096095Y-115530381D02*
X133096095Y-116339905D01*
X133143714Y-116435143D01*
X133191333Y-116482762D01*
X133286571Y-116530381D01*
X133477048Y-116530381D01*
X133572286Y-116482762D01*
X133619905Y-116435143D01*
X133667524Y-116339905D01*
X133667524Y-115530381D01*
X134048476Y-115530381D02*
X134667524Y-115530381D01*
X134334190Y-115911333D01*
X134477048Y-115911333D01*
X134572286Y-115958952D01*
X134619905Y-116006571D01*
X134667524Y-116101810D01*
X134667524Y-116339905D01*
X134619905Y-116435143D01*
X134572286Y-116482762D01*
X134477048Y-116530381D01*
X134191333Y-116530381D01*
X134096095Y-116482762D01*
X134048476Y-116435143D01*
X135492381Y-98551905D02*
X136301905Y-98551905D01*
X136397143Y-98504286D01*
X136444762Y-98456667D01*
X136492381Y-98361429D01*
X136492381Y-98170952D01*
X136444762Y-98075714D01*
X136397143Y-98028095D01*
X136301905Y-97980476D01*
X135492381Y-97980476D01*
X135825714Y-97075714D02*
X136492381Y-97075714D01*
X135444762Y-97313810D02*
X136159048Y-97551905D01*
X136159048Y-96932857D01*
X230378095Y-142962381D02*
X230378095Y-143771905D01*
X230425714Y-143867143D01*
X230473333Y-143914762D01*
X230568571Y-143962381D01*
X230759048Y-143962381D01*
X230854286Y-143914762D01*
X230901905Y-143867143D01*
X230949524Y-143771905D01*
X230949524Y-142962381D01*
X231473333Y-143962381D02*
X231663809Y-143962381D01*
X231759048Y-143914762D01*
X231806667Y-143867143D01*
X231901905Y-143724286D01*
X231949524Y-143533810D01*
X231949524Y-143152857D01*
X231901905Y-143057619D01*
X231854286Y-143010000D01*
X231759048Y-142962381D01*
X231568571Y-142962381D01*
X231473333Y-143010000D01*
X231425714Y-143057619D01*
X231378095Y-143152857D01*
X231378095Y-143390952D01*
X231425714Y-143486190D01*
X231473333Y-143533810D01*
X231568571Y-143581429D01*
X231759048Y-143581429D01*
X231854286Y-143533810D01*
X231901905Y-143486190D01*
X231949524Y-143390952D01*
M02*
