G04 EAGLE Gerber RS-274X export*
G75*
%MOMM*%
%FSLAX34Y34*%
%LPD*%
%INTop Copper*%
%IPPOS*%
%AMOC8*
5,1,8,0,0,1.08239X$1,22.5*%
G01*
%ADD10P,1.649562X8X112.500000*%
%ADD11C,1.879600*%
%ADD12C,5.080000*%
%ADD13R,1.000000X1.100000*%
%ADD14R,1.100000X1.000000*%
%ADD15R,1.000000X1.400000*%
%ADD16R,2.032000X0.660400*%
%ADD17C,0.406400*%
%ADD18C,0.609600*%
%ADD19C,1.006400*%
%ADD20C,0.254000*%


D10*
X132080Y902208D03*
X132080Y874522D03*
X132080Y847090D03*
X132080Y819404D03*
X132080Y791718D03*
X132080Y764286D03*
X132080Y736600D03*
X132080Y708914D03*
X132080Y681482D03*
X132080Y653796D03*
X132080Y626110D03*
X132080Y598678D03*
X132080Y570992D03*
X106680Y888492D03*
X106680Y860806D03*
X106680Y833120D03*
X106680Y805688D03*
X106680Y778002D03*
X106680Y750316D03*
X106680Y722884D03*
X106680Y695198D03*
X106680Y667512D03*
X106680Y640080D03*
X106680Y612394D03*
X106680Y584708D03*
D11*
X444500Y768300D03*
X444500Y745400D03*
X444500Y722500D03*
X444500Y699600D03*
X469900Y779800D03*
X469900Y756900D03*
X469900Y734000D03*
X469900Y711100D03*
D12*
X444500Y861600D03*
X444500Y611600D03*
D11*
X444500Y791200D03*
X469900Y688200D03*
X419100Y779800D03*
X419100Y756900D03*
X419100Y734000D03*
X419100Y711100D03*
X419100Y688200D03*
D13*
X311540Y736600D03*
X328540Y736600D03*
X311540Y703580D03*
X328540Y703580D03*
X311540Y670560D03*
X328540Y670560D03*
X366640Y736600D03*
X349640Y736600D03*
X366640Y703580D03*
X349640Y703580D03*
X366640Y670560D03*
X349640Y670560D03*
D14*
X172720Y598560D03*
X172720Y615560D03*
D15*
X231140Y598600D03*
X221640Y620600D03*
X240640Y620600D03*
D13*
X269240Y598560D03*
X269240Y615560D03*
D14*
X222640Y650240D03*
X239640Y650240D03*
D16*
X278892Y679450D03*
X278892Y692150D03*
X278892Y704850D03*
X278892Y717550D03*
X278892Y730250D03*
X278892Y742950D03*
X278892Y755650D03*
X278892Y768350D03*
X178308Y768350D03*
X178308Y755650D03*
X178308Y742950D03*
X178308Y730250D03*
X178308Y717550D03*
X178308Y704850D03*
X178308Y692150D03*
X178308Y679450D03*
X278892Y781050D03*
X278892Y793750D03*
X178308Y781050D03*
X178308Y793750D03*
D17*
X178308Y755650D02*
X178308Y742950D01*
X178308Y755650D02*
X178308Y768350D01*
X178308Y781050D01*
X178308Y793750D01*
X178308Y742950D02*
X194310Y742950D01*
X198120Y739140D01*
X198120Y695960D01*
D18*
X194310Y692150D01*
X178308Y692150D01*
X240640Y649240D02*
X240640Y620600D01*
D17*
X240640Y649240D02*
X239640Y650240D01*
X268360Y615560D02*
X269240Y615560D01*
D18*
X268360Y615560D02*
X264160Y619760D01*
X241480Y619760D01*
D17*
X240640Y620600D01*
D18*
X240640Y649240D02*
X240640Y664820D01*
D17*
X255270Y679450D01*
X278892Y679450D01*
D18*
X209500Y695960D02*
X198120Y695960D01*
X209500Y695960D02*
X240640Y664820D01*
D17*
X262890Y793750D02*
X278892Y793750D01*
X262890Y793750D02*
X254000Y784860D01*
X254000Y680720D01*
X255270Y679450D01*
D18*
X178308Y692150D02*
X156210Y692150D01*
D17*
X366640Y703580D02*
X381000Y703580D01*
D19*
X381000Y703580D03*
X381000Y670560D03*
D17*
X366640Y670560D01*
X366640Y736600D02*
X381000Y736600D01*
D19*
X381000Y736600D03*
D17*
X278892Y679450D02*
X278892Y668528D01*
X292100Y655320D01*
X363220Y655320D01*
X366640Y658740D01*
X366640Y670560D01*
D18*
X156210Y692150D02*
X144780Y680720D01*
X132080Y681482D02*
X132080Y708914D01*
X132080Y653796D02*
X132080Y626110D01*
X132080Y653796D02*
X132080Y681482D01*
X132842Y680720D02*
X144780Y680720D01*
D17*
X132842Y680720D02*
X132080Y681482D01*
X178308Y679450D02*
X193430Y679450D01*
X222640Y650240D01*
X221640Y649240D02*
X221640Y620600D01*
X221640Y649240D02*
X222640Y650240D01*
D18*
X231140Y598600D02*
X269200Y598600D01*
D17*
X269240Y598560D01*
D18*
X231140Y598600D02*
X202360Y598600D01*
X132080Y570992D02*
X120396Y570992D01*
X106680Y584708D01*
X132080Y570992D02*
X174752Y570992D01*
X184150Y580390D01*
X202360Y598600D01*
D17*
X172720Y598560D02*
X172720Y591820D01*
X184150Y580390D01*
X155194Y612394D02*
X106680Y612394D01*
X155194Y612394D02*
X157480Y614680D01*
X171840Y614680D01*
X172720Y615560D01*
X106680Y640080D02*
X99060Y640080D01*
X88900Y629920D01*
X88900Y568960D01*
X104140Y553720D01*
X259080Y553720D01*
X381000Y652780D01*
X396240Y652780D01*
X406400Y662940D01*
X477520Y662940D01*
X492760Y678180D01*
X492760Y723900D01*
X482600Y734060D01*
X469960Y734060D01*
X469900Y734000D01*
X106680Y667512D02*
X98552Y667512D01*
X76200Y645160D01*
X76200Y563880D01*
X96520Y543560D01*
X264160Y543560D01*
X386080Y642620D01*
X401320Y642620D01*
X411480Y652780D01*
X482600Y652780D01*
X505460Y675640D01*
X505460Y706120D01*
X510540Y711200D01*
D19*
X510540Y711200D03*
D17*
X349640Y670560D02*
X328540Y670560D01*
X349640Y670560D02*
X349640Y682380D01*
X353060Y685800D01*
X383540Y685800D01*
X396240Y698500D01*
X396240Y716280D01*
X414020Y734060D01*
X414080Y734060D01*
X419100Y734000D01*
X349640Y703580D02*
X328540Y703580D01*
X349640Y703580D02*
X349640Y715400D01*
X353060Y718820D01*
X383540Y718820D01*
X393700Y728980D01*
X393700Y744220D01*
X408940Y756920D01*
X419080Y756920D01*
X419100Y756900D01*
X349640Y736600D02*
X328540Y736600D01*
X349640Y736600D02*
X349640Y748420D01*
X381000Y779780D01*
X419080Y779780D01*
X419100Y779800D01*
X295910Y717550D02*
X278892Y717550D01*
X295910Y717550D02*
X302260Y723900D01*
X302260Y727320D01*
X311540Y736600D01*
X310270Y704850D02*
X278892Y704850D01*
D20*
X310270Y704850D02*
X311540Y703580D01*
D17*
X295910Y692150D02*
X278892Y692150D01*
X295910Y692150D02*
X302260Y685800D01*
X302260Y679840D01*
X311540Y670560D01*
X141224Y750316D02*
X106680Y750316D01*
X141224Y750316D02*
X149860Y741680D01*
X149860Y728980D01*
X161290Y717550D01*
X178308Y717550D01*
X178308Y730250D02*
X163830Y730250D01*
X160020Y734060D01*
X160020Y746760D01*
X152400Y754380D01*
X152400Y774700D01*
X149098Y778002D01*
X106680Y778002D01*
X106680Y722884D02*
X143256Y722884D01*
X149860Y716280D01*
X149860Y708660D01*
X153670Y704850D01*
X178308Y704850D01*
M02*
