M48
;GenerationSoftware,Autodesk,EAGLE,9.6.0*%
;CreationDate,2020-04-04T22:11:36Z*%
FMAT,2
ICI,OFF
METRIC,TZ,000.000
T3C0.600
T2C1.016
T1C3.302
%
G90
M71
T1
X44450Y61160
X44450Y86160
X11938Y50140
X11938Y97180
T2
X41910Y68820
X10668Y69520
X13208Y90221
X13208Y87452
X13208Y84709
X13208Y81940
X13208Y79172
X13208Y76429
X13208Y73660
X13208Y70891
X13208Y68148
X13208Y65380
X13208Y62611
X13208Y59868
X13208Y57099
X10668Y88849
X10668Y86081
X10668Y83312
X10668Y80569
X10668Y77800
X41910Y71110
X10668Y72288
X41910Y73400
X10668Y66751
X10668Y64008
X10668Y61239
X10668Y58471
X44450Y76830
X44450Y74540
X44450Y72250
X44450Y69960
X46990Y77980
X46990Y75690
X46990Y73400
X46990Y71110
X41910Y75690
X10668Y75032
X44450Y79120
X46990Y68820
X41910Y77980
T3
X38100Y67056
X38100Y73660
X51054Y71120
X38100Y70358
M30