G04 EAGLE Gerber RS-274X export*
G75*
%MOMM*%
%FSLAX34Y34*%
%LPD*%
%INSilkscreen Top*%
%IPPOS*%
%AMOC8*
5,1,8,0,0,1.08239X$1,22.5*%
G01*
%ADD10C,0.152400*%
%ADD11C,0.127000*%
%ADD12C,0.203200*%
%ADD13C,0.177800*%
%ADD14C,0.050800*%
%ADD15C,0.101600*%


D10*
X361442Y872154D02*
X364154Y869442D01*
X366865Y869442D01*
X369577Y872154D01*
X369577Y885712D01*
X366865Y885712D02*
X372289Y885712D01*
X377814Y869442D02*
X388660Y869442D01*
X377814Y869442D02*
X388660Y880289D01*
X388660Y883000D01*
X385949Y885712D01*
X380525Y885712D01*
X377814Y883000D01*
D11*
X175895Y882022D02*
X175895Y874395D01*
X175895Y882022D02*
X179708Y885835D01*
X183522Y882022D01*
X183522Y874395D01*
X183522Y880115D02*
X175895Y880115D01*
X187589Y876302D02*
X187589Y874395D01*
X187589Y876302D02*
X189496Y876302D01*
X189496Y874395D01*
X187589Y874395D01*
X205130Y874395D02*
X205130Y885835D01*
X208943Y882022D01*
X212756Y885835D01*
X212756Y874395D01*
X218731Y882022D02*
X224450Y882022D01*
X218731Y882022D02*
X216824Y880115D01*
X216824Y876302D01*
X218731Y874395D01*
X224450Y874395D01*
X228518Y874395D02*
X228518Y885835D01*
X234238Y885835D01*
X236144Y883928D01*
X236144Y880115D01*
X234238Y878208D01*
X228518Y878208D01*
X240212Y874395D02*
X240212Y885835D01*
X242118Y882022D02*
X240212Y880115D01*
X242118Y882022D02*
X245932Y882022D01*
X247838Y880115D01*
X247838Y874395D01*
X253812Y874395D02*
X257626Y874395D01*
X253812Y874395D02*
X251906Y876302D01*
X251906Y880115D01*
X253812Y882022D01*
X257626Y882022D01*
X259532Y880115D01*
X259532Y878208D01*
X251906Y878208D01*
X263600Y874395D02*
X263600Y882022D01*
X267413Y882022D02*
X263600Y878208D01*
X267413Y882022D02*
X269320Y882022D01*
X273345Y874395D02*
X279065Y874395D01*
X280971Y876302D01*
X279065Y878208D01*
X275251Y878208D01*
X273345Y880115D01*
X275251Y882022D01*
X280971Y882022D01*
X286945Y874395D02*
X290759Y874395D01*
X292665Y876302D01*
X292665Y880115D01*
X290759Y882022D01*
X286945Y882022D01*
X285039Y880115D01*
X285039Y876302D01*
X286945Y874395D01*
X296733Y874395D02*
X296733Y882022D01*
X302453Y882022D01*
X304359Y880115D01*
X304359Y874395D01*
X179708Y866785D02*
X179708Y855345D01*
X175895Y866785D02*
X183522Y866785D01*
X187589Y857252D02*
X187589Y855345D01*
X187589Y857252D02*
X189496Y857252D01*
X189496Y855345D01*
X187589Y855345D01*
X210850Y866785D02*
X212756Y864878D01*
X210850Y866785D02*
X207037Y866785D01*
X205130Y864878D01*
X205130Y862972D01*
X207037Y861065D01*
X210850Y861065D01*
X212756Y859158D01*
X212756Y857252D01*
X210850Y855345D01*
X207037Y855345D01*
X205130Y857252D01*
X218731Y857252D02*
X218731Y864878D01*
X218731Y857252D02*
X220637Y855345D01*
X220637Y862972D02*
X216824Y862972D01*
X226526Y855345D02*
X230340Y855345D01*
X226526Y855345D02*
X224620Y857252D01*
X224620Y861065D01*
X226526Y862972D01*
X230340Y862972D01*
X232246Y861065D01*
X232246Y859158D01*
X224620Y859158D01*
X236314Y862972D02*
X236314Y851532D01*
X236314Y862972D02*
X242034Y862972D01*
X243940Y861065D01*
X243940Y857252D01*
X242034Y855345D01*
X236314Y855345D01*
X248008Y866785D02*
X249914Y866785D01*
X249914Y855345D01*
X248008Y855345D02*
X251821Y855345D01*
X257710Y855345D02*
X261524Y855345D01*
X257710Y855345D02*
X255804Y857252D01*
X255804Y861065D01*
X257710Y862972D01*
X261524Y862972D01*
X263430Y861065D01*
X263430Y859158D01*
X255804Y859158D01*
X269404Y857252D02*
X269404Y864878D01*
X269404Y857252D02*
X271311Y855345D01*
X271311Y862972D02*
X267498Y862972D01*
X277200Y855345D02*
X281014Y855345D01*
X282920Y857252D01*
X282920Y861065D01*
X281014Y862972D01*
X277200Y862972D01*
X275294Y861065D01*
X275294Y857252D01*
X277200Y855345D01*
X286988Y855345D02*
X286988Y862972D01*
X292708Y862972D01*
X294614Y861065D01*
X294614Y855345D01*
X175895Y845828D02*
X175895Y838202D01*
X175895Y845828D02*
X177802Y847735D01*
X181615Y847735D01*
X183522Y845828D01*
X183522Y838202D01*
X181615Y836295D01*
X177802Y836295D01*
X175895Y838202D01*
X183522Y845828D01*
X187589Y845828D02*
X189496Y847735D01*
X193309Y847735D01*
X195215Y845828D01*
X195215Y843922D01*
X193309Y842015D01*
X191402Y842015D01*
X193309Y842015D02*
X195215Y840108D01*
X195215Y838202D01*
X193309Y836295D01*
X189496Y836295D01*
X187589Y838202D01*
X199283Y836295D02*
X206909Y847735D01*
X210977Y836295D02*
X218603Y836295D01*
X210977Y836295D02*
X218603Y843922D01*
X218603Y845828D01*
X216697Y847735D01*
X212884Y847735D01*
X210977Y845828D01*
X222671Y845828D02*
X222671Y838202D01*
X222671Y845828D02*
X224578Y847735D01*
X228391Y847735D01*
X230297Y845828D01*
X230297Y838202D01*
X228391Y836295D01*
X224578Y836295D01*
X222671Y838202D01*
X230297Y845828D01*
X234365Y843922D02*
X238178Y847735D01*
X238178Y836295D01*
X234365Y836295D02*
X241991Y836295D01*
X246059Y847735D02*
X253685Y847735D01*
X253685Y845828D01*
X246059Y838202D01*
X246059Y836295D01*
D12*
X359156Y850395D02*
X359156Y857513D01*
X359156Y850395D02*
X362715Y846836D01*
X366274Y850395D01*
X366274Y857513D01*
X376189Y857513D02*
X377968Y855734D01*
X376189Y857513D02*
X372629Y857513D01*
X370850Y855734D01*
X370850Y848616D01*
X372629Y846836D01*
X376189Y846836D01*
X377968Y848616D01*
X377968Y852175D01*
X374409Y852175D01*
X382544Y853954D02*
X382544Y846836D01*
X382544Y853954D02*
X386103Y857513D01*
X389662Y853954D01*
X389662Y846836D01*
X389662Y852175D02*
X382544Y852175D01*
X155956Y935736D02*
X155956Y946413D01*
X155956Y935736D02*
X161295Y935736D01*
X163074Y937516D01*
X163074Y944634D01*
X161295Y946413D01*
X155956Y946413D01*
X167650Y946413D02*
X167650Y935736D01*
X167650Y946413D02*
X172989Y946413D01*
X174768Y944634D01*
X174768Y942854D01*
X172989Y941075D01*
X174768Y939295D01*
X174768Y937516D01*
X172989Y935736D01*
X167650Y935736D01*
X167650Y941075D02*
X172989Y941075D01*
X179344Y935736D02*
X186462Y935736D01*
X179344Y935736D02*
X186462Y942854D01*
X186462Y944634D01*
X184683Y946413D01*
X181123Y946413D01*
X179344Y944634D01*
X191038Y946413D02*
X198156Y946413D01*
X191038Y946413D02*
X191038Y941075D01*
X194597Y942854D01*
X196376Y942854D01*
X198156Y941075D01*
X198156Y937516D01*
X196376Y935736D01*
X192817Y935736D01*
X191038Y937516D01*
X202732Y935736D02*
X202732Y946413D01*
X209850Y946413D01*
X206291Y941075D02*
X202732Y941075D01*
D13*
X158775Y957199D02*
X156106Y959868D01*
X158775Y957199D02*
X161444Y957199D01*
X164114Y959868D01*
X164114Y973215D01*
X166783Y973215D02*
X161444Y973215D01*
X172477Y967876D02*
X177816Y973215D01*
X177816Y957199D01*
X172477Y957199D02*
X183155Y957199D01*
D12*
X398800Y890600D02*
X519100Y890600D01*
X519100Y582600D02*
X398800Y582600D01*
X398800Y890600D01*
D14*
X487210Y737913D02*
X486617Y737320D01*
X487210Y737913D02*
X487210Y738506D01*
X486617Y739099D01*
X483651Y739099D01*
X483651Y738506D02*
X483651Y739693D01*
X487210Y741062D02*
X487210Y743435D01*
X487210Y741062D02*
X484837Y743435D01*
X484244Y743435D01*
X483651Y742841D01*
X483651Y741655D01*
X484244Y741062D01*
D15*
X311658Y748538D02*
X311658Y760232D01*
X317505Y760232D01*
X319454Y758283D01*
X319454Y754385D01*
X317505Y752436D01*
X311658Y752436D01*
X315556Y752436D02*
X319454Y748538D01*
X323352Y756334D02*
X327250Y760232D01*
X327250Y748538D01*
X323352Y748538D02*
X331148Y748538D01*
X311658Y724672D02*
X311658Y712978D01*
X311658Y724672D02*
X317505Y724672D01*
X319454Y722723D01*
X319454Y718825D01*
X317505Y716876D01*
X311658Y716876D01*
X315556Y716876D02*
X319454Y712978D01*
X323352Y712978D02*
X331148Y712978D01*
X323352Y712978D02*
X331148Y720774D01*
X331148Y722723D01*
X329199Y724672D01*
X325301Y724672D01*
X323352Y722723D01*
X311658Y691652D02*
X311658Y679958D01*
X311658Y691652D02*
X317505Y691652D01*
X319454Y689703D01*
X319454Y685805D01*
X317505Y683856D01*
X311658Y683856D01*
X315556Y683856D02*
X319454Y679958D01*
X323352Y689703D02*
X325301Y691652D01*
X329199Y691652D01*
X331148Y689703D01*
X331148Y687754D01*
X329199Y685805D01*
X327250Y685805D01*
X329199Y685805D02*
X331148Y683856D01*
X331148Y681907D01*
X329199Y679958D01*
X325301Y679958D01*
X323352Y681907D01*
X347218Y748538D02*
X347218Y760232D01*
X353065Y760232D01*
X355014Y758283D01*
X355014Y754385D01*
X353065Y752436D01*
X347218Y752436D01*
X351116Y752436D02*
X355014Y748538D01*
X364759Y748538D02*
X364759Y760232D01*
X358912Y754385D01*
X366708Y754385D01*
X347218Y724672D02*
X347218Y712978D01*
X347218Y724672D02*
X353065Y724672D01*
X355014Y722723D01*
X355014Y718825D01*
X353065Y716876D01*
X347218Y716876D01*
X351116Y716876D02*
X355014Y712978D01*
X358912Y724672D02*
X366708Y724672D01*
X358912Y724672D02*
X358912Y718825D01*
X362810Y720774D01*
X364759Y720774D01*
X366708Y718825D01*
X366708Y714927D01*
X364759Y712978D01*
X360861Y712978D01*
X358912Y714927D01*
X347218Y691652D02*
X347218Y679958D01*
X347218Y691652D02*
X353065Y691652D01*
X355014Y689703D01*
X355014Y685805D01*
X353065Y683856D01*
X347218Y683856D01*
X351116Y683856D02*
X355014Y679958D01*
X362810Y689703D02*
X366708Y691652D01*
X362810Y689703D02*
X358912Y685805D01*
X358912Y681907D01*
X360861Y679958D01*
X364759Y679958D01*
X366708Y681907D01*
X366708Y683856D01*
X364759Y685805D01*
X358912Y685805D01*
X163810Y638312D02*
X163810Y626618D01*
X163810Y638312D02*
X169657Y638312D01*
X171606Y636363D01*
X171606Y632465D01*
X169657Y630516D01*
X163810Y630516D01*
X167708Y630516D02*
X171606Y626618D01*
X175504Y638312D02*
X183300Y638312D01*
X183300Y636363D01*
X175504Y628567D01*
X175504Y626618D01*
X181414Y603758D02*
X185312Y603758D01*
X183363Y603758D02*
X183363Y615452D01*
X181414Y615452D02*
X185312Y615452D01*
X195057Y615452D02*
X197006Y613503D01*
X195057Y615452D02*
X191159Y615452D01*
X189210Y613503D01*
X189210Y605707D01*
X191159Y603758D01*
X195057Y603758D01*
X197006Y605707D01*
X200904Y603758D02*
X208700Y603758D01*
X200904Y603758D02*
X208700Y611554D01*
X208700Y613503D01*
X206751Y615452D01*
X202853Y615452D01*
X200904Y613503D01*
X282438Y604525D02*
X284387Y606474D01*
X282438Y604525D02*
X282438Y600627D01*
X284387Y598678D01*
X292183Y598678D01*
X294132Y600627D01*
X294132Y604525D01*
X292183Y606474D01*
X286336Y610372D02*
X282438Y614270D01*
X294132Y614270D01*
X294132Y610372D02*
X294132Y618168D01*
X200074Y655413D02*
X198125Y657362D01*
X194227Y657362D01*
X192278Y655413D01*
X192278Y647617D01*
X194227Y645668D01*
X198125Y645668D01*
X200074Y647617D01*
X203972Y645668D02*
X211768Y645668D01*
X203972Y645668D02*
X211768Y653464D01*
X211768Y655413D01*
X209819Y657362D01*
X205921Y657362D01*
X203972Y655413D01*
D10*
X265938Y797814D02*
X265936Y797936D01*
X265930Y798058D01*
X265920Y798180D01*
X265907Y798301D01*
X265889Y798422D01*
X265868Y798542D01*
X265842Y798662D01*
X265813Y798780D01*
X265781Y798898D01*
X265744Y799015D01*
X265704Y799130D01*
X265660Y799244D01*
X265612Y799356D01*
X265561Y799467D01*
X265506Y799576D01*
X265448Y799684D01*
X265386Y799789D01*
X265321Y799892D01*
X265253Y799994D01*
X265181Y800093D01*
X265107Y800189D01*
X265029Y800284D01*
X264948Y800375D01*
X264865Y800465D01*
X264779Y800551D01*
X264689Y800634D01*
X264598Y800715D01*
X264503Y800793D01*
X264407Y800867D01*
X264308Y800939D01*
X264206Y801007D01*
X264103Y801072D01*
X263998Y801134D01*
X263890Y801192D01*
X263781Y801247D01*
X263670Y801298D01*
X263558Y801346D01*
X263444Y801390D01*
X263329Y801430D01*
X263212Y801467D01*
X263094Y801499D01*
X262976Y801528D01*
X262856Y801554D01*
X262736Y801575D01*
X262615Y801593D01*
X262494Y801606D01*
X262372Y801616D01*
X262250Y801622D01*
X262128Y801624D01*
X191262Y675386D02*
X191264Y675264D01*
X191270Y675142D01*
X191280Y675020D01*
X191293Y674899D01*
X191311Y674778D01*
X191332Y674658D01*
X191358Y674538D01*
X191387Y674420D01*
X191419Y674302D01*
X191456Y674185D01*
X191496Y674070D01*
X191540Y673956D01*
X191588Y673844D01*
X191639Y673733D01*
X191694Y673624D01*
X191752Y673516D01*
X191814Y673411D01*
X191879Y673308D01*
X191947Y673206D01*
X192019Y673107D01*
X192093Y673011D01*
X192171Y672916D01*
X192252Y672825D01*
X192335Y672735D01*
X192421Y672649D01*
X192511Y672566D01*
X192602Y672485D01*
X192697Y672407D01*
X192793Y672333D01*
X192892Y672261D01*
X192994Y672193D01*
X193097Y672128D01*
X193202Y672066D01*
X193310Y672008D01*
X193419Y671953D01*
X193530Y671902D01*
X193642Y671854D01*
X193756Y671810D01*
X193871Y671770D01*
X193988Y671733D01*
X194106Y671701D01*
X194224Y671672D01*
X194344Y671646D01*
X194464Y671625D01*
X194585Y671607D01*
X194706Y671594D01*
X194828Y671584D01*
X194950Y671578D01*
X195072Y671576D01*
X191262Y797814D02*
X191264Y797936D01*
X191270Y798058D01*
X191280Y798180D01*
X191293Y798301D01*
X191311Y798422D01*
X191332Y798542D01*
X191358Y798662D01*
X191387Y798780D01*
X191419Y798898D01*
X191456Y799015D01*
X191496Y799130D01*
X191540Y799244D01*
X191588Y799356D01*
X191639Y799467D01*
X191694Y799576D01*
X191752Y799684D01*
X191814Y799789D01*
X191879Y799892D01*
X191947Y799994D01*
X192019Y800093D01*
X192093Y800189D01*
X192171Y800284D01*
X192252Y800375D01*
X192335Y800465D01*
X192421Y800551D01*
X192511Y800634D01*
X192602Y800715D01*
X192697Y800793D01*
X192793Y800867D01*
X192892Y800939D01*
X192994Y801007D01*
X193097Y801072D01*
X193202Y801134D01*
X193310Y801192D01*
X193419Y801247D01*
X193530Y801298D01*
X193642Y801346D01*
X193756Y801390D01*
X193871Y801430D01*
X193988Y801467D01*
X194106Y801499D01*
X194224Y801528D01*
X194344Y801554D01*
X194464Y801575D01*
X194585Y801593D01*
X194706Y801606D01*
X194828Y801616D01*
X194950Y801622D01*
X195072Y801624D01*
X265938Y675386D02*
X265936Y675264D01*
X265930Y675142D01*
X265920Y675020D01*
X265907Y674899D01*
X265889Y674778D01*
X265868Y674658D01*
X265842Y674538D01*
X265813Y674420D01*
X265781Y674302D01*
X265744Y674185D01*
X265704Y674070D01*
X265660Y673956D01*
X265612Y673844D01*
X265561Y673733D01*
X265506Y673624D01*
X265448Y673516D01*
X265386Y673411D01*
X265321Y673308D01*
X265253Y673206D01*
X265181Y673107D01*
X265107Y673011D01*
X265029Y672916D01*
X264948Y672825D01*
X264865Y672735D01*
X264779Y672649D01*
X264689Y672566D01*
X264598Y672485D01*
X264503Y672407D01*
X264407Y672333D01*
X264308Y672261D01*
X264206Y672193D01*
X264103Y672128D01*
X263998Y672066D01*
X263890Y672008D01*
X263781Y671953D01*
X263670Y671902D01*
X263558Y671854D01*
X263444Y671810D01*
X263329Y671770D01*
X263212Y671733D01*
X263094Y671701D01*
X262976Y671672D01*
X262856Y671646D01*
X262736Y671625D01*
X262615Y671607D01*
X262494Y671594D01*
X262372Y671584D01*
X262250Y671578D01*
X262128Y671576D01*
X262128Y801624D02*
X195072Y801624D01*
X195072Y671576D02*
X215900Y671576D01*
X241300Y671576D01*
X262128Y671576D01*
D14*
X262382Y671830D02*
X262382Y801370D01*
D10*
X241300Y671576D02*
X241296Y671885D01*
X241285Y672194D01*
X241266Y672503D01*
X241240Y672811D01*
X241206Y673119D01*
X241165Y673425D01*
X241116Y673731D01*
X241060Y674035D01*
X240996Y674337D01*
X240925Y674638D01*
X240847Y674938D01*
X240762Y675235D01*
X240669Y675530D01*
X240569Y675823D01*
X240462Y676113D01*
X240348Y676400D01*
X240227Y676685D01*
X240099Y676967D01*
X239965Y677245D01*
X239823Y677520D01*
X239675Y677792D01*
X239520Y678059D01*
X239359Y678323D01*
X239192Y678583D01*
X239018Y678839D01*
X238838Y679091D01*
X238652Y679338D01*
X238460Y679580D01*
X238262Y679818D01*
X238059Y680051D01*
X237849Y680279D01*
X237635Y680501D01*
X237415Y680719D01*
X237189Y680931D01*
X236959Y681137D01*
X236724Y681338D01*
X236484Y681533D01*
X236239Y681722D01*
X235990Y681905D01*
X235736Y682082D01*
X235478Y682252D01*
X235216Y682417D01*
X234950Y682575D01*
X234680Y682726D01*
X234407Y682871D01*
X234130Y683009D01*
X233850Y683140D01*
X233567Y683264D01*
X233281Y683382D01*
X232992Y683492D01*
X232701Y683596D01*
X232407Y683692D01*
X232111Y683781D01*
X231812Y683863D01*
X231512Y683938D01*
X231210Y684005D01*
X230907Y684065D01*
X230602Y684117D01*
X230296Y684162D01*
X229989Y684200D01*
X229681Y684230D01*
X229373Y684252D01*
X229064Y684268D01*
X228755Y684275D01*
X228445Y684275D01*
X228136Y684268D01*
X227827Y684252D01*
X227519Y684230D01*
X227211Y684200D01*
X226904Y684162D01*
X226598Y684117D01*
X226293Y684065D01*
X225990Y684005D01*
X225688Y683938D01*
X225388Y683863D01*
X225089Y683781D01*
X224793Y683692D01*
X224499Y683596D01*
X224208Y683492D01*
X223919Y683382D01*
X223633Y683264D01*
X223350Y683140D01*
X223070Y683009D01*
X222793Y682871D01*
X222520Y682726D01*
X222250Y682575D01*
X221984Y682417D01*
X221722Y682252D01*
X221464Y682082D01*
X221210Y681905D01*
X220961Y681722D01*
X220716Y681533D01*
X220476Y681338D01*
X220241Y681137D01*
X220011Y680931D01*
X219785Y680719D01*
X219565Y680501D01*
X219351Y680279D01*
X219141Y680051D01*
X218938Y679818D01*
X218740Y679580D01*
X218548Y679338D01*
X218362Y679091D01*
X218182Y678839D01*
X218008Y678583D01*
X217841Y678323D01*
X217680Y678059D01*
X217525Y677792D01*
X217377Y677520D01*
X217235Y677245D01*
X217101Y676967D01*
X216973Y676685D01*
X216852Y676400D01*
X216738Y676113D01*
X216631Y675823D01*
X216531Y675530D01*
X216438Y675235D01*
X216353Y674938D01*
X216275Y674638D01*
X216204Y674337D01*
X216140Y674035D01*
X216084Y673731D01*
X216035Y673425D01*
X215994Y673119D01*
X215960Y672811D01*
X215934Y672503D01*
X215915Y672194D01*
X215904Y671885D01*
X215900Y671576D01*
D11*
X200594Y808355D02*
X196781Y808355D01*
X198688Y808355D02*
X198688Y819795D01*
X200594Y819795D02*
X196781Y819795D01*
X210297Y819795D02*
X212204Y817888D01*
X210297Y819795D02*
X206484Y819795D01*
X204577Y817888D01*
X204577Y810262D01*
X206484Y808355D01*
X210297Y808355D01*
X212204Y810262D01*
X216271Y815982D02*
X220084Y819795D01*
X220084Y808355D01*
X216271Y808355D02*
X223897Y808355D01*
M02*
