G04 EAGLE Gerber RS-274X export*
G75*
%MOMM*%
%FSLAX34Y34*%
%LPD*%
%INSoldermask Top*%
%IPPOS*%
%AMOC8*
5,1,8,0,0,1.08239X$1,22.5*%
G01*
%ADD10P,1.869504X8X112.500000*%
%ADD11C,3.505200*%
%ADD12C,2.082800*%
%ADD13C,5.283200*%
%ADD14R,1.203200X1.303200*%
%ADD15R,1.303200X1.203200*%
%ADD16R,1.203200X1.603200*%
%ADD17R,2.235200X0.863600*%
%ADD18C,1.209600*%


D10*
X132080Y902208D03*
X132080Y874522D03*
X132080Y847090D03*
X132080Y819404D03*
X132080Y791718D03*
X132080Y764286D03*
X132080Y736600D03*
X132080Y708914D03*
X132080Y681482D03*
X132080Y653796D03*
X132080Y626110D03*
X132080Y598678D03*
X132080Y570992D03*
X106680Y888492D03*
X106680Y860806D03*
X106680Y833120D03*
X106680Y805688D03*
X106680Y778002D03*
X106680Y750316D03*
X106680Y722884D03*
X106680Y695198D03*
X106680Y667512D03*
X106680Y640080D03*
X106680Y612394D03*
X106680Y584708D03*
D11*
X119380Y971804D03*
X119380Y501396D03*
D12*
X444500Y768300D03*
X444500Y745400D03*
X444500Y722500D03*
X444500Y699600D03*
X469900Y779800D03*
X469900Y756900D03*
X469900Y734000D03*
X469900Y711100D03*
D13*
X444500Y861600D03*
X444500Y611600D03*
D12*
X444500Y791200D03*
X469900Y688200D03*
X419100Y779800D03*
X419100Y756900D03*
X419100Y734000D03*
X419100Y711100D03*
X419100Y688200D03*
D14*
X311540Y736600D03*
X328540Y736600D03*
X311540Y703580D03*
X328540Y703580D03*
X311540Y670560D03*
X328540Y670560D03*
X366640Y736600D03*
X349640Y736600D03*
X366640Y703580D03*
X349640Y703580D03*
X366640Y670560D03*
X349640Y670560D03*
D15*
X172720Y598560D03*
X172720Y615560D03*
D16*
X231140Y598600D03*
X221640Y620600D03*
X240640Y620600D03*
D14*
X269240Y598560D03*
X269240Y615560D03*
D15*
X222640Y650240D03*
X239640Y650240D03*
D17*
X278892Y679450D03*
X278892Y692150D03*
X278892Y704850D03*
X278892Y717550D03*
X278892Y730250D03*
X278892Y742950D03*
X278892Y755650D03*
X278892Y768350D03*
X178308Y768350D03*
X178308Y755650D03*
X178308Y742950D03*
X178308Y730250D03*
X178308Y717550D03*
X178308Y704850D03*
X178308Y692150D03*
X178308Y679450D03*
X278892Y781050D03*
X278892Y793750D03*
X178308Y781050D03*
X178308Y793750D03*
D18*
X381000Y703580D03*
X381000Y670560D03*
X381000Y736600D03*
X510540Y711200D03*
M02*
