G04 EAGLE Gerber RS-274X export*
G75*
%MOMM*%
%FSLAX34Y34*%
%LPD*%
%INSoldermask Bottom*%
%IPPOS*%
%AMOC8*
5,1,8,0,0,1.08239X$1,22.5*%
G01*
%ADD10P,1.869504X8X112.500000*%
%ADD11C,3.505200*%
%ADD12C,2.082800*%
%ADD13C,5.283200*%
%ADD14C,1.209600*%


D10*
X132080Y902208D03*
X132080Y874522D03*
X132080Y847090D03*
X132080Y819404D03*
X132080Y791718D03*
X132080Y764286D03*
X132080Y736600D03*
X132080Y708914D03*
X132080Y681482D03*
X132080Y653796D03*
X132080Y626110D03*
X132080Y598678D03*
X132080Y570992D03*
X106680Y888492D03*
X106680Y860806D03*
X106680Y833120D03*
X106680Y805688D03*
X106680Y778002D03*
X106680Y750316D03*
X106680Y722884D03*
X106680Y695198D03*
X106680Y667512D03*
X106680Y640080D03*
X106680Y612394D03*
X106680Y584708D03*
D11*
X119380Y971804D03*
X119380Y501396D03*
D12*
X444500Y768300D03*
X444500Y745400D03*
X444500Y722500D03*
X444500Y699600D03*
X469900Y779800D03*
X469900Y756900D03*
X469900Y734000D03*
X469900Y711100D03*
D13*
X444500Y861600D03*
X444500Y611600D03*
D12*
X444500Y791200D03*
X469900Y688200D03*
X419100Y779800D03*
X419100Y756900D03*
X419100Y734000D03*
X419100Y711100D03*
X419100Y688200D03*
D14*
X381000Y703580D03*
X381000Y670560D03*
X381000Y736600D03*
X510540Y711200D03*
M02*
