G04 EAGLE Gerber RS-274X export*
G75*
%MOMM*%
%FSLAX34Y34*%
%LPD*%
%INSolderpaste Top*%
%IPPOS*%
%AMOC8*
5,1,8,0,0,1.08239X$1,22.5*%
G01*
%ADD10R,1.000000X1.100000*%
%ADD11R,1.100000X1.000000*%
%ADD12R,1.000000X1.400000*%
%ADD13R,2.032000X0.660400*%


D10*
X311540Y736600D03*
X328540Y736600D03*
X311540Y703580D03*
X328540Y703580D03*
X311540Y670560D03*
X328540Y670560D03*
X366640Y736600D03*
X349640Y736600D03*
X366640Y703580D03*
X349640Y703580D03*
X366640Y670560D03*
X349640Y670560D03*
D11*
X172720Y598560D03*
X172720Y615560D03*
D12*
X231140Y598600D03*
X221640Y620600D03*
X240640Y620600D03*
D10*
X269240Y598560D03*
X269240Y615560D03*
D11*
X222640Y650240D03*
X239640Y650240D03*
D13*
X278892Y679450D03*
X278892Y692150D03*
X278892Y704850D03*
X278892Y717550D03*
X278892Y730250D03*
X278892Y742950D03*
X278892Y755650D03*
X278892Y768350D03*
X178308Y768350D03*
X178308Y755650D03*
X178308Y742950D03*
X178308Y730250D03*
X178308Y717550D03*
X178308Y704850D03*
X178308Y692150D03*
X178308Y679450D03*
X278892Y781050D03*
X278892Y793750D03*
X178308Y781050D03*
X178308Y793750D03*
M02*
